<svg width="300" height="300" viewBox="0 0 137 100" fill="none" xmlns="http://www.w3.org/2000/svg">
<path d="M66.1967 98.0552L2.70912 60.2316C0.6886 59.0886 -1.0458 57.2084 0.925269 55.9799L64.6389 18.9469C65.5962 18.3486 67.048 17.9569 68.0194 18.5267L134.661 57.536C136.682 58.7182 137.046 62.0227 135.015 63.2085L74.5649 97.9946C73.2955 98.737 71.8562 99.1331 70.3887 99.1437C68.9213 99.1543 67.4764 98.7791 66.1967 98.0552Z" fill="#90CAF9"/>
<path d="M58.4683 55.8019L69.0124 59.7901C69.0124 59.7901 69.454 60.0785 69.1714 60.7693C69.0089 61.1646 68.1364 61.7343 68.1364 61.7343L59.0335 67.0756C58.5358 67.2993 58.0067 67.4434 57.4651 67.5029C56.7374 67.5457 55.5187 66.951 55.5187 66.951L47.041 62.0014L58.4683 55.8019Z" fill="#34323D"/>
<path d="M58.6193 55.3105L68.6936 59.4625C68.6936 59.4625 69.4001 59.8506 69.2129 60.3776C69.0115 60.7693 68.6976 61.0908 68.3121 61.2999L59.1845 66.5878C58.6868 66.8114 58.1577 66.9555 57.6161 67.0151C56.8884 67.0578 55.6697 66.4631 55.6697 66.4631L47.6406 61.8589L58.6193 55.3105Z" fill="#435950"/>
<path d="M31.2797 71.7795C31.0876 71.8619 30.8743 71.8798 30.6713 71.8304C30.4683 71.781 30.2865 71.667 30.1529 71.5053C30.1529 71.5053 29.9551 71.4661 29.9551 70.5937V30.1173C29.9658 29.767 30.0497 29.423 30.2013 29.1076C30.3528 28.7922 30.5686 28.5126 30.8346 28.287C31.8192 27.5921 32.8455 26.9594 33.9078 26.3926L78.5395 0.419629L79.0411 0.163246C79.2101 0.0786403 79.4036 0.0579842 79.5864 0.105035C79.7692 0.152086 79.9292 0.263719 80.0372 0.419629C80.168 0.64398 80.2431 0.896842 80.2562 1.15673C80.2739 1.58047 80.2562 5.67191 80.2562 5.67191V42.0996C80.2563 42.4493 80.1841 42.7952 80.0442 43.1153C79.9043 43.4353 79.6999 43.7224 79.4438 43.9584L31.2797 71.7795Z" fill="#334C42"/>
<path d="M30.7734 65.6548V30.7191C30.7734 29.5582 30.9324 28.9102 31.8332 28.4259L78.9022 0.939532C78.9948 0.870094 79.1048 0.828039 79.2199 0.81808C79.3349 0.80812 79.4504 0.83065 79.5535 0.883144C79.6565 0.935639 79.743 1.01602 79.8033 1.11529C79.8636 1.21456 79.8953 1.32879 79.8948 1.44518L79.7782 37.3672L30.7734 65.6548Z" fill="#17619E"/>
<path d="M37.0781 57.0339V31.3957C37.0781 30.5446 37.1947 30.0675 37.8447 29.7114L72.4055 9.53547C72.4728 9.48554 72.5523 9.45505 72.6354 9.44729C72.7186 9.43952 72.8023 9.45477 72.8775 9.4914C72.9528 9.52803 73.0166 9.58465 73.0623 9.65516C73.108 9.72567 73.1337 9.80741 73.1367 9.89156L73.0519 36.242L37.0781 57.0339Z" fill="#68E1FD"/>
<path d="M72.4055 9.52125L37.8447 29.6971C37.1947 30.0532 37.0781 30.5304 37.0781 31.3814V33.899L73.1085 13.2459V9.90582C73.1071 9.82382 73.0841 9.74364 73.042 9.67351C72.9998 9.60338 72.9399 9.5458 72.8683 9.50668C72.7968 9.46756 72.7163 9.44829 72.635 9.45085C72.5536 9.45341 72.4745 9.4777 72.4055 9.52125Z" fill="white"/>
<path d="M39.352 31.1646C39.431 30.6595 39.2793 30.2158 39.0134 30.1736C38.7474 30.1313 38.4679 30.5066 38.389 31.0117C38.3101 31.5168 38.4617 31.9604 38.7276 32.0027C38.9936 32.0449 39.2731 31.6696 39.352 31.1646Z" fill="#68E1FD"/>
<path d="M41.0942 30.2236C41.1731 29.7185 41.0215 29.2748 40.7556 29.2326C40.4896 29.1904 40.2101 29.5656 40.1312 30.0707C40.0523 30.5758 40.2039 31.0195 40.4698 31.0617C40.7358 31.1039 41.0153 30.7287 41.0942 30.2236Z" fill="#68E1FD"/>
<path d="M42.8325 29.2293C42.9114 28.7242 42.7598 28.2805 42.4939 28.2383C42.2279 28.196 41.9484 28.5713 41.8694 29.0764C41.7905 29.5814 41.9422 30.0251 42.2081 30.0674C42.4741 30.1096 42.7536 29.7343 42.8325 29.2293Z" fill="#68E1FD"/>
<path opacity="0.32" d="M83.5285 66.9545L82.4935 65.8862L68.8867 72.8477C71.5607 74.3184 73.1892 75.7819 75.9515 77.0851L84.846 71.4234L87.5695 69.4898L83.5285 66.9545Z" fill="url(#paint0_linear)"/>
<path d="M89.5695 40.839C89.5412 41.042 88.9513 44.1328 89.1597 44.3358C89.3681 44.5388 89.5695 43.8693 89.5695 43.8693C89.5695 43.8693 89.6578 45.5607 90.2336 46.0059C90.8093 46.451 91.2156 44.7524 91.3321 44.1115C91.392 43.2377 91.392 42.3609 91.3321 41.4871" fill="#FDBA45"/>
<path d="M78.7679 27.119V25.4383C78.7679 25.4383 79.4037 23.8466 79.1847 23.6935C78.9657 23.5404 78.3723 24.6834 78.3723 24.6834C78.3723 24.6834 77.4079 22.5647 77.1465 22.5469C76.8851 22.5291 75.9844 23.7398 75.9844 24.249C75.9844 24.7582 76.7297 25.8514 76.9275 26.1327C77.2009 26.7841 77.4287 27.454 77.6093 28.1374" fill="#FDBA45"/>
<path d="M83.9005 26.0686C83.9005 26.0686 81.3537 30.9363 80.8945 30.8117C80.4353 30.6871 78.934 26.706 78.934 26.706C78.2058 27.0892 77.4983 27.5112 76.8146 27.9701C76.5638 28.2194 78.0262 35.3304 81.4067 35.0598C84.7872 34.7892 85.7656 31.6592 85.7656 31.6592" fill="#EA8518"/>
<path d="M84.4153 38.4889C84.1433 38.3323 83.8572 38.1756 83.5852 38.0367C82.4372 40.1234 81.7943 42.3703 81.222 44.6706C81.1373 45.4682 81.0595 46.2623 80.996 47.0599C80.6145 51.9027 81.4022 59.2559 81.5294 64.1023C81.5505 64.8928 81.9815 64.7931 83.2072 64.1023C86.2698 52.1342 82.6527 52.7965 84.4153 38.4889Z" fill="#FDBA45"/>
<path d="M81.4391 61.891C81.4391 61.891 81.6157 64.8608 81.3225 65.3272C81.0293 65.7937 79.1395 67.4638 78.7827 67.681C78.426 67.8982 78.0198 68.3468 78.1681 68.6175C78.3165 68.8881 79.6093 69.5967 80.6408 69.5041C81.6722 69.4115 81.9442 68.0976 82.5271 67.9694C83.1099 67.8412 83.6292 67.8519 83.8447 67.2572C84.0601 66.6626 83.1029 63.878 83.4914 62.4002C83.88 60.9225 81.4391 61.891 81.4391 61.891Z" fill="#FDBA45"/>
<path d="M81.0433 67.4352C80.524 67.6097 79.6303 67.7201 79.2594 67.307C79.1082 67.4358 78.9489 67.5548 78.7826 67.6631C78.4293 67.8661 78.0196 68.329 78.1679 68.5996C78.3163 68.8703 79.6091 69.5789 80.6406 69.4863C81.6721 69.3937 81.944 68.0797 82.5269 67.9516C83.1097 67.8234 83.629 67.834 83.8445 67.2394C83.9363 66.9866 83.8127 66.3242 83.6749 65.5337C82.977 66.3878 82.0698 67.0433 81.0433 67.4352Z" fill="#475BA2"/>
<path d="M88.2419 40.5186C87.1822 39.9025 85.9246 39.3435 85.9246 39.3435C85.3806 40.7394 85.5361 42.5483 85.3594 44.0189C85.1546 45.7068 84.9603 47.3946 84.826 49.0896C84.4445 53.9324 85.2323 61.2856 85.3594 66.1319C85.3806 66.9224 85.8116 66.8227 87.0373 66.1319C90.1105 54.1638 86.4933 54.8262 88.2419 40.5186Z" fill="#FDBA45"/>
<path d="M83.9359 63.6073C85.2959 63.7604 87.0338 64.2803 88.3514 63.91C88.5351 60.4524 89.2734 42.8759 89.2133 41.8112C89.0791 39.3578 87.3623 36.4307 87.3623 36.4307L82.5866 35.9678C82.5866 35.9678 80.9016 39.194 80.6967 41.2166C80.6155 42.032 79.8313 59.1242 79.8419 62.126C81.0789 62.9235 82.4782 63.4298 83.9359 63.6073Z" fill="#68E1FD"/>
<path d="M85.275 63.9171C85.275 63.9171 85.4517 66.8869 85.1585 67.3533C84.8653 67.8198 82.9755 69.4899 82.6187 69.7071C82.2619 69.9243 81.8557 70.373 82.0041 70.6436C82.1524 70.9142 83.4453 71.6228 84.4767 71.5302C85.5082 71.4377 85.7802 70.1237 86.363 69.9955C86.9459 69.8673 87.4651 69.878 87.6806 69.2833C87.8961 68.6887 86.9388 65.9041 87.3274 64.4263C87.7159 62.9485 85.275 63.9171 85.275 63.9171Z" fill="#FDBA45"/>
<path d="M84.8792 69.4614C84.36 69.6359 83.4663 69.7462 83.0954 69.3332C82.9441 69.462 82.7848 69.5809 82.6185 69.6893C82.2653 69.8922 81.8555 70.3552 82.0039 70.6258C82.1522 70.8964 83.4451 71.605 84.4765 71.5124C85.508 71.4199 85.78 70.1059 86.3628 69.9777C86.9457 69.8495 87.4649 69.8602 87.6804 69.2655C87.7722 69.0127 87.6486 68.3504 87.5108 67.5599C86.8129 68.4139 85.9057 69.0694 84.8792 69.4614Z" fill="#475BA2"/>
<path d="M91.5195 33.4503V33.3755C91.2433 31.8905 90.8086 30.4399 90.2231 29.0491C89.9511 28.3369 89.2764 27.7493 88.736 27.2366C88.0138 26.545 87.2429 25.9072 86.4293 25.328C86.4293 25.328 84.7974 25.7232 83.9037 26.0686C83.282 26.3108 83.0276 27.1369 82.798 27.6853C82.413 28.6396 81.6995 29.6188 81.7171 30.7084C81.749 31.4957 81.8352 32.2798 81.975 33.055C82.1622 34.2408 82.3953 35.4195 82.6567 36.591C82.6567 36.591 85.9913 36.8581 87.4431 36.648L87.7504 33.5642C87.7504 33.5642 88.7289 38.4142 89.1175 41.0207L89.2128 41.8112L91.6219 41.9679C91.7992 40.5785 91.8524 39.1758 91.7809 37.7768C91.7899 36.3303 91.7025 34.8849 91.5195 33.4503Z" fill="#FF9A22"/>
<path d="M83.1995 21.3327C83.1995 21.3327 82.8392 25.1321 84.3546 25.6805C85.87 26.2289 86.852 24.3487 86.852 24.3487C86.852 24.3487 87.3748 21.8027 86.9121 21.2187C86.4493 20.6347 84.1038 20.3178 83.1995 21.3327Z" fill="#FDBA45"/>
<path d="M84.2995 21.6389C83.9698 21.9123 83.5797 22.1016 83.162 22.1908C82.6357 22.2406 82.346 21.4786 82.2719 21.0727C82.1977 20.6667 82.5898 19.2923 84.9989 19.2139C87.408 19.1356 88.828 21.1938 88.828 22.4187C88.828 23.6436 88.6832 26.7309 88.6832 26.7309C87.6283 26.685 86.5779 26.5661 85.5393 26.3748C85.5393 26.3748 86.3447 23.5831 86.1752 22.7178C86.0056 21.8525 84.2995 21.6389 84.2995 21.6389Z" fill="#475BA2"/>
<path opacity="0.32" d="M115.332 69.0982C116.649 68.2839 117.954 67.4531 119.25 66.6056C121.464 65.1527 123.926 63.7782 125.982 62.0441L115.629 59.231L104.594 64.9106C106.738 66.0429 109.649 67.6026 113.891 69.9528C114.378 69.6679 114.859 69.3902 115.332 69.0982Z" fill="url(#paint1_linear)"/>
<path d="M121.365 46.0949C117.295 46.0949 113.996 47.181 113.996 48.5234H128.733C128.733 47.181 125.434 46.0949 121.365 46.0949Z" fill="#0A1D23"/>
<path d="M114.027 48.7086L114.002 48.5199C114.003 48.5836 114.011 48.6469 114.027 48.7086Z" fill="#06489E"/>
<path d="M128.732 48.5199L128.703 48.7336C128.722 48.6639 128.731 48.5921 128.732 48.5199Z" fill="#06489E"/>
<path d="M121.365 50.9484C125.215 50.9484 128.376 49.9728 128.705 48.7336L128.733 48.5199H113.996L114.021 48.7086C114.31 49.9621 117.486 50.9484 121.365 50.9484Z" fill="#0A1D23"/>
<path d="M124.178 35.9821H122.521V53.2238H124.178V35.9821Z" fill="#25B000"/>
<path d="M123.35 36.3346C123.808 36.3346 124.18 36.1767 124.18 35.982C124.18 35.7874 123.808 35.6295 123.35 35.6295C122.891 35.6295 122.52 35.7874 122.52 35.982C122.52 36.1767 122.891 36.3346 123.35 36.3346Z" fill="#25B000"/>
<path d="M127.865 39.27L126.242 38.9359L122.821 55.8291L124.444 56.1632L127.865 39.27Z" fill="#FF8F02"/>
<path d="M127.865 39.2726C127.903 39.0818 127.57 38.8522 127.121 38.7598C126.672 38.6673 126.277 38.747 126.238 38.9378C126.199 39.1285 126.532 39.3581 126.981 39.4506C127.43 39.543 127.826 39.4633 127.865 39.2726Z" fill="#FF8F02"/>
<path d="M119.362 48.9009L117.85 49.7733C117.819 49.7913 117.783 49.7961 117.748 49.7868C117.714 49.7774 117.685 49.7546 117.667 49.7235C117.649 49.6923 117.644 49.6553 117.653 49.6206C117.663 49.5858 117.685 49.5563 117.716 49.5383L119.263 48.6445C119.28 48.6415 119.296 48.6415 119.313 48.6445L119.009 46.9923L117.487 47.8683C117.456 47.8862 117.419 47.891 117.384 47.8817C117.35 47.8723 117.321 47.8496 117.303 47.8184C117.285 47.7872 117.28 47.7502 117.29 47.7155C117.299 47.6808 117.321 47.6512 117.352 47.6332L118.9 46.7395C118.917 46.7294 118.936 46.7233 118.956 46.7217L118.673 45.1941L117.176 46.0558C117.145 46.0737 117.108 46.0786 117.074 46.0692C117.039 46.0599 117.01 46.0371 116.992 46.0059C116.974 45.9748 116.969 45.9377 116.979 45.903C116.988 45.8683 117.011 45.8387 117.041 45.8208L118.589 44.927H118.62L118.306 43.2249L116.815 44.0831C116.8 44.0919 116.783 44.0977 116.766 44.1C116.748 44.1023 116.73 44.1011 116.713 44.0965C116.696 44.0919 116.68 44.0839 116.666 44.073C116.652 44.0622 116.641 44.0486 116.632 44.0332C116.623 44.0178 116.617 44.0007 116.615 43.9831C116.613 43.9654 116.614 43.9475 116.618 43.9303C116.623 43.9131 116.631 43.897 116.642 43.8829C116.652 43.8688 116.666 43.8569 116.681 43.848L118.228 42.9543H118.253L117.946 41.2913L116.43 42.1638C116.399 42.1817 116.363 42.1865 116.328 42.1772C116.294 42.1678 116.264 42.1451 116.247 42.1139C116.229 42.0827 116.224 42.0457 116.233 42.011C116.243 41.9763 116.265 41.9467 116.296 41.9287L117.843 41.035C117.86 41.032 117.876 41.032 117.893 41.035L117.628 39.5928L116.112 40.4652C116.082 40.4832 116.045 40.488 116.01 40.4786C115.976 40.4693 115.947 40.4465 115.929 40.4154C115.911 40.3842 115.906 40.3472 115.915 40.3125C115.925 40.2777 115.947 40.2481 115.978 40.2302L117.525 39.3364C117.542 39.3334 117.559 39.3334 117.575 39.3364L117.31 37.9121L115.798 38.7845C115.783 38.7934 115.766 38.7991 115.748 38.8014C115.731 38.8037 115.713 38.8025 115.696 38.7979C115.679 38.7933 115.663 38.7853 115.649 38.7745C115.635 38.7636 115.623 38.7501 115.614 38.7346C115.606 38.7192 115.6 38.7022 115.598 38.6845C115.595 38.6669 115.596 38.6489 115.601 38.6317C115.606 38.6145 115.614 38.5984 115.624 38.5843C115.635 38.5702 115.649 38.5584 115.664 38.5495L117.211 37.6557H117.257L116.964 36.0675L115.466 36.9293C115.451 36.9382 115.434 36.9439 115.416 36.9462C115.399 36.9485 115.381 36.9473 115.364 36.9427C115.347 36.9381 115.331 36.9301 115.317 36.9192C115.303 36.9084 115.291 36.8949 115.282 36.8794C115.274 36.864 115.268 36.847 115.266 36.8293C115.263 36.8117 115.264 36.7937 115.269 36.7765C115.274 36.7593 115.282 36.7432 115.292 36.7291C115.303 36.715 115.317 36.7031 115.332 36.6943L116.879 35.8005H116.907L116.773 35.0634L113.484 37.118C113.484 37.118 115.819 50.2256 115.869 50.2505C117.232 50.9627 119.712 51.0517 119.712 51.0517L119.362 48.9009Z" fill="#FF9A22"/>
<path d="M115.355 36.6052C115.324 36.6232 115.301 36.6527 115.292 36.6875C115.282 36.7222 115.287 36.7592 115.305 36.7904C115.323 36.8215 115.352 36.8443 115.387 36.8537C115.421 36.863 115.458 36.8582 115.489 36.8402L116.986 35.9785L116.937 35.7007H116.909L115.355 36.6052Z" fill="#CA4300"/>
<path d="M115.681 38.4747C115.665 38.4835 115.652 38.4954 115.641 38.5095C115.63 38.5236 115.622 38.5397 115.618 38.5569C115.613 38.5741 115.612 38.5921 115.614 38.6097C115.617 38.6274 115.622 38.6444 115.631 38.6598C115.64 38.6753 115.652 38.6888 115.666 38.6996C115.68 38.7105 115.696 38.7185 115.713 38.7231C115.73 38.7277 115.748 38.7289 115.765 38.7266C115.783 38.7243 115.8 38.7186 115.815 38.7097L117.327 37.8373L117.277 37.5667H117.231L115.681 38.4747Z" fill="#CA4300"/>
<path d="M115.991 40.1875C115.96 40.2054 115.938 40.235 115.928 40.2697C115.919 40.3044 115.924 40.3415 115.942 40.3726C115.96 40.4038 115.989 40.4266 116.023 40.4359C116.058 40.4453 116.095 40.4404 116.125 40.4225L117.641 39.5501L117.591 39.2794C117.575 39.2764 117.558 39.2764 117.542 39.2794L115.991 40.1875Z" fill="#CA4300"/>
<path d="M116.313 41.9002C116.283 41.9182 116.26 41.9478 116.251 41.9825C116.241 42.0172 116.246 42.0542 116.264 42.0854C116.282 42.1166 116.311 42.1393 116.346 42.1487C116.38 42.158 116.417 42.1532 116.448 42.1353L117.963 41.2629L117.914 40.9922C117.897 40.9892 117.881 40.9892 117.864 40.9922L116.313 41.9002Z" fill="#CA4300"/>
<path d="M116.688 43.8267C116.673 43.8356 116.66 43.8474 116.649 43.8615C116.638 43.8756 116.63 43.8917 116.626 43.9089C116.621 43.9261 116.62 43.9441 116.622 43.9617C116.625 43.9794 116.63 43.9964 116.639 44.0118C116.648 44.0273 116.66 44.0408 116.674 44.0517C116.688 44.0625 116.704 44.0705 116.721 44.0751C116.738 44.0797 116.755 44.0809 116.773 44.0786C116.791 44.0763 116.807 44.0706 116.823 44.0617L118.313 43.2035L118.26 42.9364H118.236L116.688 43.8267Z" fill="#CA4300"/>
<path d="M117.05 45.8101C117.019 45.828 116.996 45.8576 116.987 45.8923C116.978 45.927 116.983 45.9641 117 45.9952C117.018 46.0264 117.048 46.0491 117.082 46.0585C117.116 46.0678 117.153 46.063 117.184 46.0451L118.682 45.1833L118.632 44.9056H118.601L117.05 45.8101Z" fill="#CA4300"/>
<path d="M118.902 46.7287L117.354 47.6225C117.324 47.6405 117.301 47.67 117.292 47.7048C117.282 47.7395 117.287 47.7765 117.305 47.8077C117.323 47.8388 117.352 47.8616 117.387 47.871C117.421 47.8803 117.458 47.8755 117.489 47.8575L119.011 46.9815L118.962 46.7145C118.941 46.7145 118.92 46.7193 118.902 46.7287Z" fill="#CA4300"/>
<path d="M117.718 49.5383C117.687 49.5563 117.664 49.5859 117.655 49.6206C117.646 49.6553 117.651 49.6923 117.668 49.7235C117.686 49.7547 117.715 49.7774 117.75 49.7868C117.784 49.7961 117.821 49.7913 117.852 49.7734L119.364 48.9009L119.325 48.6339C119.309 48.6309 119.292 48.6309 119.276 48.6339L117.718 49.5383Z" fill="#CA4300"/>
<path d="M126.242 38.9376C126.242 38.9376 126.327 39.3756 126.984 39.4504C127.641 39.5252 127.867 39.2723 127.867 39.2723L127.655 35.9821L126.242 38.9376Z" fill="#FFD8BD"/>
<path d="M127.65 35.9821L126.996 37.353C127.09 37.4561 127.216 37.5232 127.353 37.5427C127.491 37.5622 127.63 37.5329 127.748 37.4599L127.65 35.9821Z" fill="#653200"/>
<path d="M122.521 35.8824C122.521 35.8824 122.673 36.3025 123.334 36.2705C123.994 36.2384 124.178 35.9536 124.178 35.9536L123.451 32.7488L122.521 35.8824Z" fill="#FFD8BD"/>
<path d="M123.454 32.7416L123.023 34.2016C123.13 34.2904 123.265 34.339 123.403 34.339C123.542 34.339 123.676 34.2904 123.783 34.2016L123.454 32.7416Z" fill="#653200"/>
<path d="M121.363 50.9484C117.478 50.9484 114.299 49.962 114.02 48.7086C114.21 50.2077 115.535 60.5165 115.588 60.5735C115.588 60.5735 116.263 63.4791 121.363 63.4791C125.705 63.4791 126.941 61.2821 126.941 61.2821L128.707 48.7335C128.375 49.9763 125.214 50.9484 121.363 50.9484Z" fill="#68E1FD"/>
<path opacity="0.57" d="M70.6339 31.912V19.5237L62.2656 24.3843V36.7441L70.6339 31.912Z" fill="white"/>
<path opacity="0.57" d="M48.2374 44.2754V31.8871L39.8691 36.7441V49.1039L48.2374 44.2754Z" fill="white"/>
<path opacity="0.32" d="M58.698 76.6828L57.663 75.6145L44.0527 82.5618C46.7267 84.0324 48.3552 85.496 51.1175 86.7992L60.005 81.1553L62.7284 79.2217L58.698 76.6828Z" fill="url(#paint2_linear)"/>
<path d="M38.6946 42.2243C38.9737 42.3525 39.2457 42.4842 39.5212 42.616C39.3057 42.4807 39.0902 42.3382 38.8854 42.1851C38.6805 42.032 38.3767 41.6901 38.4226 41.4088C38.4897 40.9851 39.2174 41.3625 39.7614 41.7044C39.3834 41.3732 39.0726 40.9922 39.4082 40.8462C39.7437 40.7002 40.0828 41.1168 40.2842 41.2593C40.6374 41.5157 40.9907 41.7899 41.3192 42.0818C41.0834 41.7671 40.8731 41.4336 40.6904 41.0848C40.4961 40.7572 40.9801 40.4866 41.2167 40.7287C41.8863 41.4628 42.6076 42.1471 43.375 42.7762C43.4108 42.8031 43.4409 42.837 43.4633 42.8759H43.9332C44.0744 42.8759 44.2051 42.8759 44.3358 42.8759H44.4489C44.4963 42.8658 44.5455 42.8681 44.5918 42.8824C44.6382 42.8967 44.6801 42.9227 44.7138 42.9578C44.7754 42.9787 44.8346 43.0062 44.8904 43.0397C44.9084 43.0521 44.925 43.0664 44.9399 43.0824C45.0953 43.0824 45.2507 43.1109 45.4026 43.1323C45.4536 43.1433 45.5014 43.1656 45.5428 43.1974C45.5842 43.2293 45.6181 43.27 45.6421 43.3166C45.6661 43.3632 45.6795 43.4146 45.6815 43.4671C45.6834 43.5196 45.6739 43.5718 45.6534 43.6201L45.717 43.5845C46.0702 43.3673 46.3422 43.9406 45.9961 44.165C45.2607 44.6199 44.4145 44.8603 43.5517 44.8593C43.5472 44.8984 43.5277 44.9342 43.4972 44.9588C43.4668 44.9835 43.428 44.9951 43.3892 44.9911C42.4735 44.9669 41.5659 44.811 40.694 44.5282C40.5852 44.4976 40.4798 44.4559 40.3796 44.4035C39.8589 44.1876 39.3805 43.8802 38.9666 43.4955C38.9379 43.4679 38.9193 43.4313 38.9138 43.3917C38.9083 43.352 38.9162 43.3117 38.9361 43.2771C38.9561 43.2426 38.9871 43.2158 39.024 43.2012C39.061 43.1865 39.1017 43.1848 39.1397 43.1964L39.2916 43.2427C39.1927 43.1857 39.0938 43.1323 38.9984 43.0718C38.7582 42.9186 38.4721 42.7335 38.4332 42.4272C38.4248 42.393 38.4265 42.357 38.438 42.3237C38.4495 42.2904 38.4704 42.2612 38.4982 42.2397C38.5259 42.2182 38.5592 42.2052 38.5941 42.2025C38.629 42.1998 38.6639 42.2073 38.6946 42.2243Z" fill="#FCBF81"/>
<path d="M50.6392 38.2788C50.7664 38.2397 49.6396 36.6764 49.5477 36.5304C49.0053 35.662 48.51 34.7646 48.0641 33.842C48.0492 33.8132 48.0274 33.7887 48.0005 33.7708C47.9179 33.5943 47.8247 33.4231 47.7215 33.258C47.6972 33.2138 47.6591 33.179 47.613 33.159C47.567 33.139 47.5157 33.135 47.4671 33.1477C47.4186 33.1603 47.3756 33.1889 47.3449 33.2288C47.3142 33.2688 47.2976 33.3179 47.2976 33.3684C47.2667 33.8922 47.3896 34.4136 47.6508 34.8675C47.5413 34.9921 47.4177 35.1239 47.2976 35.2628C47.3136 35.274 47.3256 35.29 47.332 35.3086C47.3383 35.3272 47.3387 35.3473 47.3329 35.366C47.3076 35.4422 47.2694 35.5133 47.2199 35.5761C47.1924 35.6218 47.1579 35.6627 47.1175 35.6972C47.1004 35.7114 47.0795 35.7201 47.0574 35.7221C47.0345 35.8275 47.0356 35.9367 47.0607 36.0416C47.0858 36.1465 47.1342 36.2442 47.2022 36.3275C47.1079 36.533 47.0928 36.7665 47.1598 36.9827V37.0112H47.1952C47.4911 37.1836 47.7734 37.3788 48.0394 37.5951C48.0504 37.6071 48.0584 37.6214 48.0628 37.6371C48.0672 37.6527 48.0679 37.6692 48.0648 37.6852C48.0617 37.7012 48.0549 37.7162 48.045 37.729C48.035 37.7418 48.0222 37.7521 48.0076 37.7589C48.2233 37.8638 48.4451 37.9553 48.6717 38.0331C48.6962 38.0439 48.7227 38.0495 48.7494 38.0495C48.7762 38.0495 48.8026 38.0439 48.8271 38.0331C48.8554 38.0616 48.8836 38.0901 48.9154 38.1186C48.9435 38.1467 48.9782 38.1671 49.0164 38.1777C49.0545 38.1883 49.0947 38.1888 49.1331 38.1791C49.1715 38.1694 49.2067 38.1499 49.2354 38.1225C49.2641 38.095 49.2853 38.0606 49.2969 38.0224C49.3012 37.9953 49.3012 37.9677 49.2969 37.9405L49.3782 38.0331C49.3682 38.0706 49.3665 38.1098 49.3733 38.148C49.3801 38.1862 49.3952 38.2224 49.4174 38.254C49.4397 38.2856 49.4686 38.3119 49.5021 38.331C49.5357 38.3501 49.5729 38.3614 49.6113 38.3643C49.6774 38.3729 49.7444 38.356 49.7987 38.3171C49.853 38.2782 49.8908 38.22 49.9045 38.1542C49.9102 38.12 49.9102 38.0851 49.9045 38.0509L50.0776 38.318C50.0844 38.3279 50.0938 38.3356 50.1048 38.3404C50.1158 38.3451 50.1278 38.3466 50.1396 38.3448C50.1514 38.3429 50.1625 38.3378 50.1715 38.3299C50.1805 38.322 50.1871 38.3117 50.1906 38.3002C50.1927 38.292 50.1927 38.2834 50.1906 38.2753C50.2824 38.428 50.3627 38.5875 50.4308 38.7524C51.5965 40.4866 50.671 38.3394 50.6392 38.2788ZM49.636 38.229C49.6 38.2282 49.5656 38.2139 49.5394 38.1889C49.5133 38.1638 49.4974 38.1299 49.4947 38.0937C49.528 38.1019 49.5626 38.1027 49.5962 38.0959C49.6298 38.0892 49.6615 38.075 49.689 38.0545C49.6947 38.0612 49.7017 38.0667 49.7096 38.0704C49.7176 38.0741 49.7262 38.076 49.7349 38.076C49.7437 38.076 49.7523 38.0741 49.7603 38.0704C49.7682 38.0667 49.7752 38.0612 49.7809 38.0545C49.785 38.0756 49.7845 38.0974 49.7794 38.1183C49.7742 38.1392 49.7645 38.1586 49.751 38.1753C49.7375 38.192 49.7205 38.2054 49.7012 38.2147C49.682 38.224 49.6609 38.2289 49.6396 38.229H49.636Z" fill="#FCBF81"/>
<path d="M50.3383 38.2361C50.0928 38.0397 49.8866 37.798 49.7307 37.5239C49.7005 37.4674 49.6593 37.4175 49.6096 37.3774C49.5599 37.3373 49.5026 37.3077 49.4413 37.2904C49.3799 37.2731 49.3157 37.2685 49.2526 37.2768C49.1894 37.2851 49.1286 37.3062 49.0737 37.3388C49.0568 37.2125 49.0486 37.0852 49.0489 36.9577C49.0489 36.3132 48.0422 36.3025 48.0528 36.9577C48.0324 37.4612 48.1668 37.9587 48.4378 38.3821C48.7391 38.7676 49.1064 39.0956 49.5223 39.3506C49.5957 39.3922 49.6781 39.4149 49.7623 39.4168C49.8464 39.4186 49.9298 39.3994 50.0049 39.3611C50.08 39.3227 50.1445 39.2662 50.1928 39.1967C50.2411 39.1272 50.2716 39.0468 50.2817 38.9625L50.3277 38.9269C50.416 38.8346 50.4663 38.7119 50.4683 38.5836C50.4702 38.4553 50.4238 38.3311 50.3383 38.2361Z" fill="#FCBF81"/>
<path d="M48.8049 38.5138C48.4865 38.3117 48.2404 38.0124 48.1025 37.6595C47.9646 37.3066 47.9422 36.9185 48.0384 36.5518C48.0421 36.544 48.0441 36.5355 48.0441 36.5269C48.0441 36.5182 48.0421 36.5097 48.0384 36.5019L47.7028 35.9037C47.6534 35.8147 47.5968 35.7257 47.5545 35.6331C47.4838 35.4728 47.3955 34.8532 47.8406 35.1132C48.0018 35.2808 48.1375 35.4716 48.2433 35.6794C48.3704 35.8645 48.4905 36.0568 48.5965 36.2455C48.6389 36.3132 48.7484 36.2455 48.706 36.185C48.487 35.8313 48.2515 35.4859 47.9995 35.1488C47.8865 34.9921 47.7664 34.8283 47.5545 34.928C47.473 34.9616 47.4054 35.0224 47.363 35.1001C47.3206 35.1779 47.3059 35.268 47.3213 35.3553C47.2436 35.5049 47.0811 35.6188 47.0529 35.7933C47.0499 35.971 47.1018 36.1451 47.2012 36.2918L47.2577 36.388C47.248 36.3951 47.2406 36.405 47.2365 36.4165C47.1659 36.6088 47.0352 36.8224 47.18 37.0076C47.2442 37.0806 47.3193 37.1431 47.4026 37.1927L47.8017 37.4634C47.8081 37.4679 47.8154 37.471 47.823 37.4726C47.8307 37.4741 47.8386 37.4741 47.8462 37.4724C47.8538 37.4707 47.8611 37.4675 47.8674 37.4629C47.8737 37.4582 47.879 37.4524 47.883 37.4456C48.0086 37.9337 48.3094 38.3575 48.7272 38.6349C48.8084 38.6634 48.872 38.5601 48.8049 38.5138ZM47.2648 36.0639C47.2275 35.9992 47.21 35.9248 47.2144 35.8501C47.2188 35.7754 47.2449 35.7036 47.2895 35.6438C47.3213 35.601 47.3531 35.5619 47.3814 35.5227C47.5208 35.8844 47.7035 36.2276 47.9253 36.5447V36.5874C47.9156 36.5802 47.9039 36.5763 47.8918 36.5763C47.8797 36.5763 47.868 36.5802 47.8582 36.5874C47.565 36.7334 47.3354 36.2562 47.2648 36.0639ZM47.4061 37.0147C47.3572 36.989 47.3178 36.9481 47.2936 36.8981C47.2694 36.8481 47.2618 36.7916 47.2719 36.7369C47.2933 36.6512 47.3229 36.5677 47.3602 36.4877C47.4909 36.6622 47.6746 36.8046 47.8865 36.6978C47.847 36.9108 47.847 37.1293 47.8865 37.3423C47.7205 37.239 47.5545 37.1286 47.399 37.0147H47.4061Z" fill="#34323D"/>
<path d="M55.8585 40.6468C55.8585 40.6468 52.9514 40.7999 52.2096 40.0877C51.4678 39.3755 50.3622 37.1749 50.3622 37.1749C50.3622 37.1749 48.3593 38.4711 48.2427 39.2189C48.1261 39.9666 50.3374 43.5774 51.3088 43.8195" fill="#4D47C4"/>
<path d="M60.2671 76.7647C60.2671 76.7647 57.7945 75.6644 57.2187 75.6181C56.6429 75.5718 55.6397 75.7784 56.5122 76.8716C56.5122 76.8716 59.0979 78.5772 59.437 78.6306C59.7761 78.6841 60.6063 78.4241 60.6274 78.5131C60.6486 78.6022 60.7264 79.2609 60.7264 79.2609C60.7264 79.2609 62.8882 80.0906 62.98 78.6342C62.98 78.4455 62.6692 75.7392 62.6692 75.7392" fill="#34323D"/>
<path d="M63.0858 70.3943C62.6584 67.5954 61.8777 64.8821 61.5492 62.0476C61.3443 60.2672 61.196 58.4867 60.9805 56.7063C60.765 54.9259 60.1045 53.2024 59.6806 51.4398C59.6694 51.3988 59.6721 51.3553 59.688 51.316C59.704 51.2767 59.7324 51.2439 59.7689 51.2226C59.7477 51.162 59.73 51.0979 59.7124 51.0374C59.4934 50.8273 59.2708 50.6279 59.0553 50.4392L56.0352 52.4902C56.0352 52.4902 56.0528 54.3561 56.1482 57.0553C56.5014 58.6292 56.7664 60.0357 57.162 61.5277C57.1189 61.575 57.088 61.6321 57.072 61.6942C57.056 61.7563 57.0554 61.8214 57.0701 61.8838C58.0527 66.5867 58.7686 71.3423 59.2143 76.1273C59.2204 76.2064 59.249 76.282 59.2966 76.3451C59.3442 76.4083 59.4088 76.4563 59.4828 76.4834L59.5675 77.2205C62.1956 78.2424 62.7714 76.462 62.7714 76.462C62.7714 76.462 62.8915 74.9451 63.0399 72.837C63.0893 72.0109 63.1034 71.2026 63.0858 70.3943Z" fill="#68E1FD"/>
<path d="M54.8922 80.849L53.4298 81.3938C53.3865 81.5279 53.3094 81.6484 53.206 81.7433C53.1025 81.8382 52.9763 81.9043 52.8399 81.9351C52.788 81.9974 52.7149 82.038 52.635 82.0491C52.0428 82.091 51.449 81.9935 50.9006 81.7642C50.1941 81.5434 47.4706 80.4894 48.2301 82.4764C48.7282 82.8324 49.2898 83.1351 49.795 83.4485C50.0811 83.623 50.3707 83.8046 50.6639 83.9613C50.8194 84.0683 50.9912 84.1488 51.1726 84.1998C51.5647 84.2604 52.5184 83.9613 52.5431 84.0645C52.5679 84.1678 52.6562 84.9263 52.6562 84.9263C52.6562 84.9263 55.1289 85.8806 55.249 84.2141C55.2631 83.9577 54.8922 80.849 54.8922 80.849Z" fill="#34323D"/>
<path d="M56.9474 65.7937C57.2512 60.8441 57.4208 55.866 58.4557 50.9983C58.5017 49.7342 59.3141 50.5425 59.2576 50.0404C58.8161 45.9703 52.9311 50.8131 52.9311 50.8131C52.6944 51.009 52.6626 52.2588 52.6167 52.5401C52.3506 54.1046 52.1234 55.6737 51.935 57.2476C50.96 65.199 51.3203 73.1077 51.7195 81.0841C52.97 82.3731 53.7895 82.7577 55.8029 81.9244C56.2056 76.7042 56.5871 71.484 56.9192 66.2566L56.9474 65.7937Z" fill="#68E1FD"/>
<path d="M53.8008 41.188C53.8573 40.9317 54.5073 40.7572 54.7121 40.6504C55.1678 40.4011 54.9029 39.9667 55.348 39.696C55.9964 39.3154 56.6718 38.9834 57.3685 38.7026H57.3862C58.5024 38.7026 60.3745 38.6385 60.4876 40.1269C60.6607 42.4415 60.4593 44.756 60.2827 47.0564C60.2121 47.9822 60.1308 48.9009 60.0496 49.8054C60.0213 50.1365 59.9789 52.8072 59.7811 52.8891C57.5663 53.8149 54.7333 53.4873 52.5645 52.622C52.6828 48.7842 53.0961 44.9614 53.8008 41.188Z" fill="#695DD8"/>
<path d="M55.788 43.5239C55.7213 44.2941 55.4216 45.025 54.9295 45.6179C54.4373 46.2108 53.7765 46.6371 53.0362 46.8391C53.0362 46.9922 52.9903 47.9323 52.9727 48.0854C54.7388 47.6581 56.0458 45.4183 56.2295 43.5239C56.2613 43.2391 55.8162 43.2391 55.788 43.5239Z" fill="#34323D"/>
<path d="M56.8656 34.0343C56.7208 34.0734 55.4809 36.9435 55.9684 38.6848C56.4559 40.4261 59.3913 38.6349 60.1295 37.3067C60.8678 35.9785 59.6456 33.2972 56.8656 34.0343Z" fill="#FCBF81"/>
<path d="M56.9088 34.4224C56.9106 34.6888 56.989 34.949 57.1344 35.1715C57.2799 35.3939 57.4862 35.5691 57.7283 35.6758C58.5514 35.982 59.2331 36.1886 59.1908 36.5732C59.1484 36.9577 57.7036 36.5197 57.7001 37.3957C57.7003 37.9866 57.7799 38.5748 57.9368 39.1441C58.0286 39.575 60.4942 38.2574 61.3066 36.007C62.1191 33.7565 60.0844 33.1583 59.9855 33.1583C59.8866 33.1583 59.7029 32.5316 58.7033 32.3144C57.7036 32.0971 57.4246 32.4853 57.4246 32.4853C57.1975 32.3474 56.9318 32.2885 56.6683 32.3174C56.4048 32.3464 56.158 32.4616 55.9657 32.6455C55.0437 33.3826 55.2804 34.7286 56.3189 35.2734L56.9088 34.4224Z" fill="#34323D"/>
<path d="M55.792 39.4468C55.792 39.4468 50.7124 42.3809 48.8826 42.3845C47.5615 42.3845 44.9476 41.9536 43.5841 41.7115C42.3265 42.7798 42.2417 44.667 43.0224 46.1092C45.2407 46.4653 51.811 47.4267 53.8704 46.3976C56.3642 45.1513 59.1089 43.4813 59.1089 43.4813C59.1089 43.4813 61.6027 41.0242 55.792 39.4468Z" fill="#695DD8"/>
<defs>
<linearGradient id="paint0_linear" x1="73.9133" y1="74.0762" x2="81.97" y2="68.8795" gradientUnits="userSpaceOnUse">
<stop stop-color="#25B000"/>
<stop offset="1" stop-color="#0E4500"/>
</linearGradient>
<linearGradient id="paint1_linear" x1="6979.74" y1="2239.51" x2="7151.97" y2="1879.76" gradientUnits="userSpaceOnUse">
<stop stop-color="#25B000"/>
<stop offset="1" stop-color="#0E4500"/>
</linearGradient>
<linearGradient id="paint2_linear" x1="2851.76" y1="2821.24" x2="3100.79" y2="2565.72" gradientUnits="userSpaceOnUse">
<stop stop-color="#25B000"/>
<stop offset="1" stop-color="#0E4500"/>
</linearGradient>
</defs>
</svg>
