<svg width="300" height="300" viewBox="0 0 97 110" fill="none" xmlns="http://www.w3.org/2000/svg">
<path d="M73.7059 108.676L3.30816 66.7354C1.06772 65.468 -0.855461 63.3832 1.33015 62.021L71.9786 20.9571C73.04 20.2938 74.6499 19.8594 75.727 20.4912L149.623 63.7464C151.863 65.0573 152.266 68.7215 150.014 70.0363L82.985 108.609C81.5775 109.432 79.9814 109.871 78.3543 109.883C76.7271 109.895 75.125 109.479 73.7059 108.676Z" fill="#90CAF9"/>
<path d="M65.1378 61.8236L76.8297 66.2459C76.8297 66.2459 77.3193 66.5657 77.0059 67.3317C76.8258 67.77 75.8583 68.4017 75.8583 68.4017L65.7645 74.3244C65.2127 74.5723 64.626 74.7322 64.0254 74.7982C63.2186 74.8456 61.8673 74.1862 61.8673 74.1862L52.4668 68.6978L65.1378 61.8236Z" fill="#34323D"/>
<path d="M65.3045 61.2787L76.4754 65.8826C76.4754 65.8826 77.2587 66.3129 77.0511 66.8973C76.8278 67.3317 76.4797 67.6881 76.0523 67.92L65.9312 73.7834C65.3794 74.0314 64.7926 74.1912 64.1921 74.2572C63.3852 74.3046 62.0339 73.6452 62.0339 73.6452L53.1309 68.5399L65.3045 61.2787Z" fill="#435950"/>
<path d="M34.9884 79.5402C34.7753 79.6316 34.5388 79.6514 34.3137 79.5967C34.0886 79.5419 33.8871 79.4155 33.7389 79.2362C33.7389 79.2362 33.5195 79.1927 33.5195 78.2254V33.3434C33.5314 32.955 33.6245 32.5735 33.7925 32.2238C33.9606 31.8741 34.1999 31.564 34.4948 31.3139C35.5865 30.5433 36.7246 29.8417 37.9025 29.2133L87.392 0.413283L87.9482 0.128995C88.1356 0.03518 88.3502 0.0122756 88.5529 0.0644479C88.7556 0.11662 88.933 0.240404 89.0528 0.413283C89.1978 0.662053 89.2811 0.942437 89.2956 1.23061C89.3152 1.70048 89.2956 6.23725 89.2956 6.23725V46.6299C89.2957 47.0177 89.2157 47.4012 89.0606 47.7561C88.9055 48.111 88.6787 48.4293 88.3948 48.691L34.9884 79.5402Z" fill="#334C42"/>
<path d="M34.4277 72.7489V34.0107C34.4277 32.7235 34.604 32.0048 35.6028 31.4678L87.795 0.989776C87.8977 0.912779 88.0197 0.866147 88.1473 0.855104C88.2748 0.84406 88.4029 0.869042 88.5172 0.92725C88.6314 0.985458 88.7274 1.07459 88.7942 1.18466C88.861 1.29474 88.8962 1.4214 88.8956 1.55046L88.7664 41.3824L34.4277 72.7489Z" fill="#17619E"/>
<path d="M41.4199 63.1897V34.7608C41.4199 33.8172 41.5492 33.2881 42.2699 32.8932L80.5925 10.5213C80.667 10.4659 80.7552 10.4321 80.8474 10.4235C80.9397 10.4149 81.0325 10.4318 81.1159 10.4724C81.1993 10.5131 81.2701 10.5758 81.3208 10.654C81.3714 10.7322 81.3999 10.8228 81.4033 10.9162L81.3092 40.1347L41.4199 63.1897Z" fill="#68E1FD"/>
<path d="M80.5925 10.5055L42.2699 32.8775C41.5492 33.2723 41.4199 33.8014 41.4199 34.7451V37.5366L81.3719 14.6356V10.932C81.3704 10.841 81.345 10.7521 81.2982 10.6744C81.2514 10.5966 81.185 10.5328 81.1057 10.4894C81.0264 10.446 80.9371 10.4246 80.8469 10.4275C80.7567 10.4303 80.6689 10.4573 80.5925 10.5055Z" fill="white"/>
<path d="M43.9373 34.5046C44.0248 33.9445 43.8566 33.4526 43.5618 33.4057C43.2669 33.3589 42.9569 33.775 42.8694 34.3351C42.7819 34.8951 42.95 35.3871 43.2449 35.4339C43.5398 35.4807 43.8498 35.0647 43.9373 34.5046Z" fill="#68E1FD"/>
<path d="M45.8709 33.4613C45.9584 32.9012 45.7902 32.4092 45.4953 32.3624C45.2005 32.3156 44.8905 32.7316 44.803 33.2917C44.7155 33.8518 44.8836 34.3438 45.1785 34.3906C45.4734 34.4374 45.7834 34.0213 45.8709 33.4613Z" fill="#68E1FD"/>
<path d="M47.7986 32.3586C47.8861 31.7986 47.718 31.3066 47.4231 31.2598C47.1282 31.213 46.8182 31.629 46.7307 32.1891C46.6432 32.7492 46.8113 33.2412 47.1062 33.288C47.4011 33.3348 47.7111 32.9187 47.7986 32.3586Z" fill="#68E1FD"/>
<path opacity="0.32" d="M92.9229 74.19L91.7753 73.0055L76.6875 80.7247C79.6526 82.3554 81.4582 83.9782 84.5212 85.4234L94.3839 79.1453L97.4038 77.0013L92.9229 74.19Z" fill="url(#paint0_linear)"/>
<path d="M87.647 30.0188V28.1551C87.647 28.1551 88.3521 26.3902 88.1092 26.2204C87.8664 26.0506 87.2083 27.318 87.2083 27.318C87.2083 27.318 86.139 24.9687 85.8492 24.949C85.5593 24.9292 84.5605 26.2717 84.5605 26.8363C84.5605 27.401 85.387 28.6131 85.6064 28.925C85.9094 29.6474 86.162 30.3902 86.3623 31.148" fill="#FDBA45"/>
<path d="M93.3369 28.854C93.3369 28.854 90.5128 34.2515 90.0036 34.1133C89.4944 33.9751 87.8298 29.5608 87.8298 29.5608C87.0223 29.9857 86.2378 30.4536 85.4797 30.9625C85.2016 31.2389 86.8231 39.1239 90.5716 38.8238C94.32 38.5237 95.405 35.0531 95.405 35.0531" fill="#EA8518"/>
<path d="M93.9081 42.6262C93.6065 42.4524 93.2893 42.2787 92.9877 42.1247C91.7147 44.4385 91.0018 46.93 90.3673 49.4807C90.2733 50.3651 90.1871 51.2456 90.1166 52.1301C89.6936 57.5 90.567 65.6535 90.708 71.0274C90.7315 71.9039 91.2094 71.7934 92.5686 71.0274C95.9645 57.7566 91.9536 58.491 93.9081 42.6262Z" fill="#FDBA45"/>
<path d="M90.6071 68.5754C90.6071 68.5754 90.803 71.8684 90.4779 72.3857C90.1528 72.9029 88.0573 74.7547 87.6617 74.9956C87.2661 75.2364 86.8156 75.7339 86.9801 76.034C87.1446 76.3341 88.5782 77.1198 89.7219 77.0172C90.8657 76.9145 91.1672 75.4575 91.8135 75.3154C92.4598 75.1733 93.0356 75.1851 93.2745 74.5257C93.5134 73.8663 92.452 70.7786 92.8828 69.14C93.3137 67.5014 90.6071 68.5754 90.6071 68.5754Z" fill="#FDBA45"/>
<path d="M90.1682 74.7231C89.5925 74.9166 88.6015 75.039 88.1902 74.581C88.0225 74.7238 87.8459 74.8557 87.6614 74.9758C87.2698 75.2009 86.8154 75.7142 86.9799 76.0143C87.1444 76.3143 88.578 77.1001 89.7217 76.9974C90.8654 76.8948 91.167 75.4378 91.8133 75.2956C92.4596 75.1535 93.0354 75.1653 93.2743 74.5059C93.3762 74.2256 93.2391 73.4912 93.0863 72.6146C92.3124 73.5617 91.3065 74.2885 90.1682 74.7231Z" fill="#475BA2"/>
<path d="M98.1503 44.8767C96.9752 44.1937 95.5808 43.5738 95.5808 43.5738C94.9776 45.1216 95.15 47.1274 94.9541 48.7581C94.727 50.6296 94.5115 52.5012 94.3627 54.3807C93.9397 59.7506 94.8131 67.9041 94.9541 73.2779C94.9776 74.1545 95.4555 74.0439 96.8146 73.2779C100.222 60.0072 96.2115 60.7416 98.1503 44.8767Z" fill="#FDBA45"/>
<path d="M93.3757 70.4785C94.8837 70.6483 96.8108 71.2248 98.2718 70.8142C98.4755 66.9802 99.2941 47.4907 99.2275 46.3101C99.0787 43.5896 97.1751 40.344 97.1751 40.344L91.8795 39.8307C91.8795 39.8307 90.0111 43.408 89.7839 45.6507C89.6938 46.5549 88.8243 65.5074 88.8361 68.836C90.2077 69.7203 91.7593 70.2817 93.3757 70.4785Z" fill="#68E1FD"/>
<path d="M94.861 70.822C94.861 70.822 95.0569 74.1151 94.7318 74.6323C94.4067 75.1496 92.3112 77.0014 91.9156 77.2422C91.52 77.4831 91.0695 77.9806 91.234 78.2807C91.3985 78.5808 92.8321 79.3665 93.9758 79.2638C95.1196 79.1612 95.4212 77.7042 96.0674 77.5621C96.7137 77.4199 97.2895 77.4318 97.5284 76.7724C97.7674 76.113 96.7059 73.0253 97.1367 71.3867C97.5676 69.7481 94.861 70.822 94.861 70.822Z" fill="#FDBA45"/>
<path d="M94.4221 76.9698C93.8464 77.1633 92.8554 77.2857 92.4441 76.8276C92.2764 76.9705 92.0998 77.1024 91.9154 77.2225C91.5237 77.4476 91.0693 77.9609 91.2338 78.2609C91.3983 78.561 92.8319 79.3468 93.9756 79.2441C95.1193 79.1414 95.4209 77.6845 96.0672 77.5423C96.7135 77.4002 97.2893 77.412 97.5282 76.7526C97.6301 76.4723 97.493 75.7379 97.3402 74.8613C96.5663 75.8083 95.5604 76.5352 94.4221 76.9698Z" fill="#475BA2"/>
<path d="M101.784 37.0391V36.9562C101.477 35.3096 100.995 33.7011 100.346 32.1589C100.045 31.3692 99.2965 30.7177 98.6972 30.1491C97.8965 29.3823 97.0417 28.675 96.1395 28.0327C96.1395 28.0327 94.3299 28.471 93.339 28.854C92.6496 29.1225 92.3676 30.0385 92.113 30.6466C91.686 31.7048 90.8948 32.7906 90.9144 33.9988C90.9498 34.8718 91.0453 35.7412 91.2003 36.6009C91.4079 37.9157 91.6665 39.2226 91.9563 40.5217C91.9563 40.5217 95.6538 40.8178 97.2637 40.5848L97.6044 37.1655C97.6044 37.1655 98.6894 42.5433 99.1202 45.4335L99.226 46.3101L101.897 46.4838C102.094 44.9432 102.153 43.3878 102.074 41.8365C102.084 40.2326 101.987 38.6299 101.784 37.0391Z" fill="#FF9A22"/>
<path d="M92.5571 23.6026C92.5571 23.6026 92.1576 27.8156 93.8379 28.4236C95.5183 29.0317 96.6072 26.9469 96.6072 26.9469C96.6072 26.9469 97.1869 24.1238 96.6737 23.4762C96.1606 22.8287 93.5598 22.4773 92.5571 23.6026Z" fill="#FDBA45"/>
<path d="M93.7769 23.9421C93.4114 24.2453 92.9788 24.4552 92.5157 24.5541C91.9321 24.6094 91.6109 23.7644 91.5286 23.3143C91.4464 22.8642 91.8811 21.3401 94.5524 21.2532C97.2237 21.1663 98.7983 23.4485 98.7983 24.8068C98.7983 26.1651 98.6377 29.5884 98.6377 29.5884C97.4681 29.5375 96.3034 29.4056 95.1517 29.1935C95.1517 29.1935 96.0448 26.0979 95.8568 25.1385C95.6687 24.179 93.7769 23.9421 93.7769 23.9421Z" fill="#475BA2"/>
<path opacity="0.57" d="M78.6267 35.3333V21.5967L69.3477 26.9863V40.6914L78.6267 35.3333Z" fill="white"/>
<path opacity="0.57" d="M53.7927 49.0424V35.3058L44.5137 40.6915V54.3965L53.7927 49.0424Z" fill="white"/>
<path opacity="0.32" d="M65.3897 84.9772L64.2421 83.7927L49.1504 91.4961C52.1155 93.1268 53.9211 94.7497 56.9841 96.1948L66.8389 89.9365L69.8588 87.7925L65.3897 84.9772Z" fill="url(#paint1_linear)"/>
<path d="M43.2111 46.7681C43.5205 46.9103 43.8221 47.0564 44.1276 47.2025C43.8887 47.0524 43.6497 46.8945 43.4226 46.7247C43.1954 46.5549 42.8585 46.1759 42.9095 45.8639C42.9839 45.3941 43.7908 45.8126 44.394 46.1916C43.9748 45.8244 43.6302 45.402 44.0023 45.2401C44.3744 45.0782 44.7504 45.5401 44.9736 45.6981C45.3653 45.9824 45.757 46.2864 46.1213 46.6102C45.8598 46.2611 45.6267 45.8914 45.4241 45.5046C45.2087 45.1414 45.7453 44.8413 46.0077 45.1098C46.7501 45.9237 47.5499 46.6825 48.4009 47.3801C48.4406 47.41 48.4739 47.4476 48.4988 47.4907H49.0198C49.1764 47.4907 49.3214 47.4907 49.4663 47.4907H49.5916C49.6442 47.4795 49.6988 47.482 49.7501 47.4979C49.8015 47.5137 49.8481 47.5425 49.8854 47.5815C49.9537 47.6047 50.0193 47.6351 50.0812 47.6723C50.1012 47.686 50.1196 47.7019 50.1361 47.7197C50.3084 47.7197 50.4808 47.7513 50.6492 47.775C50.7057 47.7872 50.7588 47.8119 50.8047 47.8472C50.8506 47.8825 50.8882 47.9277 50.9147 47.9794C50.9413 48.0311 50.9562 48.088 50.9584 48.1462C50.9606 48.2044 50.9499 48.2624 50.9273 48.3159L50.9978 48.2764C51.3895 48.0356 51.6911 48.6713 51.3072 48.92C50.4918 49.4245 49.5535 49.6911 48.5967 49.69C48.5918 49.7333 48.5701 49.773 48.5364 49.8003C48.5027 49.8277 48.4596 49.8405 48.4166 49.8361C47.4012 49.8092 46.3949 49.6364 45.428 49.3228C45.3074 49.2889 45.1906 49.2426 45.0794 49.1846C44.5021 48.9452 43.9716 48.6043 43.5127 48.1777C43.4809 48.1471 43.4602 48.1065 43.4541 48.0626C43.448 48.0186 43.4567 47.9739 43.4789 47.9356C43.501 47.8973 43.5354 47.8676 43.5763 47.8514C43.6173 47.8351 43.6625 47.8332 43.7046 47.846L43.873 47.8974C43.7633 47.8342 43.6537 47.775 43.5479 47.7079C43.2816 47.5381 42.9643 47.3328 42.9212 46.9932C42.9119 46.9552 42.9137 46.9153 42.9265 46.8784C42.9393 46.8415 42.9625 46.8091 42.9932 46.7852C43.0239 46.7613 43.0609 46.747 43.0996 46.744C43.1383 46.7409 43.177 46.7493 43.2111 46.7681Z" fill="#FCBF81"/>
<path d="M56.4567 42.3932C56.5977 42.3498 55.3482 40.6164 55.2463 40.4545C54.6448 39.4916 54.0957 38.4965 53.6013 37.4735C53.5848 37.4416 53.5605 37.4144 53.5308 37.3945C53.4391 37.1989 53.3358 37.009 53.2213 36.8259C53.1944 36.7769 53.1521 36.7383 53.1011 36.7161C53.05 36.694 52.9931 36.6896 52.9393 36.7036C52.8855 36.7176 52.8378 36.7492 52.8038 36.7935C52.7698 36.8378 52.7513 36.8923 52.7513 36.9483C52.717 37.5292 52.8533 38.1073 53.143 38.6106C53.0216 38.7488 52.8845 38.8949 52.7513 39.0489C52.769 39.0613 52.7824 39.0791 52.7894 39.0997C52.7965 39.1203 52.7968 39.1426 52.7905 39.1634C52.7624 39.2478 52.72 39.3266 52.6651 39.3964C52.6347 39.447 52.5964 39.4923 52.5516 39.5306C52.5326 39.5464 52.5094 39.556 52.485 39.5582C52.4596 39.6751 52.4608 39.7962 52.4886 39.9125C52.5165 40.0288 52.5701 40.1372 52.6456 40.2295C52.5409 40.4574 52.5242 40.7163 52.5986 40.956V40.9876H52.6377C52.9659 41.1788 53.2788 41.3953 53.5739 41.6351C53.586 41.6484 53.5949 41.6643 53.5998 41.6816C53.6047 41.699 53.6055 41.7173 53.602 41.735C53.5986 41.7527 53.5911 41.7693 53.58 41.7835C53.569 41.7977 53.5548 41.8091 53.5386 41.8168C53.7777 41.933 54.0237 42.0345 54.275 42.1208C54.3022 42.1327 54.3315 42.1389 54.3611 42.1389C54.3908 42.1389 54.4201 42.1327 54.4473 42.1208C54.4786 42.1524 54.51 42.184 54.5452 42.2155C54.5763 42.2467 54.6149 42.2693 54.6572 42.2811C54.6995 42.2928 54.744 42.2934 54.7866 42.2826C54.8292 42.2719 54.8682 42.2503 54.9001 42.2199C54.9319 42.1894 54.9554 42.1512 54.9682 42.1089C54.9729 42.0789 54.9729 42.0482 54.9682 42.0181L55.0583 42.1208C55.0473 42.1623 55.0454 42.2058 55.053 42.2481C55.0605 42.2905 55.0772 42.3306 55.1019 42.3657C55.1266 42.4008 55.1587 42.4299 55.1958 42.4511C55.233 42.4722 55.2743 42.4848 55.3168 42.488C55.3902 42.4975 55.4644 42.4788 55.5246 42.4357C55.5849 42.3925 55.6268 42.328 55.6419 42.255C55.6483 42.2171 55.6483 42.1784 55.6419 42.1405L55.8339 42.4367C55.8414 42.4476 55.8519 42.4562 55.864 42.4615C55.8762 42.4667 55.8896 42.4684 55.9027 42.4664C55.9158 42.4643 55.928 42.4586 55.938 42.4498C55.948 42.4411 55.9553 42.4297 55.9592 42.4169C55.9615 42.4079 55.9615 42.3983 55.9592 42.3893C56.061 42.5587 56.1501 42.7355 56.2256 42.9184C57.5181 44.8413 56.4919 42.4603 56.4567 42.3932ZM55.3443 42.3379C55.3043 42.3371 55.2661 42.3212 55.2371 42.2935C55.2082 42.2657 55.1905 42.2281 55.1876 42.1879C55.2245 42.1971 55.2629 42.1979 55.3001 42.1904C55.3373 42.1829 55.3725 42.1672 55.403 42.1445C55.4093 42.152 55.4171 42.158 55.4259 42.1621C55.4347 42.1662 55.4442 42.1683 55.4539 42.1683C55.4636 42.1683 55.4732 42.1662 55.482 42.1621C55.4908 42.158 55.4986 42.152 55.5049 42.1445C55.5095 42.1679 55.5089 42.192 55.5032 42.2152C55.4975 42.2384 55.4867 42.2599 55.4718 42.2784C55.4568 42.2969 55.4379 42.3118 55.4166 42.3221C55.3952 42.3324 55.3719 42.3378 55.3482 42.3379H55.3443Z" fill="#FCBF81"/>
<path d="M56.1204 42.3458C55.8483 42.128 55.6196 41.86 55.4467 41.5561C55.4133 41.4934 55.3676 41.4382 55.3125 41.3937C55.2573 41.3492 55.1938 41.3164 55.1258 41.2972C55.0578 41.278 54.9866 41.2729 54.9166 41.2821C54.8466 41.2913 54.7791 41.3147 54.7182 41.3508C54.6995 41.2108 54.6904 41.0696 54.6908 40.9283C54.6908 40.2137 53.5745 40.2018 53.5862 40.9283C53.5636 41.4866 53.7127 42.0382 54.0132 42.5077C54.3472 42.9352 54.7545 43.2989 55.2156 43.5817C55.297 43.6278 55.3884 43.653 55.4818 43.655C55.5751 43.657 55.6675 43.6358 55.7508 43.5932C55.834 43.5507 55.9056 43.4881 55.9591 43.411C56.0127 43.3339 56.0466 43.2447 56.0578 43.1513L56.1087 43.1118C56.2067 43.0095 56.2624 42.8734 56.2646 42.7312C56.2668 42.5889 56.2152 42.4512 56.1204 42.3458Z" fill="#FCBF81"/>
<path d="M54.4195 42.6538C54.0664 42.4297 53.7935 42.0978 53.6406 41.7065C53.4877 41.3151 53.4628 40.8848 53.5695 40.4782C53.5737 40.4696 53.5758 40.4601 53.5758 40.4506C53.5758 40.441 53.5737 40.4315 53.5695 40.4229L53.1974 39.7596C53.1426 39.6609 53.0799 39.5622 53.0329 39.4595C52.9546 39.2818 52.8566 38.5948 53.3502 38.883C53.5289 39.0689 53.6794 39.2805 53.7967 39.5108C53.9377 39.7161 54.0709 39.9294 54.1884 40.1386C54.2354 40.2136 54.3568 40.1386 54.3098 40.0715C54.0669 39.6793 53.8058 39.2963 53.5264 38.9225C53.4011 38.7488 53.2679 38.5671 53.0329 38.6777C52.9426 38.715 52.8676 38.7824 52.8206 38.8686C52.7736 38.9548 52.7572 39.0546 52.7744 39.1515C52.6882 39.3173 52.508 39.4437 52.4767 39.6372C52.4734 39.8342 52.5309 40.0273 52.6412 40.19L52.7039 40.2966C52.6931 40.3045 52.6849 40.3155 52.6804 40.3282C52.602 40.5414 52.4571 40.7783 52.6177 40.9836C52.6888 41.0646 52.7721 41.1339 52.8645 41.1889L53.3071 41.489C53.3142 41.494 53.3222 41.4975 53.3307 41.4992C53.3392 41.501 53.3479 41.5009 53.3564 41.499C53.3649 41.4972 53.3729 41.4936 53.3799 41.4885C53.3869 41.4833 53.3928 41.4768 53.3972 41.4693C53.5365 42.0105 53.87 42.4804 54.3333 42.788C54.4234 42.8196 54.4939 42.7051 54.4195 42.6538ZM52.7117 39.9373C52.6704 39.8655 52.6509 39.783 52.6558 39.7001C52.6607 39.6173 52.6897 39.5377 52.7391 39.4713C52.7744 39.424 52.8096 39.3805 52.841 39.3371C52.9956 39.7381 53.1981 40.1187 53.4442 40.4703V40.5177C53.4334 40.5097 53.4203 40.5053 53.4069 40.5053C53.3936 40.5053 53.3805 40.5097 53.3697 40.5177C53.0446 40.6796 52.79 40.1505 52.7117 39.9373ZM52.8684 40.9915C52.8142 40.963 52.7704 40.9177 52.7436 40.8622C52.7169 40.8068 52.7084 40.7441 52.7195 40.6835C52.7434 40.5884 52.7761 40.4959 52.8175 40.4071C52.9624 40.6006 53.1661 40.7585 53.4011 40.6401C53.3573 40.8763 53.3573 41.1186 53.4011 41.3548C53.217 41.2403 53.0329 41.1178 52.8605 40.9915H52.8684Z" fill="#34323D"/>
<path d="M62.2407 45.0189C62.2407 45.0189 59.0171 45.1887 58.1946 44.399C57.372 43.6093 56.1461 41.1692 56.1461 41.1692C56.1461 41.1692 53.9252 42.6064 53.7959 43.4356C53.6667 44.2647 56.1186 48.2685 57.1958 48.537" fill="#4D47C4"/>
<path d="M67.1291 85.0681C67.1291 85.0681 64.3873 83.848 63.7489 83.7967C63.1104 83.7454 61.998 83.9744 62.9655 85.1865C62.9655 85.1865 65.8326 87.0779 66.2087 87.1371C66.5847 87.1963 67.5051 86.9081 67.5286 87.0068C67.5521 87.1055 67.6383 87.836 67.6383 87.836C67.6383 87.836 70.0354 88.756 70.1373 87.141C70.1373 86.9318 69.7926 83.9309 69.7926 83.9309" fill="#34323D"/>
<path d="M70.2555 78.0042C69.7816 74.9008 68.916 71.892 68.5517 68.7491C68.3245 66.7748 68.16 64.8006 67.9211 62.8264C67.6822 60.8522 66.9497 58.9411 66.4797 56.9866C66.4673 56.9412 66.4702 56.893 66.488 56.8494C66.5057 56.8058 66.5372 56.7694 66.5776 56.7458C66.5541 56.6787 66.5345 56.6076 66.5149 56.5405C66.2721 56.3075 66.0253 56.0864 65.7864 55.8771L62.4375 58.1514C62.4375 58.1514 62.4571 60.2204 62.5628 63.2133C62.9545 64.9586 63.2483 66.5182 63.687 68.1726C63.6392 68.225 63.605 68.2884 63.5872 68.3572C63.5695 68.4261 63.5687 68.4983 63.5851 68.5674C64.6747 73.7822 65.4685 79.0554 65.9627 84.3612C65.9694 84.4489 66.0011 84.5328 66.0539 84.6028C66.1067 84.6728 66.1784 84.726 66.2604 84.7561L66.3544 85.5734C69.2685 86.7066 69.9069 84.7324 69.9069 84.7324C69.9069 84.7324 70.0401 83.0504 70.2046 80.7129C70.2595 79.7968 70.2751 78.9005 70.2555 78.0042Z" fill="#68E1FD"/>
<path d="M61.1727 89.5969L59.5512 90.201C59.5032 90.3497 59.4177 90.4833 59.303 90.5885C59.1883 90.6937 59.0484 90.767 58.897 90.8012C58.8395 90.8703 58.7585 90.9153 58.6699 90.9276C58.0132 90.9741 57.3547 90.866 56.7467 90.6117C55.9633 90.3669 52.9434 89.1981 53.7855 91.4014C54.3378 91.7962 54.9606 92.1318 55.5207 92.4793C55.838 92.6728 56.1592 92.8742 56.4843 93.0479C56.6567 93.1665 56.8472 93.2559 57.0483 93.3124C57.4831 93.3796 58.5406 93.0479 58.568 93.1624C58.5954 93.2769 58.6934 94.1179 58.6934 94.1179C58.6934 94.1179 61.4352 95.1761 61.5683 93.3282C61.584 93.0439 61.1727 89.5969 61.1727 89.5969Z" fill="#34323D"/>
<path d="M63.4477 72.9029C63.7845 67.4146 63.9725 61.8946 65.1202 56.4971C65.1711 55.0954 66.072 55.9917 66.0093 55.435C65.5197 50.9219 58.9942 56.2918 58.9942 56.2918C58.7318 56.509 58.6965 57.8949 58.6456 58.2068C58.3505 59.9415 58.0986 61.6814 57.8897 63.4266C56.8086 72.2435 57.2081 81.013 57.6507 89.8576C59.0373 91.2869 59.946 91.7133 62.1786 90.7894C62.6251 85.001 63.0482 79.2125 63.4163 73.4162L63.4477 72.9029Z" fill="#68E1FD"/>
<path d="M59.9607 45.6191C60.0234 45.3348 60.7441 45.1413 60.9713 45.0228C61.4766 44.7465 61.1828 44.2647 61.6763 43.9647C62.3954 43.5426 63.1442 43.1744 63.9168 42.863H63.9364C65.1741 42.863 67.25 42.792 67.3754 44.4424C67.5673 47.0089 67.344 49.5754 67.1482 52.1261C67.0698 53.1527 66.9798 54.1714 66.8897 55.1743C66.8583 55.5415 66.8113 58.5029 66.592 58.5937C64.1361 59.6203 60.9948 59.257 58.5898 58.2976C58.7211 54.042 59.1794 49.8032 59.9607 45.6191Z" fill="#695DD8"/>
<path d="M62.1647 48.2092C62.0908 49.0632 61.7585 49.8737 61.2128 50.5311C60.6671 51.1886 59.9343 51.6613 59.1135 51.8853C59.1135 52.055 59.0626 53.0974 59.043 53.2672C61.0014 52.7934 62.4506 50.3098 62.6543 48.2092C62.6895 47.8934 62.196 47.8934 62.1647 48.2092Z" fill="#34323D"/>
<path d="M63.3603 37.6867C63.1997 37.7301 61.8249 40.9126 62.3654 42.8434C62.906 44.7742 66.1609 42.7881 66.9795 41.3153C67.7981 39.8425 66.4429 36.8693 63.3603 37.6867Z" fill="#FCBF81"/>
<path d="M63.4081 38.117C63.41 38.4125 63.4969 38.701 63.6582 38.9477C63.8195 39.1943 64.0482 39.3886 64.3168 39.5069C65.2294 39.8465 65.9854 40.0755 65.9384 40.5019C65.8914 40.9283 64.2894 40.4427 64.2854 41.414C64.2856 42.0692 64.3739 42.7214 64.5479 43.3527C64.6497 43.8305 67.3837 42.3695 68.2846 39.8741C69.1854 37.3787 66.9293 36.7153 66.8197 36.7153C66.71 36.7153 66.5063 36.0204 65.3978 35.7796C64.2894 35.5387 63.9799 35.9691 63.9799 35.9691C63.7281 35.8163 63.4336 35.7509 63.1414 35.783C62.8492 35.8151 62.5755 35.9429 62.3623 36.1468C61.3399 36.9641 61.6024 38.4566 62.7539 39.0607L63.4081 38.117Z" fill="#34323D"/>
<path d="M62.1721 43.6883C62.1721 43.6883 56.5397 46.9418 54.5108 46.9458C53.0458 46.9458 50.1474 46.468 48.6355 46.1995C47.2411 47.3841 47.1471 49.4767 48.0127 51.0759C50.4725 51.4707 57.7578 52.5368 60.0414 51.3957C62.8067 50.0137 65.8501 48.1619 65.8501 48.1619C65.8501 48.1619 68.6154 45.4375 62.1721 43.6883Z" fill="#695DD8"/>
<defs>
<linearGradient id="paint0_linear" x1="82.2612" y1="82.0869" x2="91.1948" y2="76.3246" gradientUnits="userSpaceOnUse">
<stop stop-color="#25B000"/>
<stop offset="1" stop-color="#0E4500"/>
</linearGradient>
<linearGradient id="paint1_linear" x1="3162.46" y1="3128.26" x2="3438.59" y2="2844.93" gradientUnits="userSpaceOnUse">
<stop stop-color="#25B000"/>
<stop offset="1" stop-color="#0E4500"/>
</linearGradient>
</defs>
</svg>
