<svg width="300" height="300" viewBox="0 0 114 96" fill="none" xmlns="http://www.w3.org/2000/svg">
<path d="M1.25571 54.5957L45.1308 29.0798C45.4461 28.8977 45.8038 28.8019 46.1679 28.8019C46.532 28.8019 46.8896 28.8977 47.2049 29.0798L112.816 66.6376C113.133 66.8193 113.396 67.0813 113.579 67.3971C113.761 67.7129 113.858 68.0714 113.858 68.4363C113.858 68.8012 113.761 69.1597 113.579 69.4755C113.396 69.7913 113.133 70.0533 112.816 70.235L70.8671 94.4594C69.8375 95.0539 68.6695 95.3668 67.4806 95.3668C66.2916 95.3668 65.1237 95.0539 64.094 94.4594L1.26331 58.1969C0.945561 58.0161 0.681239 57.7546 0.497119 57.4388C0.312998 57.1229 0.21562 56.7641 0.214848 56.3985C0.214077 56.0329 0.30994 55.6737 0.492727 55.3571C0.675513 55.0405 0.938729 54.7778 1.25571 54.5957Z" fill="#FF9292"/>
<path style="mix-blend-mode:multiply" d="M65.5547 95.0102L80.6812 86.8391L73.0838 73.122L51.7578 87.2C54.0674 88.7841 63.2945 93.3805 65.5547 95.0102Z" fill="url(#paint0_linear)"/>
<path style="mix-blend-mode:multiply" d="M49.0608 85.6159L72.3355 72.5939L35.0436 48.0884L9.33008 63.025C11.6283 64.5976 46.8006 83.9901 49.0608 85.6159Z" fill="url(#paint1_linear)"/>
<path style="mix-blend-mode:multiply" d="M77.7476 83.9674L102.937 68.2711L93.5084 62.2691L67.7949 77.2057C70.0931 78.7783 75.4911 82.3263 77.7476 83.9674Z" fill="url(#paint2_linear)"/>
<path d="M67.7949 75.2986C68.995 75.0699 70.1199 74.5479 71.0694 73.7791C72.8206 72.4268 67.7949 72.6205 67.7949 72.6205V75.2986Z" fill="#F2E2D1"/>
<path d="M30.9141 50.3753V54.8843C30.9141 54.8843 31.1458 55.5339 32.1828 55.4541C33.2199 55.3744 33.3756 54.7552 33.3756 54.7552V49.3648L30.9141 50.3753Z" fill="#1A110A"/>
<path d="M63.8516 70.5503V75.0594C63.8516 75.0594 64.0833 75.7089 65.1203 75.6292C66.1574 75.5494 66.3131 74.9302 66.3131 74.9302V69.5474L63.8516 70.5503Z" fill="#1A110A"/>
<path d="M71.1412 51.3212C73.3862 49.8359 75.6996 48.4569 77.9333 46.964L41.5682 26.1699C40.8509 25.7593 40.0378 25.5456 39.2113 25.5502C38.3848 25.5549 37.5742 25.7778 36.8616 26.1965L26.8102 32.0921C25.1578 33.0646 25.4085 34.5422 25.4085 34.5422C25.4085 34.5422 24.964 48.3506 25.4085 49.2433C25.8529 50.136 27.2357 50.7855 27.2357 50.7855L67.7945 75.2986C71.1336 72.7763 68.4251 53.118 71.1412 51.3212Z" fill="#E8BC95"/>
<path d="M73.0151 54.4817C73.0151 54.4817 39.2065 35.0817 39.2559 34.8765C39.3053 34.6714 39.2559 27.5982 39.2559 27.5982L79.1728 50.569L73.0151 54.4817Z" fill="#F2E2D1"/>
<path d="M29.1482 40.567L39.3629 34.869L77.9996 57.0382L66.3984 63.3821C66.1281 63.5318 65.8242 63.6103 65.5152 63.6103C65.2062 63.6103 64.9023 63.5318 64.632 63.3821L29.1444 43.473C28.8849 43.3292 28.6687 43.1185 28.5182 42.8627C28.3678 42.607 28.2887 42.3156 28.2891 42.0189C28.2895 41.7222 28.3694 41.431 28.5204 41.1757C28.6715 40.9204 28.8883 40.7102 29.1482 40.567Z" fill="#F7ECDF"/>
<path d="M82.5494 50.0638L82.0859 50.0258C81.3853 50.5552 80.6192 50.9919 79.8067 51.325C76.3752 53.8234 72.7279 56.0112 68.9082 57.8626V74.1021C69.3895 74.1975 69.8817 74.2257 70.3707 74.1856L80.7716 68.0203C81.443 67.6225 81.9992 67.0568 82.3856 66.3787C82.7719 65.7006 82.975 64.9336 82.9748 64.1532V50.4779C82.8229 50.3449 82.6861 50.2082 82.5494 50.0638Z" fill="#F2E2D1"/>
<path d="M25.7481 32.5631C25.7481 32.5631 24.768 32.8898 25.7481 34.1054C26.7282 35.321 30.3065 32.7531 30.3065 32.7531L39.2487 27.6172L79.177 50.569L68.7571 56.495C68.7571 56.495 67.9518 57.1256 68.5596 57.836C69.1674 58.5463 70.0221 58.2158 71.7201 57.3801C73.4181 56.5444 82.6756 51.3022 82.6756 51.3022C82.6756 51.3022 83.5949 50.6792 82.1931 49.4978C80.7914 48.3164 41.1671 25.9989 41.1671 25.9989C40.723 25.612 40.1742 25.3654 39.59 25.2903C39.0058 25.2153 38.4124 25.3151 37.885 25.5773C36.0616 26.5232 25.7481 32.5631 25.7481 32.5631Z" fill="#F7ECDF"/>
<path d="M34.9191 55.059C34.9191 55.059 34.8545 57.0457 34.4595 57.3724C34.0644 57.6991 32.1802 58.7362 31.2989 58.7856C30.4176 58.8349 30.4898 59.7504 31.0178 60.305C31.5458 60.8597 35.5307 60.6127 35.8156 60.3278C36.1005 60.0429 37.1983 58.2499 37.035 58.2195C36.8716 58.1892 36.7957 60.6127 36.9514 60.6963C37.1698 60.7509 37.3955 60.7701 37.62 60.7533L38.1974 54.398" fill="#333333"/>
<path d="M39.2549 55.5947C39.2549 55.5947 39.5208 57.5624 39.1865 57.9537C38.8522 58.3449 37.1618 59.6745 36.3033 59.853C35.4448 60.0316 35.6651 60.9395 36.2767 61.3725C36.8883 61.8056 40.7782 60.9281 41.0099 60.6128C41.2416 60.2975 42.0279 58.3335 41.8608 58.3335C41.6937 58.3335 42.0203 60.7343 42.1875 60.7875C42.4118 60.8056 42.6375 60.7876 42.8561 60.7343L42.3698 54.3715" fill="#333333"/>
<path d="M42.2985 29.847C42.2985 29.847 37.1133 32.9201 31.514 29.809L31.248 33.8964C31.248 33.8964 37.402 36.3466 41.7477 35.3437" fill="#68E1FD"/>
<path opacity="0.62" d="M42.2985 29.847C42.2985 29.847 37.1133 32.9201 31.514 29.809L31.248 33.8964C31.248 33.8964 37.402 36.3466 41.7477 35.3437" fill="#333333"/>
<path d="M31.45 30.6637C31.45 30.6637 30.7777 30.3522 30.7169 30.3104C30.4358 30.1243 30.1661 29.9116 29.8963 29.714C29.6598 29.5042 29.3795 29.3498 29.0758 29.262C29.0052 29.2518 28.9332 29.2594 28.8663 29.2841C28.7993 29.3087 28.7396 29.3497 28.6925 29.4032C28.6453 29.4568 28.6123 29.5212 28.5963 29.5907C28.5804 29.6602 28.582 29.7327 28.601 29.8014C28.658 30.1129 29.1784 30.451 29.3835 30.6751C29.3835 30.6751 29.5431 30.2952 29.5621 30.2952C29.5165 30.4279 29.4566 30.5553 29.3835 30.6751C29.3775 30.7203 29.3633 30.7641 29.3417 30.8043C29.0948 31.2639 28.7491 31.6704 28.487 32.1224C28.4541 32.1947 28.4161 32.2645 28.3731 32.3313L28.3047 32.4795C28.6215 32.5356 28.941 32.5749 29.262 32.5972C29.9374 32.7474 30.6297 32.8075 31.3209 32.7758C31.3854 32.092 31.3968 31.4007 31.45 30.6637Z" fill="#FFE8E6"/>
<path d="M30.1071 31.9439C29.4613 31.6742 29.4879 31.0133 29.5905 30.4245C29.6095 30.3143 29.4385 30.2649 29.4195 30.3789C29.298 31.0778 29.3169 31.8034 30.0615 32.1149C30.1641 32.1567 30.2134 31.9857 30.1071 31.9439Z" fill="#42210B"/>
<path d="M38.5255 45.9611C38.9358 45.9953 42.7041 46.4398 45.557 45.4027C46.2328 44.359 46.7118 43.2002 46.9701 41.9839C47.2403 40.8967 47.4182 39.7886 47.5019 38.6714L44.6187 38.8044C41.7782 38.8964 38.9513 39.2371 36.1703 39.8224C34.5521 40.2023 32.7135 40.5632 31.5473 41.8471C30.2216 43.3096 30.6128 45.3382 30.9927 47.0932C31.6357 49.9263 32.5124 52.7013 33.6138 55.3895L40.5882 54.3487C40.5882 54.3487 37.7734 45.9004 38.5255 45.9611Z" fill="#E54B5D"/>
<path d="M41.4495 47.1046C43.8807 47.3022 48.1542 48.21 49.233 45.2053C49.3622 44.8482 49.7839 39.8377 49.233 39.8643L47.5426 39.944C44.7036 40.0351 41.8779 40.3745 39.0981 40.9583C37.4798 41.3382 35.6413 41.699 34.475 42.983C33.1493 44.4455 33.5406 46.474 33.9204 48.229C34.5634 51.0622 35.4401 53.8371 36.5415 56.5254L43.516 55.4846C43.516 55.4846 40.7011 47.0438 41.4495 47.1046Z" fill="#E54B5D"/>
<path d="M29.2228 36.6619L31.3501 34.0294C31.401 33.9667 31.4306 33.8896 31.4347 33.809C31.4388 33.7284 31.4172 33.6486 31.3728 33.5811L28.0832 28.4642C28.0513 28.4138 28.0079 28.3715 27.9566 28.3409C27.9053 28.3104 27.8475 28.2923 27.788 28.2882C27.7284 28.2842 27.6687 28.2942 27.6137 28.3175C27.5587 28.3408 27.51 28.3768 27.4716 28.4225L24.9872 31.3475C24.9323 31.4151 24.9023 31.4996 24.9023 31.5868C24.9023 31.6739 24.9323 31.7584 24.9872 31.8261L28.653 36.6543C28.6881 36.6952 28.7315 36.7281 28.7803 36.751C28.8291 36.7738 28.8823 36.786 28.9362 36.7867C28.99 36.7874 29.0435 36.7766 29.0929 36.7551C29.1423 36.7336 29.1866 36.7018 29.2228 36.6619Z" fill="#333333"/>
<path d="M32.8801 37.4521H32.8535C32.8751 37.4066 32.8875 37.3571 32.8898 37.3067C32.8922 37.2563 32.8845 37.206 32.8672 37.1586C32.8498 37.1112 32.8232 37.0677 32.7889 37.0307C32.7546 36.9937 32.7133 36.9639 32.6673 36.9431C32.6883 36.8868 32.6967 36.8267 32.6918 36.7668C32.687 36.707 32.6691 36.649 32.6394 36.5968C32.6097 36.5446 32.5689 36.4996 32.5199 36.4649C32.4709 36.4303 32.4149 36.4068 32.3558 36.3961C31.8807 36.306 31.4133 36.1789 30.9579 36.0162C30.6653 35.8942 30.3822 35.7508 30.1108 35.587C29.8183 35.435 29.5334 35.2755 29.2561 35.0969C28.8804 34.8448 28.5338 34.5518 28.2228 34.2232C28.0785 34.0751 27.9417 33.9193 27.7936 33.775C27.637 33.6458 27.4955 33.4992 27.3719 33.3381C27.1592 33.0038 26.8781 32.9165 26.6768 33.2925C26.4754 33.6686 26.9161 34.0067 27.1402 34.3828C26.7603 34.3144 26.4146 34.2688 26.05 34.2346L26.0196 34.2574C25.6752 34.5588 25.6194 34.8221 25.8524 35.0475C25.8733 35.0842 25.8816 35.1267 25.8761 35.1685C25.8706 35.2103 25.8516 35.2492 25.822 35.2793C25.6511 35.4882 25.4422 36.001 25.8676 36.0732C25.9161 36.0874 25.9572 36.1199 25.982 36.1639C26.0068 36.2079 26.0135 36.2599 26.0006 36.3087C25.9728 36.5044 25.9963 36.7039 26.0689 36.8877C26.1415 37.0715 26.2606 37.2333 26.4146 37.3572C26.9693 37.6079 27.5543 37.5661 28.2 37.6648C28.8461 37.7888 29.4812 37.9641 30.0994 38.1891C30.7426 38.3537 31.3758 38.5386 31.9988 38.7437C32.0748 38.7666 32.1558 38.7677 32.2325 38.747C32.3092 38.7263 32.3785 38.6845 32.4327 38.6264C32.4868 38.5683 32.5236 38.4961 32.5389 38.4182C32.5542 38.3402 32.5474 38.2595 32.5192 38.1853L32.6521 38.2195C33.1156 38.3258 33.3055 37.5927 32.8801 37.4521Z" fill="#FFE8E6"/>
<path d="M25.8037 35.2829L25.7695 35.3323L27.0991 35.4957C27.1223 35.4987 27.1457 35.4924 27.1642 35.4781C27.1827 35.4639 27.1948 35.4428 27.1978 35.4197C27.2009 35.3965 27.1946 35.3731 27.1803 35.3546C27.1661 35.336 27.145 35.3239 27.1219 35.3209L25.8607 35.1652C25.8523 35.2087 25.8326 35.2493 25.8037 35.2829Z" fill="#42210B"/>
<path d="M25.9906 36.3048C26.3704 36.3428 26.7807 36.3846 27.1758 36.415C27.2897 36.415 27.3125 36.2478 27.1986 36.2402C26.7769 36.206 26.3553 36.1643 25.9336 36.1225C25.9557 36.1469 25.9723 36.1759 25.9821 36.2074C25.9919 36.2389 25.9948 36.2721 25.9906 36.3048Z" fill="#42210B"/>
<path d="M26.206 37.1558L27.319 37.2051C27.433 37.2051 27.4558 37.0342 27.3418 37.0304L26.0996 36.9734C26.1292 37.0374 26.1648 37.0985 26.206 37.1558Z" fill="#42210B"/>
<path d="M42.14 29.809C40.6828 31.5983 38.8495 33.0449 36.7703 34.0461C34.6911 35.0473 32.4171 35.5785 30.1095 35.6021L29.0801 38.9526C29.0801 38.9526 36.404 41.3305 41.198 37.3343L42.0033 39.3742C42.0033 39.3742 46.0907 41.3305 49.293 39.8187C49.293 39.8187 49.1791 30.8651 42.7516 27.8717" fill="#68E1FD"/>
<path opacity="0.13" d="M42.14 29.809C42.14 29.809 37.6006 35.6021 30.1095 35.6021L29.0801 38.9526C29.0801 38.9526 36.404 41.3305 41.198 37.3343L42.0033 39.3742C42.0033 39.3742 46.0907 41.3305 49.293 39.8187C49.293 39.8187 49.1791 30.8651 42.7516 27.8717" fill="#333333"/>
<path d="M38.7531 25.7824C38.7531 25.7824 38.5366 29.8128 40.5081 30.299C42.7608 30.8498 44.2726 27.7425 43.266 25.9951C42.2593 24.2477 39.2811 24.4262 38.7531 25.7824Z" fill="#FFE8E6"/>
<path d="M40.0417 24.0729C39.6456 24.1958 39.28 24.4011 38.969 24.6754C38.658 24.9498 38.4086 25.2869 38.2373 25.6646C38.2145 25.7216 38.1955 25.7747 38.1766 25.8317C38.1529 25.9926 38.1452 26.1555 38.1538 26.318C38.1548 26.5171 38.2144 26.7116 38.3251 26.8771C38.4359 27.0426 38.593 27.1718 38.7767 27.2486C38.7481 26.912 38.7931 26.5732 38.9086 26.2557C39.024 25.9382 39.2072 25.6497 39.4453 25.4101C39.4453 25.4101 39.2174 25.8545 41.3827 26.8232C41.3827 26.8232 42.8718 28.7909 42.4577 29.809C42.4957 29.7102 42.7692 29.5697 42.8376 29.5013C43.1648 29.2276 43.4615 28.9193 43.7227 28.582C45.5574 26.1888 42.6172 23.2562 40.0417 24.0729Z" fill="#E54B5D"/>
<path d="M39.4497 25.4101C39.4497 25.4101 39.5143 27.2525 41.729 27.5868C43.0585 27.7919 40.2437 30.2459 41.5618 31.0056C42.88 31.7654 45.3605 30.0749 45.9645 28.81C46.5685 27.545 44.5894 23.8716 41.4289 23.6893C41.4289 23.6893 39.1496 23.2524 38.2266 25.809" fill="#E54B5D"/>
<path d="M40.0528 27.6248C40.0297 27.6213 40.006 27.6271 39.9872 27.641C39.9683 27.6549 39.9557 27.6757 39.9522 27.6989C39.9487 27.722 39.9545 27.7457 39.9684 27.7645C39.9823 27.7834 40.0031 27.796 40.0263 27.7995C40.0494 27.8031 40.0731 27.7972 40.0919 27.7833C40.1108 27.7694 40.1234 27.7486 40.1269 27.7255C40.1304 27.7023 40.1246 27.6787 40.1107 27.6598C40.0968 27.6409 40.076 27.6283 40.0528 27.6248Z" fill="#42210B"/>
<path d="M39.0567 27.4424H39.0073C38.8971 27.4766 38.9655 27.6437 39.0719 27.6095H39.1213C39.2314 27.5716 39.1668 27.4044 39.0567 27.4424Z" fill="#42210B"/>
<path d="M42.6143 27.5906C42.2344 26.941 41.3759 27.6286 41.4025 28.1756C41.403 28.199 41.4087 28.222 41.4193 28.243C41.4298 28.2639 41.445 28.2822 41.4636 28.2964C41.4823 28.3106 41.5039 28.3205 41.5268 28.3252C41.5498 28.33 41.5735 28.3294 41.5963 28.3237C41.5993 28.3449 41.6057 28.3654 41.6153 28.3845C41.5724 28.3898 41.529 28.3898 41.4861 28.3845C41.262 28.3389 41.2088 28.6922 41.4329 28.7378C41.9837 28.8365 42.9866 28.2515 42.6143 27.5906ZM41.8546 27.8983C41.8716 27.9209 41.8937 27.9391 41.9191 27.9514C41.9467 27.9641 41.9771 27.969 42.0072 27.9656C42.0374 27.9623 42.066 27.9508 42.0901 27.9324C42.0816 27.9562 42.0687 27.9781 42.0521 27.997C42.0197 28.0374 41.9786 28.0699 41.9319 28.0923C41.8853 28.1146 41.8342 28.1262 41.7824 28.1262H41.7558C41.7643 28.0403 41.8019 27.96 41.8622 27.8983H41.8546Z" fill="#FFE8E6"/>
<path d="M39.6976 28.6505C39.3557 28.6505 39.5418 28.2516 39.5912 28.0769C39.6406 27.9021 39.709 27.697 39.7698 27.5033C39.8077 27.3931 39.633 27.3475 39.5988 27.4577C39.5342 27.6476 39.4735 27.8376 39.4203 28.0313C39.3593 28.1891 39.3172 28.3536 39.2949 28.5213C39.2949 28.7568 39.5001 28.8252 39.6976 28.8328C39.8115 28.8366 39.8115 28.6581 39.6976 28.6505Z" fill="#42210B"/>
<path d="M40.5781 28.6314C40.5284 28.7864 40.428 28.9202 40.2932 29.0113C40.1087 29.09 39.9048 29.1112 39.7082 29.072C39.598 29.072 39.5486 29.2278 39.6626 29.243C39.8833 29.2861 40.1116 29.2691 40.3235 29.1936C40.4204 29.1452 40.5065 29.0779 40.577 28.9957C40.6474 28.9135 40.7007 28.818 40.7338 28.715C40.7794 28.6162 40.6198 28.525 40.5781 28.6314Z" fill="#42210B"/>
<path d="M77.7482 69.7487C76.8479 70.5084 75.6969 72.3318 75.0132 73.2359C74.865 73.4334 74.7017 73.6385 74.5459 73.8589L72.7871 71.9253L75.4462 67.7467L77.7482 69.7487Z" fill="#68E1FD"/>
<path d="M73.7159 70.3337C73.9024 70.7698 74.2088 71.1441 74.5994 71.4131C74.9901 71.682 75.449 71.8347 75.923 71.8532C75.733 72.5218 75.2506 73.7754 75.4861 74.2806C75.8318 75.0404 78.6429 78.3262 76.8423 78.7631C75.5051 79.0898 71.6152 74.4819 71.8014 73.6918C71.9305 73.1524 73.1917 71.1657 73.7159 70.3337Z" fill="#68E1FD"/>
<path d="M78.4736 78.6301C78.6045 79.6135 78.8219 80.5833 79.1231 81.5285C79.7423 83.0708 82.5724 86.5542 79.9513 87.3975C77.1706 88.294 75.4422 83.2911 75.2712 82.3946C75.0914 81.1216 75.0774 79.8307 75.2295 78.5541C76.1829 79.1391 77.4175 79.0328 78.4736 78.6301Z" fill="#68E1FD"/>
<g opacity="0.9">
<path opacity="0.9" d="M77.7482 69.7487C76.8479 70.5084 75.6969 72.3318 75.0132 73.2359C74.865 73.4334 74.7017 73.6386 74.5459 73.8589L72.7871 71.9253L75.4462 67.7468L77.7482 69.7487Z" fill="#333333"/>
<path opacity="0.9" d="M73.7159 70.3336C73.9024 70.7697 74.2088 71.144 74.5994 71.4129C74.9901 71.6819 75.449 71.8345 75.923 71.8531C75.733 72.5217 75.2506 73.7753 75.4861 74.2805C75.8318 75.0402 78.6429 78.3261 76.8423 78.763C75.5051 79.0897 71.6152 74.4818 71.8014 73.6917C71.9305 73.1523 73.1917 71.1655 73.7159 70.3336Z" fill="#333333"/>
</g>
<path d="M79.3207 45.5243C79.3207 45.5243 87.0549 56.0619 86.2533 59.6289C85.4518 63.1959 78.8914 69.9994 78.8914 69.9994L78.2267 63.025C78.2267 63.025 80.107 59.7505 79.9437 59.2642C79.7803 58.778 77.9228 57.0572 77.9228 57.0572L75.2637 46.7475" fill="#68E1FD"/>
<path d="M74.427 76.7003C73.4051 72.0621 72.7897 66.4438 72.7138 66.1057C72.6074 65.6575 70.0129 51.0172 70.0129 51.0172C70.5029 48.738 69.4241 49.323 69.7204 47.0248C70.2522 46.9792 72.3567 46.1511 72.8733 46.0447C73.9521 45.8206 74.9436 44.3315 75.9465 43.8605C76.9721 49.6573 78.6056 66.6755 79.3653 75.7697C78.6284 77.3879 76.8468 77.6728 74.427 76.7003Z" fill="#68E1FD"/>
<path opacity="0.62" d="M79.3183 45.5243C79.3183 45.5243 87.0524 56.0619 86.2509 59.6289C85.4494 63.1959 78.889 69.9994 78.889 69.9994L78.2242 63.025C78.2242 63.025 80.1046 59.7505 79.9412 59.2642C79.7779 58.778 77.5633 56.6051 77.5633 56.6051L76.2793 46.1587" fill="#333333"/>
<path d="M83.8768 39.887C84.6365 39.4844 85.0164 38.7094 85.7191 38.2346L85.7609 38.2004L85.8179 38.1814C85.9061 38.1597 85.9988 38.1642 86.0845 38.1943C86.1703 38.2245 86.2453 38.279 86.3006 38.3511C86.3558 38.4233 86.3888 38.51 86.3955 38.6006C86.4022 38.6913 86.3823 38.7819 86.3383 38.8614C86.1494 39.2095 85.8575 39.4908 85.5026 39.6667C85.4741 39.7187 85.435 39.7641 85.3879 39.8001C85.3408 39.836 85.2867 39.8618 85.2291 39.8756C84.8067 39.9879 84.3929 40.1301 83.9907 40.3011C83.8839 40.3581 83.7595 40.3726 83.6425 40.3416C83.5255 40.3106 83.4246 40.2364 83.3601 40.1339C83.3022 40.0257 83.286 39.9 83.3145 39.7807C83.3798 39.8631 83.4725 39.9192 83.5758 39.9387C83.6791 39.9582 83.7859 39.9399 83.8768 39.887Z" fill="#FFC4B0"/>
<path d="M83.8451 41.2469C84.1148 40.6163 84.3465 39.9744 84.6049 39.3476C84.7644 39.1842 84.9163 39.0133 85.0759 38.8461C85.1112 38.8418 85.1469 38.8418 85.1823 38.8461C85.2496 38.847 85.3157 38.8637 85.3754 38.8948C85.4351 38.926 85.4866 38.9707 85.5258 39.0254C85.5649 39.0801 85.5907 39.1433 85.601 39.2098C85.6113 39.2764 85.6058 39.3444 85.5849 39.4084L85.5279 39.5565C85.5539 39.6165 85.5672 39.6811 85.5672 39.7464C85.5672 39.8118 85.5539 39.8764 85.5279 39.9364C85.3355 40.3466 85.1417 40.7569 84.9467 41.1672C84.8811 41.3702 84.7878 41.5632 84.6694 41.7408L84.5517 41.9877C84.2934 42.5233 83.4956 42.0561 83.7539 41.5204L83.8451 41.2469Z" fill="#FFC4B0"/>
<path d="M78.5813 35.3818C78.8472 37.5015 78.5813 39.7541 79.4626 41.756C79.7528 42.3946 80.137 42.9861 80.6022 43.511L80.682 43.5984C78.7826 43.5566 78.0723 43.2793 78.0723 43.2793L78.3724 33.9459C78.4293 34.113 78.5509 34.5081 78.7066 35.0437C78.6576 35.0839 78.6202 35.1363 78.5982 35.1957C78.5761 35.2552 78.5703 35.3194 78.5813 35.3818Z" fill="#42210B"/>
<path d="M78.489 76.5446C78.2936 77.7566 78.2578 78.989 78.3826 80.2103C78.4206 80.4724 78.4548 80.7611 78.5118 81.046L75.4082 80.5218V76.5446H78.489Z" fill="#FFC4B0"/>
<path opacity="0.9" d="M78.4736 78.6301C78.6045 79.6135 78.8219 80.5833 79.1231 81.5285C79.7423 83.0708 82.5724 86.5542 79.9513 87.3975C77.1706 88.294 75.4422 83.2911 75.2712 82.3946C75.0914 81.1216 75.0774 79.8307 75.2295 78.5541C76.1829 79.1391 77.4175 79.0328 78.4736 78.6301Z" fill="#333333"/>
<path opacity="0.62" d="M74.427 76.7003C73.4051 72.0621 72.7897 66.4438 72.7138 66.1057C72.6074 65.6575 70.0129 51.0172 70.0129 51.0172C70.5029 48.738 69.4241 49.323 69.7204 47.0248C70.2522 46.9792 72.3567 46.1511 72.8733 46.0447C73.9521 45.8206 74.9436 44.3315 75.9465 43.8605C76.9721 49.6573 78.6056 66.6755 79.3653 75.7697C78.6284 77.3879 76.8468 77.6728 74.427 76.7003Z" fill="#333333"/>
<path d="M70.0696 55.6934C70.1174 54.9824 70.2139 54.2754 70.3583 53.5776C70.3579 52.7636 70.4201 51.9508 70.5445 51.1464C71.4221 51.1111 72.3009 51.125 73.177 51.1882C73.177 51.625 73.177 52.0619 73.2036 52.4987C73.3049 52.8178 73.3948 53.1407 73.4733 53.4674C73.5282 53.5119 73.5712 53.5693 73.5986 53.6345C73.9997 54.4558 74.2567 55.3398 74.3584 56.248C74.3545 56.3487 74.3184 56.4454 74.2555 56.524C74.1926 56.6026 74.1062 56.659 74.0089 56.6849C73.9116 56.7108 73.8086 56.7049 73.7149 56.668C73.6213 56.6311 73.5419 56.5651 73.4885 56.4798C73.3542 56.186 73.2276 55.8884 73.1086 55.5871C73.1086 55.9948 73.1086 56.4025 73.1086 56.8103C73.1047 56.9332 73.0536 57.05 72.9659 57.1363C72.8782 57.2226 72.7606 57.2718 72.6375 57.2737C72.5227 57.2831 72.4076 57.2573 72.3078 57.1996C72.2081 57.1419 72.1283 57.0551 72.0791 56.9508C72.0079 57.0486 71.9063 57.1202 71.7903 57.1545C71.6743 57.1888 71.5502 57.184 71.4372 57.1407C71.3436 57.0943 71.2602 57.0298 71.1917 56.9509C71.1232 56.872 71.0711 56.7803 71.0383 56.6811C70.9531 56.7248 70.8587 56.7475 70.7629 56.7475C70.6671 56.7475 70.5727 56.7248 70.4875 56.6811C70.0848 56.495 70.0468 56.0771 70.0696 55.6934Z" fill="#FFC4B0"/>
<path d="M84.4973 38.2612C84.1972 38.4056 83.9047 38.5499 83.6198 38.6639C82.5182 39.0969 80.9607 39.2907 80.22 38.1321C79.654 37.2242 79.4602 36.1226 79.3007 35.0931C79.1487 34.17 79.1373 33.0076 78.4004 32.3276C77.9903 31.9824 77.4963 31.7517 76.9683 31.6591C75.6653 31.3704 74.9853 31.6591 73.8039 32.2251C72.2845 32.9468 70.4193 33.8395 69.6785 35.4426C68.7441 37.4673 68.4933 44.833 69.614 51.872C71.0423 51.9328 72.4402 51.8986 73.7584 51.344C73.5836 49.7409 73.3557 48.0619 73.3557 48.0619C73.5266 47.8682 77.0974 48.3316 79.3197 45.5282L79.1791 43.4085C79.6995 43.5225 79.4944 43.5756 79.9693 43.5946C81.3478 43.6388 82.7225 43.4249 84.0225 42.964C84.6379 41.5091 84.6113 39.8491 84.4973 38.2612Z" fill="#C96F6F"/>
<path opacity="0.13" d="M84.4973 57.7325C84.1972 57.8768 83.9047 58.0212 83.6198 58.1351C82.5182 58.5682 80.9607 58.7619 80.22 57.6033C79.654 56.6954 79.4602 55.5938 79.3007 54.5644C79.1487 53.6413 79.1373 52.4789 78.4004 51.7989C77.9903 51.4536 77.4963 51.223 76.9683 51.1303C75.6653 50.8416 74.9853 51.1303 73.8039 51.6963C72.2845 52.4181 70.4193 53.3108 69.6785 54.9138C68.7441 56.9386 68.4933 64.3043 69.614 71.3433C71.0423 71.4041 72.4402 71.3699 73.7584 70.8153C73.5836 69.2122 73.3557 67.5332 73.3557 67.5332C73.5266 67.3394 77.0974 67.8029 79.3197 64.9994L79.1791 62.8797C79.6995 62.9937 79.4944 63.0469 79.9693 63.0659C81.3478 63.11 82.7225 62.8962 84.0225 62.4353C84.6379 60.9804 84.6113 59.3203 84.4973 57.7325Z" fill="#C96F6F"/>
<path d="M75.3954 33.7027C75.101 33.8757 74.768 33.9724 74.4267 33.9838C73.3365 34.0408 72.6907 32.8898 72.2728 32.0579C71.7411 31.0861 71.4347 30.0073 71.3763 28.9011C71.3692 28.7216 71.391 28.542 71.4409 28.3693C71.855 27.1233 76.326 26.1927 76.5806 28.6542C76.7363 30.1053 76.8541 32.8138 75.3954 33.7027Z" fill="#FFC4B0"/>
<path d="M71.9097 30.2345C72.0636 30.2255 72.2177 30.2493 72.3618 30.3044C72.5058 30.3594 72.6366 30.4443 72.7454 30.5536C72.9832 30.7733 73.1375 31.0686 73.1822 31.3893C73.196 31.4533 73.1882 31.5201 73.16 31.5792C73.1319 31.6383 73.0849 31.6864 73.0265 31.716C72.9999 31.7613 72.9641 31.8007 72.9215 31.8315C72.8788 31.8623 72.8303 31.8839 72.7789 31.895C72.7274 31.9061 72.6743 31.9063 72.6227 31.8958C72.5712 31.8852 72.5224 31.8641 72.4795 31.8337C72.18 31.6386 71.9166 31.3931 71.7008 31.1082C71.5032 30.8233 71.4728 30.318 71.9097 30.2345Z" fill="#FFC4B0"/>
<path d="M70.2473 27.2145C70.2866 26.9482 70.3822 26.6932 70.5276 26.4666C70.673 26.24 70.8649 26.0469 71.0906 25.9002C71.3413 25.736 71.6247 25.6282 71.9211 25.5843C72.2176 25.5403 72.52 25.5613 72.8076 25.6456C73.026 25.2781 73.3639 24.9965 73.7649 24.8479C74.1313 24.7306 74.5248 24.7273 74.8931 24.8386C75.2615 24.9498 75.5873 25.1703 75.8276 25.4709C76.4631 25.4021 77.1032 25.5507 77.6434 25.8926C77.9266 26.0873 78.1608 26.3451 78.3276 26.6456C78.4943 26.9462 78.5891 27.2814 78.6044 27.6248C78.6155 27.7245 78.6155 27.8251 78.6044 27.9249C78.6264 28.102 78.62 28.2815 78.5854 28.4567C78.3537 29.6761 77.2939 29.9762 76.6519 30.0369C76.7545 29.3798 76.6519 28.1034 75.8922 28.4377C75.8486 28.4385 75.8058 28.4489 75.7668 28.4681C75.2882 28.696 75.687 29.3608 75.0071 29.4481C74.3271 29.5355 73.9168 29.0113 73.2824 29.6343C72.6481 30.2573 74.0422 30.9524 72.5645 32.0958C72.5586 32.1786 72.5485 32.261 72.5341 32.3428C72.5341 32.244 71.9491 31.7084 71.8617 31.6058C71.6224 31.3285 71.3945 31.0398 71.1779 30.7435C70.7829 30.2589 70.4709 29.712 70.2549 29.1253C70.0999 28.4981 70.0973 27.8429 70.2473 27.2145Z" fill="#333333"/>
<path d="M72.0491 31.1045C71.9845 30.6714 72.3188 30.4245 72.6645 30.6068C72.9182 30.759 73.13 30.9721 73.2806 31.2268C73.4312 31.4816 73.5158 31.7698 73.5268 32.0655C73.5306 32.1243 73.5217 32.1833 73.5008 32.2383C73.4798 32.2934 73.4472 32.3433 73.4052 32.3846C73.3895 32.4178 73.369 32.4485 73.3444 32.4758C73.3046 32.5155 73.2569 32.5465 73.2044 32.5667C73.1519 32.5869 73.0957 32.5958 73.0395 32.5929C72.9833 32.5901 72.9283 32.5755 72.8781 32.5501C72.8279 32.5246 72.7836 32.489 72.748 32.4454C72.3719 32.089 72.1258 31.6169 72.0491 31.1045Z" fill="#FFC4B0"/>
<path d="M75.8711 30.508C76.0116 30.4815 77.3374 29.999 77.3374 29.999C77.3374 29.999 77.3868 31.3172 76.684 31.6173C75.9813 31.9174 75.8711 30.508 75.8711 30.508Z" stroke="#333333" stroke-width="0.76125" stroke-miterlimit="10"/>
<path d="M75.1866 30.7283L73.6367 31.2564C73.6367 31.2564 73.6367 32.5669 74.651 32.3466C75.6652 32.1263 75.1866 30.7283 75.1866 30.7283Z" stroke="#333333" stroke-width="0.76125" stroke-miterlimit="10"/>
<path d="M72.907 30.5498L73.6401 31.1956C73.7313 31.2753 73.5946 31.4083 73.5034 31.3285L72.7702 30.6827C72.6829 30.5992 72.8196 30.47 72.907 30.5498Z" fill="#333333"/>
<path d="M75.7293 32.3466C75.8509 32.3466 76.0256 32.2972 76.0218 32.1528C75.9999 32.0618 75.964 31.9746 75.9154 31.8945C75.8433 31.7312 75.7635 31.5716 75.6799 31.4159C75.6678 31.3937 75.665 31.3677 75.6722 31.3435C75.6793 31.3192 75.6957 31.2988 75.7179 31.2867C75.7401 31.2747 75.7661 31.2719 75.7904 31.279C75.8146 31.2861 75.835 31.3026 75.8471 31.3247C75.9306 31.4805 76.0142 31.64 76.0826 31.8034C76.1566 31.9269 76.2056 32.0637 76.2269 32.206C76.2269 32.434 75.904 32.5213 75.7255 32.5365C75.6002 32.5631 75.6077 32.3542 75.7293 32.3466Z" fill="#333333"/>
<path d="M75.1137 30.6638C75.3903 30.606 75.6631 30.5312 75.9304 30.4397C76.0482 30.4017 76.09 30.584 75.976 30.6258C75.7086 30.7173 75.4359 30.7922 75.1593 30.8499C75.0415 30.8575 74.9959 30.6638 75.1137 30.6638Z" fill="#333333"/>
<path d="M89.3826 38.5081L86.3551 42.7893L84.1328 42.9526L87.149 38.4055L89.3826 38.5081Z" fill="#2D2D2D"/>
<path d="M88.5172 37.7255L86.4203 37.9458L83.123 42.5499L84.1297 42.9525L86.8154 39.2298L89.3795 38.508L88.5172 37.7255Z" fill="#606060"/>
<path d="M86.2392 41.6572H86.3949C86.3401 41.589 86.3056 41.5068 86.2953 41.42C86.2849 41.3331 86.2991 41.2451 86.3364 41.1659C86.3736 41.0867 86.4322 41.0196 86.5057 40.9722C86.5792 40.9247 86.6645 40.8988 86.752 40.8975H87.1319C87.0595 40.8241 87.013 40.7293 86.9993 40.6272C86.9856 40.5251 87.0054 40.4213 87.0559 40.3315C87.2534 40.0238 88.0587 40.001 88.2335 40.3315C88.2934 40.4376 88.3094 40.563 88.2782 40.6808C88.2469 40.7986 88.1709 40.8995 88.0663 40.9621L87.9562 41.0076C88.0224 41.0717 88.0684 41.1538 88.0884 41.2437C88.1084 41.3336 88.1016 41.4275 88.0689 41.5136C88.0362 41.5997 87.9789 41.6743 87.9041 41.7282C87.8294 41.7821 87.7405 41.8129 87.6485 41.8168H87.5839C87.6333 41.8855 87.6626 41.9667 87.6685 42.0512C87.6743 42.1357 87.6565 42.2201 87.6171 42.2951C87.5777 42.37 87.5181 42.4325 87.4452 42.4755C87.3722 42.5185 87.2887 42.5403 87.204 42.5385C86.8873 42.5709 86.5686 42.5798 86.2506 42.5651C86.1283 42.5632 86.0115 42.5137 85.925 42.4272C85.8385 42.3407 85.7891 42.224 85.7871 42.1017C85.7928 41.9843 85.8424 41.8734 85.9262 41.7911C86.01 41.7087 86.1217 41.6609 86.2392 41.6572Z" fill="#FFC4B0"/>
<path d="M77.3967 52.2557C77.3739 52.0582 77.0624 52.0544 77.0852 52.2557C77.9336 59.9342 78.6034 67.6303 79.0947 75.3443C79.0947 75.5456 79.4214 75.5456 79.4062 75.3443C78.9174 67.6354 78.2476 59.9392 77.3967 52.2557Z" fill="#333333"/>
<path d="M73.3548 48.0581C73.1991 47.5757 72.3672 39.4388 72.3672 39.4388L74.1374 47.9707L73.3548 48.0581Z" fill="#333333"/>
<path d="M80.6074 43.5794C80.2541 43.0476 78.6359 40.5747 78.1914 38.9222L79.1981 43.4541C79.6594 43.563 80.134 43.6052 80.6074 43.5794Z" fill="#333333"/>
<path d="M86.4023 27.5982L89.3198 33.9421V28.4909" fill="#68E1FD"/>
<path d="M86.17 17.9533L97.6953 24.6087C97.7864 24.6608 97.8621 24.736 97.9147 24.8267C97.9674 24.9174 97.9953 25.0204 97.9954 25.1253V34.5271C97.995 34.6318 97.967 34.7345 97.9143 34.8249C97.8616 34.9153 97.786 34.9903 97.6952 35.0422C97.6043 35.0942 97.5014 35.1213 97.3968 35.1209C97.2921 35.1205 97.1894 35.0926 97.0989 35.0399L85.5736 28.282C85.4839 28.2298 85.4093 28.1549 85.3573 28.065C85.3054 27.975 85.2778 27.8731 85.2773 27.7692V18.4699C85.2775 18.3655 85.3051 18.263 85.3573 18.1726C85.4096 18.0821 85.4846 18.007 85.575 17.9547C85.6654 17.9024 85.7679 17.8748 85.8723 17.8745C85.9768 17.8743 86.0794 17.9014 86.17 17.9533Z" fill="#68E1FD"/>
<path d="M33.8667 17.7367L30.9531 24.0805V18.6294" fill="#FFB3A6"/>
<path d="M34.0988 8.09181L22.5735 14.7434C22.4825 14.7955 22.4068 14.8707 22.3541 14.9614C22.3014 15.0521 22.2736 15.1551 22.2734 15.26V24.6656C22.2739 24.7702 22.3019 24.8729 22.3546 24.9634C22.4073 25.0538 22.4829 25.1287 22.5737 25.1807C22.6645 25.2327 22.7675 25.2598 22.8721 25.2594C22.9768 25.259 23.0795 25.2311 23.1699 25.1784L34.6952 18.4205C34.785 18.3682 34.8596 18.2934 34.9115 18.2035C34.9635 18.1135 34.9911 18.0116 34.9915 17.9077V8.60844C34.9914 8.50401 34.9638 8.40147 34.9115 8.31105C34.8593 8.22063 34.7842 8.14552 34.6939 8.09321C34.6035 8.04091 34.501 8.01325 34.3965 8.013C34.2921 8.01276 34.1895 8.03993 34.0988 8.09181Z" fill="#FFB3A6"/>
<path d="M97.1542 70.364C101.424 70.364 104.885 67.9269 104.885 64.9205C104.885 61.9141 101.424 59.4769 97.1542 59.4769C92.8848 59.4769 89.4238 61.9141 89.4238 64.9205C89.4238 67.9269 92.8848 70.364 97.1542 70.364Z" fill="#68E1FD"/>
<path opacity="0.62" d="M97.1542 70.364C101.424 70.364 104.885 67.9269 104.885 64.9205C104.885 61.9141 101.424 59.4769 97.1542 59.4769C92.8848 59.4769 89.4238 61.9141 89.4238 64.9205C89.4238 67.9269 92.8848 70.364 97.1542 70.364Z" fill="#333333"/>
<path d="M97.1525 64.0773C100.35 64.0773 102.942 63.016 102.942 61.7069C102.942 60.3977 100.35 59.3365 97.1525 59.3365C93.9552 59.3365 91.3633 60.3977 91.3633 61.7069C91.3633 63.016 93.9552 64.0773 97.1525 64.0773Z" fill="#333333"/>
<path d="M96.9372 57.7524C96.9372 56.6811 96.8992 55.6137 96.8156 54.5463C96.7928 54.2702 96.7675 53.9942 96.7397 53.7182C96.7397 53.6726 96.6941 53.3383 96.6789 53.1711C96.6637 53.004 96.5915 52.6013 96.5953 52.6165C96.5598 52.3987 96.5218 52.1822 96.4813 51.9669C95.8487 48.3401 94.4388 44.893 92.3483 41.8624C91.5659 43.7359 91.178 45.7506 91.2087 47.7808C91.2087 48.3696 91.2543 48.9508 91.3037 49.5358C91.3037 49.6915 91.3037 49.7599 91.3227 49.7827C91.3417 49.8055 91.3227 49.7485 91.3493 49.8814C91.3987 50.1701 91.448 50.4551 91.5088 50.7438C91.7372 51.8329 92.0432 52.9043 92.4243 53.9499C92.767 54.9131 93.1849 55.848 93.6741 56.7457C94.1983 57.7562 94.7719 58.74 95.3835 59.6973C95.8621 60.4571 96.318 61.1218 96.7738 61.7562C96.8726 60.4305 96.9372 59.0933 96.9372 57.7524ZM93.8982 45.7371C93.9196 45.5987 93.9105 45.4574 93.8716 45.323C94.021 45.4749 94.1654 45.6294 94.3047 45.7864C94.1726 45.749 94.0354 45.7324 93.8982 45.7371Z" fill="#FFB3A6"/>
<path d="M98.9274 58.5805C99.5048 57.6803 100.067 56.761 100.557 55.8189C100.689 55.5656 100.815 55.32 100.937 55.0819L101.18 54.5881L101.412 54.0753C101.498 53.8727 101.583 53.6701 101.666 53.4675C103.103 50.0749 103.789 46.4113 103.676 42.7285C101.998 43.8779 100.575 45.3612 99.4972 47.0856C99.1819 47.5833 98.9008 48.0961 98.6273 48.6051L98.5095 48.8254C98.5095 48.8254 98.5323 48.7989 98.4791 48.9242C98.3652 49.1939 98.2512 49.4636 98.1486 49.7333C97.7512 50.7739 97.4288 51.8415 97.1837 52.9281C96.9508 53.9274 96.7972 54.9435 96.7241 55.967C96.6177 57.1066 96.5722 58.2463 96.5684 59.3859C96.5684 60.2748 96.5684 61.0877 96.6253 61.8702C97.4269 60.7952 98.2018 59.705 98.9274 58.5805ZM102.867 46.8273C102.962 46.7175 103.03 46.5877 103.068 46.4475C103.111 46.6551 103.149 46.864 103.182 47.0742C103.09 46.9764 102.984 46.8932 102.867 46.8273Z" fill="#FFB3A6"/>
<path d="M98.8882 61.2433C99.4909 60.9445 100.081 60.6229 100.658 60.2785L101.103 60.005L101.392 59.8188L101.68 59.6175L102.015 59.3706C103.883 58.0004 105.433 56.2418 106.558 54.2157C105.283 54.2967 104.039 54.6394 102.903 55.2224C102.573 55.3895 102.258 55.5757 101.942 55.7694L101.809 55.8492C101.809 55.8492 101.828 55.8492 101.76 55.891C101.612 55.9973 101.464 56.1075 101.319 56.2214C100.768 56.6548 100.249 57.1271 99.7657 57.6346C99.3184 58.0967 98.9081 58.5934 98.5387 59.1199C98.117 59.6973 97.722 60.2975 97.3535 60.9091C97.0648 61.3877 96.8141 61.8321 96.5938 62.269C97.3611 61.9537 98.1322 61.6194 98.8882 61.2433ZM104.818 56.1721C104.903 56.1451 104.981 56.0997 105.046 56.0391C105.003 56.1657 104.956 56.2924 104.905 56.419C104.889 56.3326 104.86 56.2492 104.818 56.1721Z" fill="#FFB3A6"/>
<path d="M96.9372 57.7524C96.9372 56.6811 96.8992 55.6137 96.8156 54.5463C96.7928 54.2702 96.7675 53.9942 96.7397 53.7182C96.7397 53.6726 96.6941 53.3383 96.6789 53.1711C96.6637 53.004 96.5915 52.6013 96.5953 52.6165C96.5598 52.3987 96.5218 52.1822 96.4813 51.9669C95.8487 48.3401 94.4388 44.893 92.3483 41.8624C91.5659 43.7359 91.178 45.7506 91.2087 47.7808C91.2087 48.3696 91.2543 48.9508 91.3037 49.5358C91.3037 49.6915 91.3037 49.7599 91.3227 49.7827C91.3417 49.8055 91.3227 49.7485 91.3493 49.8814C91.3987 50.1701 91.448 50.4551 91.5088 50.7438C91.7372 51.8329 92.0432 52.9043 92.4243 53.9499C92.767 54.9131 93.1849 55.848 93.6741 56.7457C94.1983 57.7562 94.7719 58.74 95.3835 59.6973C95.8621 60.4571 96.318 61.1218 96.7738 61.7562C96.8726 60.4305 96.9372 59.0933 96.9372 57.7524ZM93.8982 45.7371C93.9196 45.5987 93.9105 45.4574 93.8716 45.323C94.021 45.4749 94.1654 45.6294 94.3047 45.7864C94.1726 45.749 94.0354 45.7324 93.8982 45.7371Z" fill="#FFB3A6"/>
<path d="M98.9274 58.5805C99.5048 57.6803 100.067 56.761 100.557 55.8189C100.689 55.5656 100.815 55.32 100.937 55.0819L101.18 54.5881L101.412 54.0753C101.498 53.8727 101.583 53.6701 101.666 53.4675C103.103 50.0749 103.789 46.4113 103.676 42.7285C101.998 43.8779 100.575 45.3612 99.4972 47.0856C99.1819 47.5833 98.9008 48.0961 98.6273 48.6051L98.5095 48.8254C98.5095 48.8254 98.5323 48.7989 98.4791 48.9242C98.3652 49.1939 98.2512 49.4636 98.1486 49.7333C97.7512 50.7739 97.4288 51.8415 97.1837 52.9281C96.9508 53.9274 96.7972 54.9435 96.7241 55.967C96.6177 57.1066 96.5722 58.2463 96.5684 59.3859C96.5684 60.2748 96.5684 61.0877 96.6253 61.8702C97.4269 60.7952 98.2018 59.705 98.9274 58.5805ZM102.867 46.8273C102.962 46.7175 103.03 46.5877 103.068 46.4475C103.111 46.6551 103.149 46.864 103.182 47.0742C103.09 46.9764 102.984 46.8932 102.867 46.8273Z" fill="#FFB3A6"/>
<path d="M98.8882 61.2433C99.4909 60.9445 100.081 60.6229 100.658 60.2785L101.103 60.005L101.392 59.8188L101.68 59.6175L102.015 59.3706C103.883 58.0004 105.433 56.2418 106.558 54.2157C105.283 54.2967 104.039 54.6394 102.903 55.2224C102.573 55.3895 102.258 55.5757 101.942 55.7694L101.809 55.8492C101.809 55.8492 101.828 55.8492 101.76 55.891C101.612 55.9973 101.464 56.1075 101.319 56.2214C100.768 56.6548 100.249 57.1271 99.7657 57.6346C99.3184 58.0967 98.9081 58.5934 98.5387 59.1199C98.117 59.6973 97.722 60.2975 97.3535 60.9091C97.0648 61.3877 96.8141 61.8321 96.5938 62.269C97.3611 61.9537 98.1322 61.6194 98.8882 61.2433ZM104.818 56.1721C104.903 56.1451 104.981 56.0997 105.046 56.0391C105.003 56.1657 104.956 56.2924 104.905 56.419C104.889 56.3326 104.86 56.2492 104.818 56.1721Z" fill="#FFB3A6"/>
<path d="M65.0629 8.22477L64.7742 24.1452C64.7706 24.3139 64.7245 24.479 64.6401 24.6252C64.5557 24.7713 64.4358 24.8938 64.2915 24.9813C64.1472 25.0688 63.9831 25.1185 63.8145 25.1257C63.6459 25.133 63.4782 25.0975 63.3269 25.0227L49.7959 18.2838C49.5716 18.1718 49.3837 17.9985 49.2539 17.784C49.1242 17.5695 49.0579 17.3226 49.0627 17.072L49.3553 1.14397C49.3582 0.960001 49.408 0.779826 49.5 0.620455C49.5919 0.461083 49.723 0.327772 49.8807 0.23311C50.0385 0.138447 50.2178 0.0855551 50.4017 0.0794276C50.5856 0.0733 50.768 0.114139 50.9317 0.198089L64.345 7.03577C64.5629 7.14818 64.7454 7.31882 64.8721 7.52872C64.9989 7.73863 65.0649 7.97957 65.0629 8.22477Z" fill="#FFB3A6"/>
<path d="M51.4077 10.6369C53.9832 11.3625 53.0943 14.2229 54.9443 15.7424C57.197 17.5924 58.0479 12.3236 60.8133 12.673C64.1296 13.0529 64.7716 24.1451 64.7716 24.1451C64.2474 25.4025 63.3243 25.0227 63.3243 25.0227L49.0449 17.9115L49.1551 11.7841C49.7553 11.0852 50.4922 10.5306 51.4077 10.6369Z" fill="#E54B5D"/>
<path d="M43.102 40.0162C39.9453 40.1796 34.931 40.1758 33.5292 43.7314C32.8227 45.5167 33.3545 47.777 33.7534 49.5814C34.2988 51.8372 34.9787 54.0583 35.7895 56.2329C35.8692 56.4608 36.2377 56.3621 36.1693 56.1303C35.5388 54.3336 34.9082 52.533 34.4257 50.6906C33.9433 48.8482 33.4343 46.8083 33.666 44.9052C34.1674 40.6126 39.8731 40.567 43.1248 40.3961C43.3451 40.3847 43.3451 40.0048 43.102 40.0162Z" fill="#333333"/>
<path d="M24.2304 18.337L32.9675 13.3758C33.0542 13.3133 33.1145 13.2207 33.1365 13.1161C33.1585 13.0114 33.1407 12.9024 33.0865 12.8102C33.0323 12.718 32.9457 12.6493 32.8436 12.6177C32.7415 12.586 32.6312 12.5936 32.5344 12.6389L23.7974 17.6C23.7106 17.6625 23.6504 17.7552 23.6283 17.8598C23.6063 17.9644 23.6241 18.0735 23.6783 18.1657C23.7325 18.2579 23.8191 18.3265 23.9212 18.3582C24.0233 18.3899 24.1336 18.3823 24.2304 18.337Z" fill="#F2F2F2"/>
<path d="M24.5703 21.1024L33.125 16.2287C33.2117 16.1661 33.272 16.0735 33.294 15.9689C33.316 15.8642 33.2982 15.7552 33.244 15.663C33.1899 15.5708 33.1032 15.5022 33.0011 15.4705C32.899 15.4388 32.7887 15.4464 32.6919 15.4917L24.1372 20.3541C24.0505 20.4166 23.9902 20.5092 23.9682 20.6138C23.9462 20.7185 23.964 20.8275 24.0182 20.9197C24.0723 21.0119 24.1589 21.0806 24.2611 21.1122C24.3632 21.1439 24.4734 21.1363 24.5703 21.091V21.1024Z" fill="#F2F2F2"/>
<path d="M96.0807 27.5981L87.3437 22.6408C87.2469 22.5954 87.1366 22.5879 87.0345 22.6196C86.9324 22.6512 86.8458 22.7199 86.7916 22.8121C86.7374 22.9042 86.7196 23.0133 86.7416 23.1179C86.7636 23.2226 86.8239 23.3152 86.9106 23.3777L95.6477 28.3389C95.7445 28.3842 95.8548 28.3918 95.9569 28.3601C96.059 28.3284 96.1456 28.2598 96.1998 28.1676C96.254 28.0754 96.2718 27.9663 96.2498 27.8617C96.2277 27.7571 96.1675 27.6644 96.0807 27.6019V27.5981Z" fill="#F2F2F2"/>
<path d="M95.7382 30.0294L87.1835 25.167C87.0867 25.1217 86.9765 25.1141 86.8743 25.1458C86.7722 25.1775 86.6856 25.2461 86.6314 25.3383C86.5773 25.4305 86.5594 25.5396 86.5815 25.6442C86.6035 25.7488 86.6638 25.8415 86.7505 25.904L95.3204 30.7701C95.4172 30.8155 95.5275 30.823 95.6296 30.7914C95.7317 30.7597 95.8183 30.691 95.8725 30.5989C95.9267 30.5067 95.9445 30.3976 95.9225 30.293C95.9004 30.1883 95.8402 30.0957 95.7534 30.0332L95.7382 30.0294Z" fill="#F2F2F2"/>
<defs>
<linearGradient id="paint0_linear" x1="78.0715" y1="75.7545" x2="65.6801" y2="87.5381" gradientUnits="userSpaceOnUse">
<stop stop-color="#29ABE2"/>
<stop offset="1" stop-color="white"/>
</linearGradient>
<linearGradient id="paint1_linear" x1="10900.5" y1="6815.04" x2="10193.6" y2="8565.94" gradientUnits="userSpaceOnUse">
<stop stop-color="#EBD9CC"/>
<stop offset="1" stop-color="white"/>
</linearGradient>
<linearGradient id="paint2_linear" x1="96.4524" y1="63.3746" x2="87.1646" y2="71.2189" gradientUnits="userSpaceOnUse">
<stop stop-color="#29ABE2"/>
<stop offset="0.79" stop-color="#D2EDF9"/>
<stop offset="1" stop-color="white"/>
</linearGradient>
</defs>
</svg>
