<svg width="300" height="300" viewBox="0 0 76 116" fill="none" xmlns="http://www.w3.org/2000/svg">
<path d="M13.7158 87.9746C13.4498 88.1354 13.2293 88.3614 13.0752 88.6313C12.9211 88.9012 12.8384 89.206 12.835 89.5168C12.8317 89.8275 12.9078 90.134 13.0561 90.4072C13.2044 90.6803 13.42 90.9111 13.6824 91.0775L55.5828 114.594C56.4251 115.066 57.3758 115.31 58.3411 115.302C59.3064 115.293 60.2529 115.034 61.0871 114.548L100.615 91.6205C100.919 91.4447 101.171 91.1922 101.346 90.8884C101.521 90.5846 101.613 90.2401 101.613 89.8894C101.613 89.5387 101.521 89.1942 101.346 88.8904C101.171 88.5865 100.919 88.3341 100.615 88.1583L58.5647 63.936C58.1294 63.6862 57.6362 63.5547 57.1343 63.5547C56.6324 63.5547 56.1392 63.6862 55.7039 63.936L13.7158 87.9746Z" fill="#DF7E7E"/>
<path style="mix-blend-mode:multiply" d="M62.3819 88.0247C68.5335 91.6121 72.9311 94.0218 82.3945 99.4259C75.2322 103.778 69.682 107.778 68.876 108.254L47.6188 95.7549C49.2726 94.9197 54.7352 91.8126 62.3819 88.0247Z" fill="url(#paint0_linear)"/>
<path d="M3.76385 80.6035V33.9463C3.75882 33.6091 3.84357 33.2767 4.00944 32.9832C4.1753 32.6896 4.41629 32.4455 4.70768 32.2758C8.58325 30.0248 52.4924 5.15516 61.0162 0.327402C61.1897 0.229165 61.3913 0.192377 61.5883 0.222996C61.5991 0.218802 61.611 0.218802 61.6217 0.222996C62.3022 0.511403 62.9646 0.840531 63.6055 1.20859C63.2409 1.46588 62.7971 1.58572 62.3526 1.54687V5.27627L62.244 49.4694C62.244 50.3548 25.4929 70.6097 24.7287 71.0524L6.20279 81.5974C6.80417 82.0568 7.13408 82.7877 6.76657 82.8503C6.27377 82.9422 5.20466 82.3324 4.61998 81.9691C4.47461 81.9066 4.34055 81.8205 4.22323 81.7144C4.06891 81.575 3.94761 81.4029 3.86814 81.2108C3.78868 81.0186 3.75306 80.8111 3.76385 80.6035Z" fill="#F29696"/>
<path d="M3.76385 80.6035V33.9463C3.75882 33.6091 3.84357 33.2767 4.00944 32.9832C4.1753 32.6896 4.41629 32.4455 4.70768 32.2758C8.58325 30.0248 52.4924 5.15516 61.0162 0.327402C61.1897 0.229165 61.3913 0.192377 61.5883 0.222996C61.5991 0.218802 61.611 0.218802 61.6217 0.222996C62.3022 0.511403 62.9646 0.840531 63.6055 1.20859C63.2409 1.46588 62.7971 1.58572 62.3526 1.54687V5.27627L62.244 49.4694C62.244 50.3548 25.4929 70.6097 24.7287 71.0524L6.20279 81.5974C6.80417 82.0568 7.13408 82.7877 6.76657 82.8503C6.27377 82.9422 5.20466 82.3324 4.61998 81.9691C4.47461 81.9066 4.34055 81.8205 4.22323 81.7144C4.06891 81.575 3.94761 81.4029 3.86814 81.2108C3.78868 81.0186 3.75306 80.8111 3.76385 80.6035Z" fill="#FFBFBF"/>
<path d="M63.9551 1.87262C63.9444 1.71957 63.8952 1.5717 63.812 1.44275C63.7289 1.3138 63.6145 1.20796 63.4795 1.13504C63.3445 1.06213 63.1933 1.02452 63.0399 1.02569C62.8865 1.02687 62.7358 1.0668 62.602 1.14177C54.074 5.96535 10.1774 30.8392 6.28928 33.0902C5.9979 33.2598 5.7569 33.504 5.59104 33.7975C5.42517 34.0911 5.34041 34.4235 5.34544 34.7607V81.3928C5.27445 82.345 6.35193 83.2262 7.22894 82.725L26.3312 71.8667C27.0996 71.4282 63.8465 51.1692 63.8465 50.2838L63.9551 6.09064V1.87262Z" fill="#DF7E7E"/>
<path d="M58.1895 31.357V48.772L36.427 61.3342V43.9025L58.1895 31.357Z" fill="white"/>
<path d="M35.2832 44.7044V62.1194L13.5249 74.6816V57.254L35.2832 44.7044Z" fill="white"/>
<path d="M58.1895 12.2381V29.6531L36.427 42.2153V24.7835L58.1895 12.2381Z" fill="white"/>
<path d="M35.2832 25.2346V42.6496L13.5249 55.2118V37.7843L35.2832 25.2346Z" fill="white"/>
<path d="M34.8769 22.5887C34.3658 22.4552 34.1344 21.6468 34.36 20.7832C34.5856 19.9196 35.1828 19.3277 35.6938 19.4612C36.2049 19.5947 36.4363 20.403 36.2107 21.2667C35.985 22.1303 35.3879 22.7222 34.8769 22.5887Z" fill="#34323D"/>
<path d="M46.0614 29.6981C44.7489 29.231 44.241 27.2899 44.927 25.3624C45.6129 23.435 47.2329 22.2512 48.5454 22.7183C49.8579 23.1854 50.3658 25.1265 49.6799 27.0539C48.9939 28.9814 47.3739 30.1652 46.0614 29.6981Z" fill="#FFBFBF"/>
<path d="M53.4121 32.4094C53.4121 32.4094 51.988 27.5566 48.3588 28.6132C44.7297 29.6698 42.4411 32.6809 42.4411 38.8242" fill="#FFBFBF"/>
<path d="M23.4559 42.6657C22.1435 42.1986 21.6355 40.2575 22.3215 38.3301C23.0074 36.4026 24.6275 35.2188 25.94 35.6859C27.2524 36.153 27.7603 38.0941 27.0744 40.0216C26.3884 41.949 24.7684 43.1328 23.4559 42.6657Z" fill="#FFBFBF"/>
<path d="M30.7969 45.3725C30.7969 45.3725 29.3728 40.5197 25.7436 41.5763C22.1144 42.6329 19.8258 45.6398 19.8258 51.7914" fill="#FFBFBF"/>
<path d="M46.8895 48.2384C45.577 47.7713 45.0691 45.8301 45.7551 43.9027C46.441 41.9753 48.0611 40.7914 49.3736 41.2585C50.686 41.7256 51.1939 43.6668 50.508 45.5942C49.822 47.5216 48.202 48.7055 46.8895 48.2384Z" fill="#FFBFBF"/>
<path d="M54.2324 50.9478C54.2324 50.9478 52.8083 46.095 49.1791 47.1516C45.55 48.2082 43.2614 51.2193 43.2614 57.3626" fill="#FFBFBF"/>
<path d="M24.9657 61.111C23.6532 60.6439 23.1453 58.7028 23.8312 56.7753C24.5172 54.8479 26.1372 53.6641 27.4497 54.1312C28.7622 54.5983 29.2701 56.5394 28.5842 58.4668C27.8982 60.3943 26.2782 61.5781 24.9657 61.111Z" fill="#FFBFBF"/>
<path d="M32.3125 63.8233C32.3125 63.8233 30.8884 58.9704 27.2592 60.027C23.6301 61.0836 21.3415 64.0947 21.3415 70.238" fill="#FFBFBF"/>
<path d="M57.3129 73.8922C59.1129 72.6393 61.2302 71.946 63.5188 72.4514C65.9577 72.9859 68.0668 74.5395 70.5516 74.8945C70.9442 74.953 72.5103 74.8527 72.7525 75.0782C79.6642 81.6183 60.3448 80.925 60.3448 80.925C58.4697 79.3881 56.7031 77.8763 54.8447 76.3311C55.4043 75.0615 56.3482 74.5687 57.3129 73.8922Z" fill="#F8997C"/>
<path d="M66.4084 83.3765L67.0934 103.109C67.1184 103.857 65.9574 103.857 65.9324 103.109L65.2474 83.3765C65.2182 82.6248 66.3792 82.629 66.4084 83.3765Z" fill="#F8997C"/>
<path d="M51.918 93.934C55.4372 90.49 58.799 86.897 62.0036 83.1551C62.4923 82.5871 63.3108 83.4099 62.8389 83.9904C59.6371 87.7295 56.2752 91.3225 52.7532 94.7693C52.2061 95.2788 51.3792 94.4561 51.918 93.934Z" fill="#F8997C"/>
<path d="M70.4367 81.5557C73.168 86.712 75.7406 91.9462 78.1544 97.2584C78.4635 97.935 77.4612 98.5113 77.1521 97.8473C74.7383 92.5351 72.1657 87.3008 69.4344 82.1445C69.0627 81.4763 70.0859 80.8875 70.4367 81.5557Z" fill="#F8997C"/>
<path d="M53.0931 69.2273C53.0931 69.2273 50.5873 69.741 50.0152 70.3048C49.443 70.8686 48.5284 73.2282 48.7832 73.9423C49.0379 74.6564 49.7562 73.5247 50.0653 73.0736C50.4305 72.5942 50.8237 72.1368 51.243 71.7038C52.0686 71.831 52.9134 71.7194 53.6777 71.3822" fill="#FCBF81"/>
<path d="M52.2531 90.5972C51.8898 90.2255 51.6559 89.8163 51.7812 89.4112C52.0025 88.6845 52.9881 88.3922 53.6605 88.4298C54.3329 88.4673 55.0345 88.8098 55.7152 89.0144C56.4289 89.2706 57.1907 89.3647 57.9453 89.2901C58.0673 89.2738 58.179 89.2127 58.2586 89.1188C58.468 89.0689 58.6611 88.9658 58.8191 88.8195C58.9771 88.6732 59.0947 88.4886 59.1606 88.2836L61.3949 87.4818C61.3949 87.4818 61.9629 92.2093 61.9629 92.5434C61.7958 95.0909 57.9913 93.6376 57.9913 93.6376C57.9913 93.6376 57.8576 92.4849 57.82 92.3304C57.7825 92.1759 56.3249 92.6269 55.7319 92.535C55.4535 92.4575 55.1896 92.3347 54.951 92.1717C54.4999 91.9253 54.0614 91.658 53.6229 91.3907C53.1844 91.1234 52.7083 90.8687 52.2531 90.5972Z" fill="#E55600"/>
<path d="M60.5899 73.1655C61.4252 73.249 62.2605 73.3576 63.0957 73.4746C62.7477 78.8369 62.3621 84.195 61.9389 89.549C59.7672 90.4385 58.886 90.0251 57.5371 88.6469C57.2823 83.5352 56.8313 78.1812 56.848 73.0193C58.1009 73.0736 59.3454 73.1279 60.5899 73.1655Z" fill="#34323D"/>
<path d="M69.6268 71.6955C69.6268 71.6955 69.986 77.5631 67.0376 78.8745C64.0891 80.1858 58.0377 79.5301 55.0642 77.7845C53.5253 76.8474 51.9104 76.0413 50.2365 75.3748C50.2365 75.3748 49.4722 72.8064 51.3265 71.6955C53.1807 70.5846 57.2818 69.2148 60.9319 71.6955" fill="#34323D"/>
<path d="M56.6892 55.5793C56.5967 55.3585 56.4878 55.1449 56.3635 54.9404C56.36 54.9533 56.3527 54.965 56.3426 54.9738C56.3393 54.9905 56.3309 55.0058 56.3187 55.0176C56.3064 55.0294 56.2908 55.0372 56.274 55.04C56.2572 55.0427 56.24 55.0402 56.2246 55.0329C56.2092 55.0255 56.1965 55.0136 56.1881 54.9988L55.95 54.6397C55.9581 54.6867 55.9581 54.7347 55.95 54.7817C55.9309 54.8695 55.8795 54.947 55.8061 54.9988C55.7326 55.0506 55.6424 55.0729 55.5533 55.0615C55.501 55.0577 55.4502 55.0425 55.4045 55.0168C55.3589 54.9911 55.3194 54.9557 55.2891 54.9129C55.2588 54.8702 55.2383 54.8213 55.229 54.7697C55.2198 54.7182 55.2222 54.6652 55.2359 54.6146L55.1273 54.4893C55.1329 54.5253 55.1329 54.5619 55.1273 54.5979C55.1108 54.6482 55.0819 54.6935 55.0433 54.7295C55.0046 54.7656 54.9574 54.7913 54.9061 54.8042C54.8549 54.8172 54.8011 54.8169 54.75 54.8035C54.6988 54.79 54.6519 54.7638 54.6136 54.7274C54.5718 54.694 54.5343 54.6522 54.4967 54.6146C54.4637 54.6289 54.4282 54.6362 54.3923 54.6362C54.3563 54.6362 54.3208 54.6289 54.2879 54.6146C53.9814 54.5103 53.6816 54.3876 53.39 54.2471C53.4104 54.2384 53.4284 54.2248 53.4424 54.2077C53.4565 54.1905 53.4661 54.1701 53.4707 54.1484C53.4752 54.1267 53.4744 54.1042 53.4683 54.0828C53.4623 54.0615 53.4511 54.0419 53.4359 54.0258C53.0917 53.7473 52.7274 53.4946 52.3459 53.2699C52.3324 53.2585 52.3168 53.2499 52.3 53.2448L52.2791 53.2072C52.1897 52.9177 52.2105 52.6053 52.3375 52.3302C52.2454 52.2181 52.1799 52.0866 52.1459 51.9455C52.112 51.8045 52.1103 51.6576 52.1413 51.5158C52.1719 51.5138 52.2011 51.5021 52.2248 51.4824C52.2792 51.4359 52.3257 51.3809 52.3626 51.3195C52.4298 51.2359 52.4821 51.1412 52.5171 51.0397C52.5257 51.0143 52.5259 50.9867 52.5176 50.9612C52.5093 50.9356 52.4931 50.9134 52.4712 50.8977C52.6132 50.7098 52.7802 50.5302 52.9264 50.3632C52.5686 49.7535 52.3986 49.0519 52.4378 48.346C52.441 48.2801 52.4654 48.2169 52.5071 48.1658C52.5489 48.1147 52.606 48.0783 52.6699 48.062C52.7339 48.0456 52.8014 48.0502 52.8626 48.075C52.9238 48.0998 52.9754 48.1436 53.0099 48.1999C53.1504 48.4217 53.2773 48.6518 53.39 48.889C53.4269 48.913 53.4571 48.9461 53.4777 48.985C54.0814 50.2246 54.7519 51.4306 55.4864 52.5975C55.6117 52.7938 57.1569 54.8986 56.9648 54.9487C56.9774 55.0448 58.2302 57.9306 56.6892 55.5793ZM55.7871 54.6898C55.7871 54.6898 55.7871 54.6898 55.7871 54.6689C55.7793 54.6778 55.7697 54.6849 55.7589 54.6898C55.7481 54.6947 55.7363 54.6972 55.7245 54.6972C55.7126 54.6972 55.7009 54.6947 55.6901 54.6898C55.6793 54.6849 55.6697 54.6778 55.6618 54.6689C55.6243 54.6959 55.5813 54.7144 55.5358 54.7231C55.4904 54.7317 55.4436 54.7303 55.3987 54.719C55.4021 54.7744 55.4273 54.8262 55.4688 54.863C55.5103 54.8998 55.5647 54.9186 55.6201 54.9153C55.6755 54.912 55.7273 54.8868 55.7641 54.8453C55.8009 54.8038 55.8197 54.7493 55.8164 54.694L55.7871 54.6898Z" fill="#FCBF81"/>
<path d="M56.5345 54.9069C56.1995 54.6506 55.9161 54.3332 55.6992 53.9715C55.6583 53.8956 55.6025 53.8287 55.5353 53.7748C55.468 53.7209 55.3905 53.6811 55.3075 53.6577C55.2246 53.6343 55.1377 53.6279 55.0522 53.6387C54.9667 53.6496 54.8842 53.6775 54.8097 53.7209C54.7856 53.5521 54.7731 53.3819 54.7721 53.2114C54.7721 52.3427 53.4065 52.3302 53.4232 53.2114C53.3924 53.8932 53.5749 54.5676 53.9452 55.1408C54.3539 55.6579 54.8517 56.0978 55.4152 56.4396C55.5146 56.4953 55.6262 56.5257 55.7401 56.528C55.854 56.5304 55.9668 56.5046 56.0683 56.453C56.1699 56.4014 56.2572 56.3255 56.3225 56.2321C56.3878 56.1388 56.429 56.0307 56.4426 55.9176L56.5011 55.8717C56.5668 55.8106 56.6199 55.7372 56.6572 55.6556C56.6944 55.574 56.7152 55.4859 56.7183 55.3962C56.7214 55.3066 56.7068 55.2172 56.6753 55.1332C56.6437 55.0493 56.5959 54.9724 56.5345 54.9069Z" fill="#FCBF81"/>
<path d="M64.002 58.1477C64.002 58.1477 60.0637 58.3356 59.0364 57.3918C58.009 56.448 56.5306 53.4786 56.5306 53.4786C56.5306 53.4786 53.8161 55.2243 53.6824 56.2266C53.5488 57.2289 56.5181 62.0734 57.8378 62.4117" fill="#B65959"/>
<path d="M45.4428 94.2724C45.0795 93.9007 44.8456 93.4914 44.9709 93.0863C45.1922 92.3597 46.1778 92.0673 46.8502 92.1049C47.5226 92.1425 48.2242 92.4849 48.9049 92.6896C49.6186 92.9457 50.3804 93.0399 51.135 92.9652C51.257 92.9489 51.3687 92.8879 51.4483 92.794C51.6577 92.744 51.8508 92.6409 52.0088 92.4946C52.1668 92.3483 52.2844 92.1637 52.3503 91.9587L54.5888 91.1611C54.5888 91.1611 55.1609 95.8844 55.1401 96.2143C54.973 98.7619 51.1684 97.3085 51.1684 97.3085C51.1684 97.3085 51.0348 96.1559 50.9972 96.0014C50.9596 95.8468 49.5021 96.2979 48.9091 96.206C48.6306 96.1285 48.3668 96.0057 48.1281 95.8427C47.6771 95.5963 47.2386 95.329 46.8001 95.0617C46.3616 94.7944 45.8938 94.5438 45.4428 94.2724Z" fill="#E55600"/>
<path d="M54.0294 71.8375C54.7978 71.4742 55.6039 71.5117 56.5352 71.5159C56.4057 73.4036 56.4767 74.0843 56.3598 75.972L56.3263 76.4731C55.9672 82.061 55.5579 87.6446 55.1236 93.2241C52.9519 94.1137 52.0707 93.7002 50.7218 92.322C50.4211 86.375 49.8615 80.094 50.0787 74.1762C51.3441 72.9358 52.4591 72.585 54.0294 71.8375Z" fill="#34323D"/>
<path d="M69.6824 70.4802C69.6824 70.6264 69.6532 71.1109 69.6323 71.6955C68.4128 73.3034 66.9177 74.2472 64.5748 74.1762C62.6788 74.122 61.096 73.2909 59.6093 72.2677C59.793 68.8306 60.3485 62.963 61.2171 58.8702C61.2923 58.5236 62.1902 58.2939 62.47 58.1478C63.0881 57.8095 62.7248 57.229 63.3303 56.8656C64.2083 56.3552 65.1226 55.91 66.0658 55.5334H66.0908C67.6026 55.5125 70.2044 56.6735 70.359 58.6948C70.597 61.8062 70.2545 63.6771 70.0123 66.7801C69.8996 68.033 69.7868 69.265 69.6824 70.4802Z" fill="#C96F6F"/>
<path d="M64.4234 49.649C64.2229 49.6992 62.5482 53.558 63.2039 55.9134C63.8596 58.2688 67.8396 55.8466 68.8419 54.0634C69.8442 52.2801 68.1862 48.6718 64.4234 49.649Z" fill="#FCBF81"/>
<path d="M64.4678 50.1878C64.4678 50.1878 64.4678 51.4615 65.5786 51.8583C66.6895 52.255 67.6167 52.5473 67.5582 53.061C67.4997 53.5747 65.5452 52.99 65.5369 54.1677C65.5357 54.9622 65.6425 55.7532 65.8543 56.519C65.9754 57.0953 69.3206 55.3246 70.4231 52.3051C71.5256 49.2857 68.7526 48.4838 68.6315 48.463C68.5104 48.4421 68.2473 47.6277 66.8942 47.327C65.5411 47.0263 65.161 47.5567 65.161 47.5567C64.8537 47.3714 64.4942 47.2919 64.1374 47.3304C63.7807 47.3688 63.4463 47.5231 63.1856 47.7697C61.9328 48.7595 62.2543 50.5678 63.6659 51.3028L64.4678 50.1878Z" fill="#34323D"/>
<path d="M63.7852 62.1486C63.7852 62.1486 59.6465 69.7076 57.3579 70.3591C55.716 70.7881 54.0387 71.0676 52.3464 71.1943C52.3464 71.1943 52.0624 69.1062 52.3464 68.1958C52.3464 68.1958 56.009 66.5462 56.3681 65.5564C56.7273 64.5666 59.8135 57.6215 63.3174 56.8865" fill="#C96F6F"/>
<path d="M59.9758 68.0246C60.2305 67.6988 63.0996 64.4497 63.0996 64.4497L59.65 71.5326L59.9758 68.0246Z" fill="#34323D"/>
<path d="M55.107 76.1933C56.182 77.6947 57.7057 78.8162 59.4587 79.3965C61.9185 80.1441 65.4976 79.7933 66.788 77.2207C69.1393 72.5391 66.93 66.684 69.4149 62.1319C69.7014 61.5565 70.1062 61.0482 70.6028 60.6401C71.0994 60.2321 71.6766 59.9335 72.2965 59.7639C73.9086 59.4131 75.0111 60.6201 75.5958 62.0442C76.644 64.5959 76.6064 67.7782 76.5521 70.4927C76.5499 72.6896 76.3908 74.8836 76.076 77.0578C76.076 77.0578 74.5726 86.1788 62.8373 83.7398C60.8061 83.3712 58.8555 82.6488 57.0741 81.6058C56.1589 81.0735 55.3594 80.3636 54.7228 79.5176C54.0296 78.4861 54.489 77.2457 55.107 76.1933Z" fill="#6A5B5B"/>
<path d="M0.66779 24.863V37.7049C0.6692 37.9 0.721383 38.0914 0.819213 38.2602C0.917043 38.429 1.05714 38.5694 1.22571 38.6676C1.39429 38.7658 1.58553 38.8184 1.78061 38.8202C1.9757 38.822 2.1679 38.773 2.33829 38.678L15.5436 31.0647C15.7148 30.9663 15.8571 30.8246 15.9561 30.6538C16.055 30.483 16.1072 30.2891 16.1074 30.0916V17.2413C16.106 17.0462 16.0538 16.8548 15.956 16.686C15.8582 16.5173 15.7181 16.3769 15.5495 16.2787C15.3809 16.1805 15.1897 16.1279 14.9946 16.126C14.7995 16.1242 14.6073 16.1732 14.4369 16.2682L1.24828 23.8815C1.07275 23.9784 0.926351 24.1205 0.824273 24.2931C0.722196 24.4657 0.668164 24.6624 0.66779 24.863Z" fill="#FFBFBF"/>
<path d="M16.1074 27.7445V33.6456L12.1107 31.357L16.1074 27.7445Z" fill="#8EA3FF"/>
<path d="M61.2677 25.8527V38.6905C61.2691 38.8856 61.3213 39.077 61.4191 39.2458C61.5169 39.4145 61.657 39.555 61.8256 39.6531C61.9942 39.7513 62.1854 39.8039 62.3805 39.8058C62.5756 39.8076 62.7678 39.7586 62.9382 39.6636L76.1393 32.0545C76.3105 31.9561 76.4528 31.8144 76.5518 31.6435C76.6507 31.4727 76.7029 31.2788 76.7031 31.0814V18.2394C76.7017 18.0443 76.6495 17.8529 76.5517 17.6842C76.4539 17.5154 76.3138 17.375 76.1452 17.2768C75.9766 17.1786 75.7854 17.126 75.5903 17.1241C75.3952 17.1223 75.203 17.1713 75.0326 17.2663L61.844 24.8796C61.6705 24.9764 61.5257 25.1174 61.4245 25.2884C61.3232 25.4593 61.2691 25.654 61.2677 25.8527Z" fill="#FFBFBF"/>
<path d="M64.4043 38.8284L58.7496 41.9438L61.577 35.3621" fill="#8EA3FF"/>
<path d="M13.4685 23.3553L3.69188 28.893C3.55063 28.952 3.39268 28.9571 3.24787 28.9076C3.10306 28.8581 2.9814 28.7572 2.90585 28.6241C2.8303 28.491 2.80609 28.3348 2.8378 28.1851C2.86951 28.0354 2.95495 27.9024 3.07797 27.8114L12.8337 22.2737C12.9767 22.1971 13.1439 22.179 13.2999 22.2231C13.456 22.2673 13.5889 22.3703 13.6706 22.5104C13.7523 22.6505 13.7765 22.8169 13.738 22.9745C13.6995 23.1321 13.6014 23.2686 13.4643 23.3553H13.4685Z" fill="#F2F2F2"/>
<path d="M13.7171 26.642L3.94052 32.1756C3.79752 32.2522 3.63039 32.2703 3.4743 32.2261C3.31821 32.182 3.18533 32.079 3.10363 31.9389C3.02192 31.7987 2.99777 31.6324 3.03624 31.4748C3.07472 31.3172 3.17282 31.1807 3.3099 31.0939L13.1032 25.5604C13.2462 25.4838 13.4134 25.4657 13.5695 25.5099C13.7255 25.554 13.8584 25.657 13.9401 25.7971C14.0218 25.9373 14.046 26.1036 14.0075 26.2612C13.969 26.4188 13.8709 26.5553 13.7339 26.642H13.7171Z" fill="#F2F2F2"/>
<path d="M74.5268 23.8064L63.8022 29.8745C63.6592 29.951 63.4921 29.9691 63.336 29.925C63.1799 29.8808 63.047 29.7779 62.9653 29.6377C62.8836 29.4976 62.8594 29.3312 62.8979 29.1736C62.9364 29.016 63.0345 28.8795 63.1716 28.7928L73.8962 22.7247C74.0392 22.6481 74.2063 22.63 74.3624 22.6742C74.5185 22.7183 74.6514 22.8213 74.7331 22.9614C74.8148 23.1016 74.839 23.2679 74.8005 23.4255C74.762 23.5831 74.6639 23.7196 74.5268 23.8064Z" fill="#F2F2F2"/>
<path d="M74.7964 27.4063L64.0717 33.4785C63.9287 33.5551 63.7616 33.5732 63.6055 33.5291C63.4494 33.4849 63.3165 33.382 63.2348 33.2418C63.1531 33.1017 63.129 32.9353 63.1674 32.7777C63.2059 32.6201 63.304 32.4836 63.4411 32.3969L74.1657 26.3246C74.3087 26.248 74.4759 26.2299 74.632 26.2741C74.788 26.3182 74.9209 26.4212 75.0026 26.5614C75.0843 26.7015 75.1085 26.8679 75.07 27.0254C75.0315 27.183 74.9334 27.3195 74.7964 27.4063Z" fill="#F2F2F2"/>
<defs>
<linearGradient id="paint0_linear" x1="58.4186" y1="93.6626" x2="74.1715" y2="103.072" gradientUnits="userSpaceOnUse">
<stop stop-color="#808080"/>
<stop offset="1" stop-color="white"/>
</linearGradient>
</defs>
</svg>
