<svg width="300" height="300" viewBox="0 0 94 97" fill="none" xmlns="http://www.w3.org/2000/svg">
<path d="M63.4772 95.3767L3.00886 59.3518C1.08442 58.2665 -0.5675 56.4724 1.30984 55.299L61.9935 20.027C62.9053 19.4572 64.288 19.0841 65.2133 19.6268L128.669 56.7777C130.594 57.9037 130.94 61.051 129.006 62.1804L71.4475 95.3191C70.2385 96.0261 68.8676 96.4033 67.4699 96.4134C66.0723 96.4236 64.6961 96.0662 63.4772 95.3767Z" fill="#8AC9FE"/>
<path d="M18.1701 58.5175C18.2351 58.4481 18.3159 58.3957 18.4056 58.3649C18.0617 56.9296 17.3519 55.6097 16.3466 54.5358L15.1589 54.6613L6.71094 59.0228L13.645 62.3703L17.1036 60.3354C17.3473 59.6695 17.7087 59.0536 18.1701 58.5175Z" fill="url(#paint0_linear)"/>
<path d="M45.2384 57.8527L33.2915 64.8393L26.3574 61.4919L34.8054 57.1236L42.1667 56.3401" fill="url(#paint1_linear)"/>
<path d="M93.0373 66.5555L81.0903 73.5386L74.1562 70.1946L82.6043 65.8263L89.969 65.0428" fill="url(#paint2_linear)"/>
<path d="M109.097 69.7469L97.3955 76.8793L90.4648 73.5318L98.9129 69.1636L106.274 68.3801" fill="url(#paint3_linear)"/>
<path d="M47.4651 77.1268L40.8574 81.8987L59.9672 93.2841L78.9155 81.5731" fill="url(#paint4_linear)"/>
<path d="M75.7726 30.9613C75.7726 30.9613 71.9944 32.0466 73.1046 38.9552L81.3844 33.6237C81.3844 33.6237 78.0335 30.3034 75.7726 30.9613Z" fill="#68E1FD"/>
<path opacity="0.39" d="M75.7726 30.9613C75.7726 30.9613 71.9944 32.0466 73.1046 38.9552L81.3844 33.6237C81.3844 33.6237 78.0335 30.3034 75.7726 30.9613Z" fill="#06489E"/>
<path d="M10.4025 51.1443C10.4025 51.1443 9.00294 60.7932 15.0286 60.8271C20.8188 60.8441 19.3283 51.0154 19.3283 51.0154C19.3283 51.0154 15.1161 47.322 10.4025 51.1443Z" fill="#68E1FD"/>
<path d="M14.849 52.9859C17.3091 52.9859 19.3035 52.1554 19.3035 51.1308C19.3035 50.1062 17.3091 49.2756 14.849 49.2756C12.3889 49.2756 10.3945 50.1062 10.3945 51.1308C10.3945 52.1554 12.3889 52.9859 14.849 52.9859Z" fill="#68E1FD"/>
<path opacity="0.7" d="M14.849 52.9859C17.3091 52.9859 19.3035 52.1554 19.3035 51.1308C19.3035 50.1062 17.3091 49.2756 14.849 49.2756C12.3889 49.2756 10.3945 50.1062 10.3945 51.1308C10.3945 52.1554 12.3889 52.9859 14.849 52.9859Z" fill="black"/>
<path d="M7.83287 37.0423C7.83287 37.0423 4.72753 36.2928 5.91853 33.6881C5.92189 33.6847 8.05829 34.112 7.83287 37.0423Z" fill="#938F05"/>
<path d="M9.72168 39.6674C9.72168 39.6674 9.29103 37.4425 11.0136 36.5607C11.0136 36.5607 12.3998 38.8772 9.72168 39.6674Z" fill="#938F05"/>
<path d="M11.6586 43.0792C11.6586 43.0792 11.1439 40.4169 13.2063 39.3486C13.2063 39.3452 14.8649 42.133 11.6586 43.0792Z" fill="#938F05"/>
<path d="M13.1567 46.7964C13.1567 46.7964 12.6419 44.134 14.7043 43.0657C14.7043 43.0589 16.3629 45.8501 13.1567 46.7964Z" fill="#938F05"/>
<path d="M9.53648 39.7284C9.53648 39.7284 8.43969 37.7478 6.5489 38.1853C6.54218 38.1819 6.97955 40.8646 9.53648 39.7284Z" fill="#938F05"/>
<path d="M11.4991 43.1607C11.4991 43.1607 10.0961 40.8442 7.85547 41.4649C7.85547 41.4547 8.49806 44.6428 11.4991 43.1607Z" fill="#938F05"/>
<path d="M12.9862 46.8303C12.9862 46.8303 11.341 44.6835 9.17773 45.5381C9.17773 45.5381 10.1635 48.6346 12.9862 46.8303Z" fill="#938F05"/>
<path d="M14.1488 53.0097H14.1926C14.338 53.0061 14.4834 53.0175 14.6266 53.0436C14.6281 53.0289 14.6281 53.0141 14.6266 52.9995C13.9458 47.0495 11.6266 41.4103 7.93141 36.7201C7.73964 36.476 7.39647 36.8219 7.59497 37.0593C11.2088 41.6542 13.4786 47.1747 14.1488 52.9995V53.0097Z" fill="#42352F"/>
<path d="M21.4926 41.3089C21.4926 41.3089 24.1572 40.6645 23.1344 38.4295C23.1311 38.4125 21.3008 38.7788 21.4926 41.3089Z" fill="#938F05"/>
<path d="M19.8741 43.5439C19.8741 43.5439 20.2442 41.6344 18.7639 40.8646C18.7639 40.8646 17.5762 42.8656 19.8741 43.5439Z" fill="#938F05"/>
<path d="M18.2164 46.4742C18.2164 46.4742 18.6571 44.1917 16.8874 43.2692C16.8874 43.2658 15.4642 45.6602 18.2164 46.4742Z" fill="#938F05"/>
<path d="M16.9292 49.6623C16.9292 49.6623 17.37 47.3797 15.6003 46.4572C15.6003 46.4538 14.1771 48.8483 16.9292 49.6623Z" fill="#938F05"/>
<path d="M20.0371 43.5948C20.0371 43.5948 20.9758 41.899 22.6008 42.2687C22.6008 42.2721 22.2307 44.5715 20.0371 43.5948Z" fill="#938F05"/>
<path d="M18.3535 46.5421C18.3535 46.5421 19.5546 44.5546 21.4791 45.0769C21.4791 45.0803 20.9273 47.8139 18.3535 46.5421Z" fill="#938F05"/>
<path d="M17.0703 49.6894C17.0703 49.6894 18.4834 47.8478 20.3372 48.5803C20.3304 48.5803 19.4927 51.2359 17.0703 49.6894Z" fill="#938F05"/>
<path d="M21.4132 41.007C18.6626 44.492 16.7923 48.598 15.9629 52.9723C16.1042 52.9486 16.2489 52.9282 16.3935 52.9147C17.2181 48.6735 19.0399 44.6935 21.7059 41.3089C21.8708 41.0952 21.5781 40.7967 21.4132 41.007Z" fill="#42352F"/>
<path d="M35.9107 13.2813L57.5673 0.885221C57.778 0.766089 58.0155 0.703522 58.257 0.703522C58.4986 0.703522 58.7361 0.766089 58.9467 0.885221L60.4271 1.66866L59.6734 1.89251C59.6879 1.97198 59.6957 2.05252 59.697 2.1333L60.1108 45.9485C60.1167 46.5629 59.9591 47.1676 59.6544 47.6997C59.3496 48.2318 58.9089 48.6718 58.3782 48.9738L36.634 61.3495C36.5903 61.3732 36.5454 61.3947 36.4995 61.4139L36.772 62.0922L35.4262 61.4139C35.3356 61.3776 35.2488 61.3321 35.1672 61.2782C34.9707 61.1486 34.8096 60.9714 34.6986 60.7629C34.5875 60.5544 34.53 60.3211 34.5313 60.0844V15.713C34.5286 15.2212 34.6547 14.7373 34.8969 14.3103C35.1391 13.8834 35.4888 13.5284 35.9107 13.2813Z" fill="#476870"/>
<path d="M59.763 49.6351L38.0189 61.9972C37.8019 62.1204 37.5568 62.1841 37.3079 62.1821C37.0589 62.1801 36.8148 62.1125 36.5998 61.986C36.3848 61.8595 36.2064 61.6784 36.0824 61.4608C35.9583 61.2433 35.8929 60.9967 35.8926 60.7458V16.3845C35.8929 15.8909 36.0228 15.4062 36.2692 14.9796C36.5157 14.5531 36.8698 14.2 37.2955 13.9562L58.9522 1.56012C59.1682 1.43672 59.4125 1.37231 59.6608 1.37326C59.9091 1.3742 60.1529 1.44047 60.368 1.56551C60.5831 1.69055 60.7621 1.87002 60.8873 2.08619C61.0125 2.30236 61.0796 2.54772 61.0819 2.79803L61.4957 46.6132C61.501 47.227 61.3431 47.8311 61.0384 48.3625C60.7337 48.8939 60.2933 49.3334 59.763 49.6351Z" fill="#9CCFDA"/>
<path d="M59.9693 47.0135L37.6465 59.7181V17.5003L59.5723 4.95505L59.9693 47.0135Z" fill="#D5FBF1"/>
<path d="M43.2397 57.2796C42.1295 50.4966 41.2211 43.0928 41.0764 41.4683C40.777 38.2972 43.0143 34.7666 43.0143 34.7666C43.0143 34.7666 50.6347 33.9492 52.5625 37.6596C53.4036 39.2774 54.0327 44.6801 54.4735 50.2625C50.8365 52.7757 46.9439 54.875 43.2397 57.2796Z" fill="#963626"/>
<path d="M49.9053 53.1792L48.8724 42.0753C48.8421 41.7362 49.3501 41.7362 49.3804 42.0753L50.3898 52.8876L49.9053 53.1792Z" fill="#663A12"/>
<path opacity="0.59" d="M47.5885 39.4605C49.3247 39.1342 50.9589 38.396 52.3559 37.3069L52.2852 37.1882C45.6372 37.1882 43.0264 34.7632 43.0264 34.7632C42.0266 36.3218 41.3788 38.0828 41.1289 39.9218C43.2927 40.0326 45.4618 39.8777 47.5885 39.4605Z" fill="#663A12"/>
<path d="M71.9475 25.4975C71.3843 25.3547 70.8105 25.2582 70.2317 25.2093C70.8203 25.2158 71.4071 25.2771 71.9845 25.3924C72.5868 25.4908 72.6574 24.5343 72.0552 24.436L71.7558 24.3885C71.8107 24.3203 71.8468 24.2387 71.8604 24.152C71.874 24.0652 71.8646 23.9764 71.8332 23.8944C71.8017 23.8125 71.7494 23.7404 71.6815 23.6854C71.6135 23.6304 71.5324 23.5945 71.4462 23.5813C70.1246 23.4178 68.7835 23.5415 67.5133 23.9442C67.5481 23.4605 67.539 22.9747 67.4863 22.4926C67.4779 22.4092 67.4452 22.3301 67.3921 22.2654C67.2777 21.855 66.5409 21.8652 66.4501 22.3943C66.3189 23.1642 66.3593 23.9476 66.228 24.7073C66.2027 24.8452 66.1679 24.9812 66.1238 25.1143C65.5428 25.7361 64.9698 26.3579 64.4045 26.9796C64.0042 27.4273 64.741 27.9564 65.1514 27.5596C65.2139 27.6539 65.3029 27.7271 65.4071 27.7699L65.3365 27.8648C65.2907 27.9255 65.2619 27.9975 65.253 28.0733C65.2441 28.149 65.2555 28.2257 65.286 28.2955L65.2187 28.3634C64.7847 28.7941 65.3937 29.5301 65.8311 29.0993L65.9824 28.9467C66.0282 28.9774 66.08 28.9977 66.1343 29.0064C66.1886 29.0152 66.2441 29.012 66.297 28.9972C66.35 28.9824 66.3992 28.9563 66.4413 28.9207C66.4833 28.8851 66.5173 28.8407 66.5409 28.7907C66.9103 28.1881 67.4151 27.6815 68.0145 27.312L68.1996 27.1831C68.7158 27.0066 69.2534 26.9017 69.7977 26.8711C70.2014 26.9729 70.6051 27.0983 71.0021 27.2103C71.1142 27.2451 71.2351 27.2368 71.3415 27.187C71.4479 27.1373 71.5322 27.0495 71.5782 26.9408C71.6242 26.8321 71.6286 26.71 71.5905 26.5982C71.5525 26.4863 71.4747 26.3927 71.3722 26.3352L71.6313 26.3929C72.2133 26.5523 72.543 25.6502 71.9475 25.4975Z" fill="#FFC388"/>
<path d="M71.8392 24.2631C71.2128 24.1776 70.5799 24.1492 69.9484 24.1783C69.7937 24.1783 69.7735 24.4293 69.9316 24.4225C70.5631 24.3934 71.1959 24.4218 71.8224 24.5073C71.9738 24.5276 71.994 24.2834 71.8392 24.2631Z" fill="#663A12"/>
<path d="M71.9241 25.233C71.2559 25.1329 70.581 25.0852 69.9055 25.0906C69.7507 25.0906 69.7305 25.3348 69.8886 25.3348C70.5642 25.3294 71.2391 25.377 71.9073 25.4772C72.0621 25.5009 72.0789 25.2568 71.9241 25.233Z" fill="#663A12"/>
<path d="M69.2465 25.5552C68.4727 25.2907 67.7224 25.5552 67.063 25.9724C66.9318 26.0571 67.0899 26.2437 67.2177 26.1589C67.4908 25.9486 67.8088 25.8054 68.1463 25.7407C68.4839 25.6759 68.8318 25.6914 69.1624 25.7858C69.1927 25.7971 69.2263 25.7957 69.2556 25.782C69.2849 25.7684 69.3077 25.7435 69.3188 25.7129C69.33 25.6823 69.3286 25.6485 69.3151 25.619C69.3015 25.5894 69.2768 25.5664 69.2465 25.5552Z" fill="#663A12"/>
<path d="M69.635 25.4976C69.5106 24.9447 69.2751 24.4055 68.7233 24.1749C68.5787 24.1138 68.4979 24.3444 68.6426 24.4055C69.1102 24.6022 69.2952 25.0838 69.3962 25.5417C69.4298 25.7078 69.6687 25.6502 69.635 25.4976Z" fill="#663A12"/>
<path d="M71.5809 26.125C71.0877 25.9046 70.5632 25.7638 70.0265 25.7078C69.8718 25.6909 69.8516 25.9351 70.0097 25.952C70.5248 26.009 71.0278 26.1475 71.5002 26.3624C71.6415 26.4201 71.7222 26.1894 71.5809 26.125Z" fill="#663A12"/>
<path d="M65.5811 25.2364C64.2784 26.1483 63.0302 27.1369 61.8432 28.1972L61.2006 24.2359L56.4434 25.7858C56.4434 25.7858 57.4527 32.0296 58.8758 33.6406C58.8758 33.6406 60.1678 35.4754 62.5767 34.1832C64.2824 33.2641 66.9773 29.9269 68.2692 27.936C68.0224 27.3281 67.6575 26.776 67.1958 26.3124C66.7341 25.8487 66.1851 25.4829 65.5811 25.2364Z" fill="#68E1FD"/>
<path opacity="0.39" d="M65.5811 25.2364C64.2784 26.1483 63.0302 27.1369 61.8432 28.1972L61.2006 24.2359L56.4434 25.7858C56.4434 25.7858 57.4527 32.0296 58.8758 33.6406C58.8758 33.6406 60.1678 35.4754 62.5767 34.1832C64.2824 33.2641 66.9773 29.9269 68.2692 27.936C68.0224 27.3281 67.6575 26.776 67.1958 26.3124C66.7341 25.8487 66.1851 25.4829 65.5811 25.2364Z" fill="#06489E"/>
<path d="M55.7992 20.5527C55.5469 20.4882 53.461 20.8444 51.6476 21.4379C49.8342 22.0314 41.9783 33.6101 43.0111 34.77C44.044 35.9299 48.8955 38.2361 51.8124 37.5985C54.7294 36.9609 61.5221 25.5382 61.2025 24.2393C60.4724 21.2649 58.1913 21.2547 58.1913 21.2547" fill="#68E1FD"/>
<path d="M61.2555 18.0464C61.2555 18.0464 60.9191 22.4282 59.2201 22.8793C57.5211 23.3304 56.1921 21.3904 55.8826 20.3594C55.5731 19.3284 56.0037 14.5158 58.813 15.4281C61.6223 16.3404 61.2555 18.0464 61.2555 18.0464Z" fill="#FFC388"/>
<path d="M61.0704 14.6176C59.8726 14.197 58.4899 13.2915 56.3602 14.7091C54.2306 16.1268 53.5711 20.0643 56.1146 21.014L56.5957 19.6031C56.3715 19.3147 56.2655 18.9505 56.2997 18.5856C56.3056 18.4663 56.3369 18.3496 56.3917 18.2435C56.4464 18.1375 56.5231 18.0446 56.6167 17.9712C56.7103 17.8978 56.8185 17.8456 56.9339 17.8182C57.0493 17.7908 57.1692 17.7888 57.2854 17.8124C57.5507 17.6136 57.7671 17.356 57.9179 17.0594C58.3486 16.2014 58.833 16.6253 59.4656 17.3986C60.0981 18.1719 61.4405 18.3923 62.1066 17.9073C62.7728 17.4223 62.5877 15.15 61.0704 14.6176Z" fill="#AF5912"/>
<path d="M57.2125 33.2947C57.2125 33.2947 54.6858 31.1716 54.6858 30.2423C54.6858 29.313 56.0013 22.5164 53.8279 21.9772C51.6545 21.4379 49.8915 26.5795 49.2725 29.6047C48.6534 32.6299 53.2257 35.8485 53.2257 35.8485" fill="#68E1FD"/>
<path d="M60.7632 33.5389L63.5052 32.5791C63.5052 32.5791 65.3792 31.1072 66.2505 31.7142C66.4827 31.877 64.4304 33.2709 64.4304 33.2709C64.4304 33.2709 68.0135 32.5621 68.1312 33.2913C68.3432 34.7089 66.9873 36.7473 65.4397 36.5777C63.7637 36.3581 62.1005 36.049 60.457 35.6518" fill="#FFC388"/>
<path d="M63.2365 32.4909C61.7124 32.0771 59.4482 32.3247 57.3286 32.189C54.6068 32.189 51.5149 31.9041 51.7336 34.831C51.9759 38.0869 60.8175 37.161 63.3475 36.8286C63.8252 35.4245 63.6873 33.9187 63.2365 32.4909Z" fill="#68E1FD"/>
<path opacity="0.39" d="M53.4205 36.5912C53.4205 36.5912 49.9956 35.4822 49.6322 32.5451C49.2689 29.6081 49.2117 27.1187 49.2117 27.1187C49.2117 27.1187 46.8398 32.83 47.7616 34.7055C48.6835 36.5811 53.4205 36.5912 53.4205 36.5912Z" fill="#06489E"/>
<path opacity="0.39" d="M57.3448 32.1721C57.3448 32.1721 54.5254 31.8329 54.697 30.2457C54.8686 28.6584 55.7871 26.3624 55.7871 26.3624C55.7871 26.3624 54.448 31.5039 57.3448 32.1721Z" fill="#06489E"/>
<path d="M45.3212 34.5767L51.4915 30.9884C51.6332 30.9055 51.7941 30.8618 51.958 30.8616C52.1219 30.8614 52.2829 30.9047 52.4248 30.9873C52.5668 31.0698 52.6846 31.1887 52.7665 31.3318C52.8483 31.4749 52.8913 31.6372 52.8911 31.8024V35.8383C52.8911 36.0022 52.8485 36.1633 52.7676 36.3055C52.6868 36.4477 52.5704 36.5661 52.4301 36.6489L46.2598 40.3117C46.1182 40.3962 45.9569 40.4413 45.7923 40.4425C45.6277 40.4438 45.4658 40.401 45.3229 40.3187C45.18 40.2363 45.0613 40.1173 44.9789 39.9737C44.8964 39.8301 44.8532 39.6671 44.8535 39.5012V35.394C44.853 35.2283 44.896 35.0654 44.9782 34.9219C45.0603 34.7783 45.1786 34.6592 45.3212 34.5767Z" fill="#00BBFF"/>
<path d="M48.293 34.1358C48.293 34.8141 48.293 36.7914 48.293 37.5545C48.2933 37.5818 48.3012 37.6086 48.3159 37.6316C48.3305 37.6547 48.3514 37.6731 48.3759 37.6848C48.4005 37.6965 48.4279 37.7009 48.4548 37.6977C48.4818 37.6944 48.5073 37.6836 48.5285 37.6664L51.0417 35.567C51.0598 35.5515 51.0739 35.5318 51.0827 35.5095C51.0914 35.4873 51.0946 35.4632 51.092 35.4394C51.0893 35.4156 51.0809 35.3928 51.0674 35.3731C51.0539 35.3533 51.0359 35.3372 51.0148 35.3262L48.5049 34.0069C48.4829 33.9952 48.4582 33.9895 48.4334 33.9902C48.4085 33.991 48.3842 33.9982 48.3629 34.0111C48.3416 34.0241 48.324 34.0424 48.3117 34.0642C48.2995 34.086 48.293 34.1107 48.293 34.1358Z" fill="white"/>
<path d="M39.2874 57.2491L58.5452 46.057C58.6032 46.0228 58.6454 45.9668 58.6624 45.9013C58.6794 45.8358 58.67 45.7662 58.6361 45.7077C58.6021 45.6492 58.5466 45.6067 58.4816 45.5896C58.4166 45.5724 58.3475 45.5819 58.2895 45.6161L39.0317 56.8082C38.9737 56.8424 38.9316 56.8984 38.9145 56.9639C38.8975 57.0294 38.907 57.0991 38.9409 57.1575C38.9748 57.216 39.0303 57.2585 39.0953 57.2757C39.1603 57.2928 39.2294 57.2833 39.2874 57.2491Z" fill="#B3B3B3"/>
<path d="M39.7628 57.0632C39.8685 56.6924 39.7283 56.3264 39.4497 56.2457C39.1711 56.165 38.8596 56.4002 38.7539 56.7711C38.6482 57.1419 38.7883 57.5079 39.0669 57.5886C39.3455 57.6693 39.6571 57.4341 39.7628 57.0632Z" fill="#3C6071"/>
<path d="M103.534 60.176C99.9539 62.7874 95.8695 64.7884 92.0947 67.0099C89.3695 68.6107 86.6612 70.2386 83.9427 71.8496C75.35 65.1106 79.9795 53.8982 80.0198 44.9005C80.0198 41.7871 79.9761 38.5346 79.1384 35.5161C78.8322 34.4139 78.4184 33.2506 77.6681 32.3688C77.3317 31.9855 74.9429 30.5102 74.334 30.8731L78.6034 28.6483C78.8591 28.4957 79.421 28.2515 79.6767 28.0989C81.1267 27.234 82.9906 26.342 84.4373 25.4772C86.2238 24.4089 87.3004 24.0121 89.0869 22.9471L91.1055 21.7329C91.6876 21.3938 92.3773 20.8172 93.1074 20.9834C93.76 21.1326 94.369 21.7058 94.7896 22.201C95.5398 23.0828 95.9536 24.2359 96.2598 25.3483C97.1009 28.3668 97.1547 31.6193 97.1413 34.7327C97.111 44.134 93.2049 53.7219 103.534 60.176Z" fill="#68E1FD"/>
<path d="M84.1241 38.4057C84.951 38.4057 85.6213 37.4795 85.6213 36.3369C85.6213 35.1943 84.951 34.2681 84.1241 34.2681C83.2973 34.2681 82.627 35.1943 82.627 36.3369C82.627 37.4795 83.2973 38.4057 84.1241 38.4057Z" fill="white"/>
<path d="M86.6154 34.2782L94.6563 29.5097C94.7526 29.4531 94.8227 29.3601 94.8511 29.2514C94.8795 29.1426 94.8639 29.0269 94.8077 28.9298C94.7515 28.8326 94.6593 28.762 94.5514 28.7334C94.4435 28.7047 94.3287 28.7205 94.2324 28.7772L86.1814 33.5457C86.085 33.6023 86.0149 33.6953 85.9865 33.804C85.9581 33.9128 85.9737 34.0285 86.03 34.1256C86.0862 34.2228 86.1784 34.2934 86.2863 34.322C86.3941 34.3507 86.5089 34.3349 86.6053 34.2782H86.6154Z" fill="#F2F2F2"/>
<path d="M87.2557 35.8587L92.3628 32.908C92.4591 32.8514 92.5292 32.7584 92.5576 32.6497C92.586 32.5409 92.5704 32.4252 92.5142 32.3281C92.458 32.2309 92.3658 32.1603 92.2579 32.1317C92.15 32.103 92.0352 32.1188 91.9389 32.1755L86.8317 35.1261C86.784 35.1542 86.7423 35.1914 86.7088 35.2358C86.6754 35.2801 86.651 35.3306 86.6369 35.3845C86.6228 35.4383 86.6194 35.4944 86.6269 35.5496C86.6343 35.6048 86.6525 35.658 86.6804 35.7061C86.7082 35.7542 86.7452 35.7963 86.7891 35.83C86.8331 35.8637 86.8832 35.8883 86.9366 35.9025C86.9901 35.9167 87.0457 35.9201 87.1005 35.9126C87.1552 35.905 87.2079 35.8867 87.2557 35.8587Z" fill="#F2F2F2"/>
<path d="M85.3756 45.6817C85.6023 44.5622 85.1294 43.5195 84.3193 43.3527C83.5091 43.186 82.6686 43.9583 82.4418 45.0778C82.2151 46.1973 82.688 47.24 83.4981 47.4068C84.3083 47.5735 85.1488 46.8012 85.3756 45.6817Z" fill="white"/>
<path d="M86.3819 43.8593L94.4328 39.0908C94.5192 39.0303 94.58 38.9392 94.603 38.8357C94.6261 38.7322 94.6098 38.6238 94.5574 38.5318C94.505 38.4397 94.4203 38.3709 94.32 38.3388C94.2197 38.3067 94.1111 38.3136 94.0157 38.3583L85.9411 43.1268C85.8448 43.1834 85.7747 43.2764 85.7463 43.3851C85.7179 43.4939 85.7335 43.6096 85.7897 43.7067C85.8459 43.8039 85.9381 43.8745 86.046 43.9031C86.1539 43.9318 86.2687 43.916 86.365 43.8593H86.3819Z" fill="#F2F2F2"/>
<path d="M87.0355 45.4398L92.1427 42.4891C92.239 42.4325 92.3091 42.3395 92.3375 42.2308C92.3659 42.122 92.3503 42.0063 92.2941 41.9092C92.2379 41.812 92.1457 41.7414 92.0378 41.7128C91.9299 41.6841 91.8151 41.6999 91.7188 41.7566L86.615 44.7004C86.5186 44.7571 86.4485 44.85 86.4201 44.9588C86.3917 45.0675 86.4073 45.1832 86.4636 45.2804C86.5198 45.3775 86.612 45.4482 86.7199 45.4768C86.8277 45.5054 86.9425 45.4897 87.0389 45.433L87.0355 45.4398Z" fill="#F2F2F2"/>
<path d="M84.3689 54.3826C84.688 53.2862 84.3034 52.2072 83.51 51.9726C82.7166 51.738 81.8148 52.4365 81.4957 53.5329C81.1766 54.6293 81.5612 55.7083 82.3546 55.9429C83.148 56.1776 84.0498 55.479 84.3689 54.3826Z" fill="white"/>
<path d="M85.3963 52.6976L93.4473 47.9291C93.5437 47.8725 93.6138 47.7795 93.6421 47.6708C93.6705 47.562 93.6549 47.4463 93.5987 47.3492C93.5425 47.252 93.4503 47.1814 93.3424 47.1528C93.2345 47.1242 93.1198 47.1399 93.0234 47.1966L84.9724 51.9651C84.876 52.0217 84.8059 52.1147 84.7775 52.2234C84.7491 52.3322 84.7648 52.4479 84.821 52.545C84.8772 52.6422 84.9694 52.7128 85.0773 52.7414C85.1852 52.7701 85.2999 52.7543 85.3963 52.6976Z" fill="#F2F2F2"/>
<path d="M85.5682 54.4578L90.6754 51.5072C90.7717 51.4505 90.8418 51.3576 90.8702 51.2488C90.8986 51.1401 90.883 51.0244 90.8268 50.9273C90.7989 50.8792 90.762 50.8371 90.718 50.8033C90.674 50.7696 90.6239 50.745 90.5705 50.7308C90.4626 50.7022 90.3478 50.718 90.2514 50.7746L85.1443 53.7253C85.0479 53.7819 84.9778 53.8749 84.9494 53.9836C84.921 54.0924 84.9366 54.2081 84.9929 54.3052C85.0491 54.4024 85.1413 54.473 85.2492 54.5016C85.357 54.5303 85.4718 54.5145 85.5682 54.4578Z" fill="#F2F2F2"/>
<path d="M83.8819 64.0389C84.7088 64.0389 85.3791 63.1127 85.3791 61.9701C85.3791 60.8275 84.7088 59.9013 83.8819 59.9013C83.0551 59.9013 82.3848 60.8275 82.3848 61.9701C82.3848 63.1127 83.0551 64.0389 83.8819 64.0389Z" fill="white"/>
<path d="M86.2791 60.3354L94.3301 55.5533C94.4265 55.4967 94.4965 55.4037 94.5249 55.295C94.5533 55.1862 94.5377 55.0705 94.4815 54.9734C94.4253 54.8762 94.3331 54.8056 94.2252 54.777C94.1173 54.7483 94.0025 54.7641 93.9062 54.8208L85.8552 59.5892C85.8066 59.6173 85.7639 59.6547 85.7297 59.6994C85.6954 59.7441 85.6702 59.7951 85.6555 59.8496C85.6259 59.9596 85.6408 60.077 85.697 60.176C85.7532 60.2749 85.8461 60.3473 85.9553 60.3772C86.0645 60.4071 86.1809 60.392 86.2791 60.3354Z" fill="#F2F2F2"/>
<path d="M86.9803 61.8107L92.0874 58.8601C92.1838 58.8034 92.2539 58.7105 92.2823 58.6017C92.3107 58.493 92.295 58.3773 92.2388 58.2801C92.1826 58.183 92.0904 58.1123 91.9825 58.0837C91.8746 58.0551 91.7599 58.0708 91.6635 58.1275L86.5564 61.0781C86.46 61.1348 86.3899 61.2278 86.3615 61.3365C86.3331 61.4453 86.3487 61.561 86.405 61.6581C86.4612 61.7552 86.5534 61.8259 86.6613 61.8545C86.7692 61.8831 86.8839 61.8674 86.9803 61.8107Z" fill="#F2F2F2"/>
<path d="M83.293 36.5031L83.6294 35.8689C83.6294 35.8689 84.3595 36.6794 84.3595 36.598C84.3595 36.5167 85.0324 33.41 85.0324 33.41L85.5841 33.8679L84.6825 37.5986L83.293 36.5031Z" fill="#4EB300"/>
<path d="M87.8205 45.3787C87.9013 45.338 88.1906 45.1549 88.2747 45.121L99.3032 30.3915C99.3032 30.3915 98.0651 29.9405 98.1223 29.4487L86.9794 44.0221C86.8852 44.2833 86.7809 44.5376 86.6699 44.7954L87.3832 45.6026C87.5171 45.5065 87.6645 45.431 87.8205 45.3787Z" fill="#7F252B"/>
<path d="M88.2728 45.1346C88.2728 45.1346 87.0818 44.9989 87.0145 43.9272L85.625 46.7794L88.2728 45.1346Z" fill="#E8CA9A"/>
<path d="M85.625 46.7795L86.3753 45.2295C86.4069 45.4036 86.4972 45.5614 86.6308 45.6763C86.7643 45.7912 86.9332 45.8562 87.1087 45.8603L85.625 46.7795Z" fill="#7F252B"/>
<path d="M84.3223 69.9605C79.8981 66.569 80.3893 60.9017 80.0293 59.4163C79.6693 57.9308 80.8772 50.9883 81.3751 45.806C81.6913 41.874 81.3847 37.9163 80.4667 34.0815C80.1976 33.1319 79.0705 31.3683 76.9139 30.5306C73.462 29.937 71.7529 33.0369 71.2617 36.2962C71.2819 37.0287 71.3458 37.5205 71.3458 37.5205L73.0953 38.9483C72.1163 31.6464 75.2418 31.5209 76.2848 31.5209C79.1008 31.5209 80.7796 37.6426 78.8148 52.9215C76.85 68.2003 83.9253 71.8496 83.9253 71.8496L99.7716 62.6314V60.8237L84.3223 69.9605Z" fill="white"/>
<path d="M78.7472 81.641C78.8111 81.641 79.3931 81.407 78.9019 81.0305C78.5799 80.7772 78.2428 80.5439 77.8926 80.3319" fill="#58E6CA"/>
<path d="M78.7534 78.5343C78.7534 78.5343 78.2655 80.359 78.7534 81.3323L72.1053 85.2699L65.5312 89.1057V86.2738" fill="#FFE8BC"/>
<path d="M78.9681 78.2494C78.9524 78.3761 78.9367 78.5027 78.921 78.6293L65.5273 86.2704V89.1023L78.9109 81.234C78.9109 81.3459 78.9109 81.4578 78.9109 81.5731L65.0059 89.6857V85.8193L78.9681 78.2494Z" fill="#58E6CA"/>
<path d="M78.8997 78.3003L65.0854 86.2704L45.7031 74.8002L59.2213 66.9997C59.4259 66.8806 59.6579 66.818 59.8942 66.818C60.1304 66.818 60.3625 66.8806 60.5671 66.9997L78.9031 77.9374C78.9361 77.9547 78.9638 77.981 78.983 78.0132C79.0022 78.0454 79.0122 78.0823 79.0119 78.1199C79.0115 78.1575 79.0009 78.1942 78.981 78.2261C78.9613 78.2579 78.9331 78.2836 78.8997 78.3003Z" fill="#58E6CA"/>
<path d="M65.011 89.6823C65.011 89.6823 45.6388 78.1816 45.6994 78.1273C45.7599 78.0731 45.6994 74.8002 45.6994 74.8002L65.0817 86.2704L65.011 89.6823Z" fill="#46D1B6"/>
<path d="M78.8976 77.9374C78.9526 77.9769 78.9989 78.0274 79.0336 78.0858C79.0683 78.1441 79.0908 78.2091 79.0995 78.2766C79.123 78.514 78.8707 78.6157 78.7832 78.6802" fill="#58E6CA"/>
<path d="M76.9366 76.2756C77.0005 76.2756 77.5826 76.0416 77.0914 75.6651C76.7693 75.4118 76.4322 75.1785 76.082 74.9665" fill="#58E6CA"/>
<path d="M76.935 73.1689C76.935 73.1689 76.4472 74.9936 76.935 75.9669L70.2869 79.9045L63.7129 83.7404V80.9084" fill="#FFE8BC"/>
<path d="M77.1556 72.8875C77.1399 73.0141 77.1242 73.1407 77.1085 73.2673L63.7148 80.9084V83.7404L77.0984 75.872C77.0984 75.9839 77.0984 76.0958 77.0984 76.2112L63.1934 84.3237V80.4574L77.1556 72.8875Z" fill="#58E6CA"/>
<path d="M77.0886 72.9383L63.2743 80.9084L43.8887 69.4383L57.4068 61.6377C57.6114 61.5187 57.8435 61.456 58.0797 61.456C58.3159 61.456 58.548 61.5187 58.7526 61.6377L77.0919 72.5958C77.1202 72.6145 77.1434 72.64 77.1594 72.6701C77.1753 72.7002 77.1835 72.7339 77.1831 72.768C77.1828 72.8021 77.174 72.8356 77.1574 72.8653C77.1409 72.8951 77.1172 72.9202 77.0886 72.9383Z" fill="#58E6CA"/>
<path d="M63.2024 84.3203C63.2024 84.3203 43.8302 72.8196 43.8908 72.7654C43.9513 72.7111 43.8908 69.4383 43.8908 69.4383L63.2731 80.9084L63.2024 84.3203Z" fill="#46D1B6"/>
<path d="M77.0831 72.589C77.1381 72.6285 77.1844 72.679 77.2191 72.7374C77.2539 72.7957 77.2763 72.8607 77.285 72.9281C77.3086 73.1655 77.0562 73.2673 76.9688 73.3317" fill="#58E6CA"/>
<path d="M46.992 69.3365C46.1071 68.1834 44.6604 68.8345 44.2163 70.0148C43.7184 71.3375 44.1558 72.8535 45.5318 73.3622C46.1441 73.5861 46.4066 72.6059 45.801 72.3821C45.1079 72.1277 44.9296 71.3646 45.0642 70.6863C45.1886 70.0792 45.7168 69.3297 46.2753 70.0487C46.6757 70.5744 47.3856 69.8486 46.992 69.3365Z" fill="#5F5CEA"/>
<path d="M49.906 71.1544C49.0212 70.0013 47.5745 70.6524 47.1304 71.8327C46.6325 73.1554 47.0698 74.6714 48.4459 75.1801C49.0582 75.404 49.3206 74.4238 48.715 74.2C48.022 73.9456 47.8436 73.1825 47.9782 72.5042C48.1027 71.8971 48.6309 71.1476 49.1894 71.8666C49.5898 72.3991 50.2996 71.6733 49.906 71.1544Z" fill="#5F5CEA"/>
<path d="M53.2283 73.0773C52.3435 71.9242 50.8968 72.5754 50.4527 73.7556C49.9547 75.0783 50.3921 76.5944 51.7681 77.1031C52.3805 77.3269 52.6429 76.3468 52.0373 76.1229C51.3442 75.8686 51.1659 75.1055 51.3005 74.4272C51.425 73.8201 51.9532 73.0706 52.5117 73.7896C52.912 74.3119 53.6219 73.5895 53.2283 73.0773Z" fill="#5F5CEA"/>
<path d="M56.3181 74.8172C55.4333 73.6641 53.9866 74.3153 53.5425 75.4955C53.0446 76.8182 53.4819 78.3342 54.858 78.8429C55.4703 79.0668 55.7327 78.0866 55.1271 77.8628C54.4341 77.6084 54.2557 76.8453 54.3903 76.167C54.5148 75.56 55.043 74.8104 55.6015 75.5294C55.9985 76.0517 56.7084 75.3293 56.3181 74.8172Z" fill="#5F5CEA"/>
<path d="M59.3377 76.3265C58.4528 75.1734 57.0061 75.8245 56.562 77.0048C56.0641 78.3275 56.5015 79.8435 57.8775 80.3522C58.4899 80.5761 58.7523 79.5959 58.1467 79.3721C57.4536 79.1177 57.2753 78.3546 57.4099 77.6763C57.5344 77.0692 58.0626 76.3197 58.6211 77.0387C59.0282 77.561 59.7313 76.8386 59.3377 76.3265Z" fill="#5F5CEA"/>
<path d="M62.4275 77.8492C61.5427 76.6961 60.096 77.3473 59.6519 78.5275C59.1539 79.8502 59.5913 81.3663 60.9674 81.875C61.5797 82.0988 61.8421 81.1187 61.2365 80.8948C60.5434 80.6405 60.3651 79.8774 60.4997 79.1991C60.6242 78.592 61.1524 77.8424 61.7109 78.5615C62.1113 79.0837 62.8212 78.3614 62.4275 77.8492Z" fill="#5F5CEA"/>
<defs>
<linearGradient id="paint0_linear" x1="11.2562" y1="60.6067" x2="15.0307" y2="55.3378" gradientUnits="userSpaceOnUse">
<stop stop-color="#FD5773"/>
<stop offset="1" stop-color="#9E005D"/>
</linearGradient>
<linearGradient id="paint1_linear" x1="1939.95" y1="1719.55" x2="1997.91" y2="1538.24" gradientUnits="userSpaceOnUse">
<stop stop-color="#FD5773"/>
<stop offset="1" stop-color="#9E005D"/>
</linearGradient>
<linearGradient id="paint2_linear" x1="4670.18" y1="1945.58" x2="4728.1" y2="1764.33" gradientUnits="userSpaceOnUse">
<stop stop-color="#FD5773"/>
<stop offset="1" stop-color="#9E005D"/>
</linearGradient>
<linearGradient id="paint3_linear" x1="5476.25" y1="1982.9" x2="5767.52" y2="1568.92" gradientUnits="userSpaceOnUse">
<stop stop-color="#FD5773"/>
<stop offset="1" stop-color="#9E005D"/>
</linearGradient>
<linearGradient id="paint4_linear" x1="6474.96" y1="4453" x2="6582.95" y2="4007.57" gradientUnits="userSpaceOnUse">
<stop stop-color="#FD5773"/>
<stop offset="1" stop-color="#9E005D"/>
</linearGradient>
</defs>
</svg>
