<svg width="300" height="300" viewBox="0 0 130 97" fill="none" xmlns="http://www.w3.org/2000/svg">
<path d="M101.478 33.643L100.29 32.6866C100.045 32.4865 99.7721 32.4051 99.6174 32.0863C99.4458 31.6963 99.4761 31.2486 99.2809 30.8653C99.2651 30.8209 99.239 30.7809 99.2046 30.7487C99.1703 30.7165 99.1288 30.6931 99.0836 30.6805C99.0384 30.6679 98.9909 30.6664 98.945 30.6761C98.8992 30.6858 98.8563 30.7065 98.82 30.7365C98.7612 30.8194 98.7226 30.9151 98.7074 31.0159C98.6922 31.1167 98.7008 31.2196 98.7325 31.3164C98.5189 31.1697 98.2642 31.096 98.0058 31.1061C97.8637 31.1364 97.7352 31.2123 97.6394 31.3223C97.5436 31.4323 97.4856 31.5707 97.4743 31.7166C97.4238 32.1168 97.73 32.4322 97.9621 32.7341C98.4997 33.4115 99.0916 34.0433 99.7318 34.6232C99.8428 34.7215 100.943 35.5626 100.913 35.6813L101.478 33.643Z" fill="#FFB5A9"/>
<path d="M100.912 32.9274L100.293 32.69L99.4824 34.4875L100.017 35.2472" fill="#E87256"/>
<path d="M63.0202 95.3418L2.55183 59.3169C0.627389 58.2316 -1.02453 56.4375 0.852804 55.2641L61.5365 19.9921C62.4482 19.4223 63.831 19.0493 64.7562 19.5919L128.212 56.7428C130.137 57.8688 130.483 61.0161 128.549 62.1455L70.9905 95.2842C69.7815 95.9912 68.4106 96.3684 67.0129 96.3785C65.6152 96.3887 64.2391 96.0313 63.0202 95.3418Z" fill="#90CAF9"/>
<path d="M17.713 58.4826C17.7781 58.4132 17.8589 58.3608 17.9485 58.33C17.6047 56.8947 16.8949 55.5748 15.8895 54.5009L14.7019 54.6264L6.25391 58.9879L13.1879 62.3354L16.6465 60.3005C16.8903 59.6346 17.2516 59.0187 17.713 58.4826Z" fill="url(#paint0_linear)"/>
<path d="M108.642 69.712L96.9404 76.8444L90.0098 73.4969L98.4578 69.1287L105.819 68.3452" fill="url(#paint1_linear)"/>
<path d="M75.3156 30.9264C75.3156 30.9264 71.5373 32.0117 72.6476 38.9203L80.9274 33.5888C80.9274 33.5888 77.5764 30.2685 75.3156 30.9264Z" fill="#68E1FD"/>
<path opacity="0.39" d="M75.3156 30.9264C75.3156 30.9264 71.5373 32.0117 72.6476 38.9203L80.9274 33.5888C80.9274 33.5888 77.5764 30.2685 75.3156 30.9264Z" fill="#06489E"/>
<path d="M9.9455 51.1094C9.9455 51.1094 8.54591 60.7583 14.5716 60.7922C20.3617 60.8092 18.8713 50.9805 18.8713 50.9805C18.8713 50.9805 14.659 47.2871 9.9455 51.1094Z" fill="#68E1FD"/>
<path d="M14.3939 52.951C16.8541 52.951 18.8484 52.1205 18.8484 51.0959C18.8484 50.0713 16.8541 49.2407 14.3939 49.2407C11.9338 49.2407 9.93945 50.0713 9.93945 51.0959C9.93945 52.1205 11.9338 52.951 14.3939 52.951Z" fill="#68E1FD"/>
<path opacity="0.7" d="M14.3939 52.951C16.8541 52.951 18.8484 52.1205 18.8484 51.0959C18.8484 50.0713 16.8541 49.2407 14.3939 49.2407C11.9338 49.2407 9.93945 50.0713 9.93945 51.0959C9.93945 52.1205 11.9338 52.951 14.3939 52.951Z" fill="black"/>
<path d="M7.37584 37.0074C7.37584 37.0074 4.2705 36.2579 5.4615 33.6532C5.46486 33.6498 7.60126 34.0771 7.37584 37.0074Z" fill="#938F05"/>
<path d="M9.26465 39.6325C9.26465 39.6325 8.834 37.4076 10.5566 36.5258C10.5566 36.5258 11.9427 38.8422 9.26465 39.6325Z" fill="#938F05"/>
<path d="M11.2016 43.0443C11.2016 43.0443 10.6868 40.382 12.7492 39.3137C12.7492 39.3103 14.4079 42.0981 11.2016 43.0443Z" fill="#938F05"/>
<path d="M12.6996 46.7615C12.6996 46.7615 12.1849 44.0991 14.2473 43.0308C14.2473 43.024 15.9059 45.8152 12.6996 46.7615Z" fill="#938F05"/>
<path d="M9.07945 39.6935C9.07945 39.6935 7.98266 37.7129 6.09187 38.1504C6.08514 38.147 6.52251 40.8297 9.07945 39.6935Z" fill="#938F05"/>
<path d="M11.0421 43.1258C11.0421 43.1258 9.63911 40.8093 7.39844 41.43C7.39844 41.4198 8.04103 44.6079 11.0421 43.1258Z" fill="#938F05"/>
<path d="M12.5292 46.7954C12.5292 46.7954 10.884 44.6485 8.7207 45.5032C8.7207 45.5032 9.70647 48.5997 12.5292 46.7954Z" fill="#938F05"/>
<path d="M13.6918 52.9748H13.7355C13.881 52.9712 14.0264 52.9826 14.1695 53.0087C14.171 52.994 14.171 52.9793 14.1695 52.9646C13.4888 47.0146 11.1696 41.3754 7.47438 36.6852C7.28261 36.4411 6.93944 36.787 7.13794 37.0244C10.7517 41.6193 13.0215 47.1398 13.6918 52.9646V52.9748Z" fill="#42352F"/>
<path d="M21.0356 41.274C21.0356 41.274 23.7002 40.6296 22.6774 38.3946C22.674 38.3776 20.8438 38.7439 21.0356 41.274Z" fill="#938F05"/>
<path d="M19.419 43.509C19.419 43.509 19.7891 41.5995 18.3088 40.8297C18.3088 40.8297 17.1211 42.8307 19.419 43.509Z" fill="#938F05"/>
<path d="M17.7593 46.4393C17.7593 46.4393 18.2001 44.1568 16.4304 43.2343C16.4304 43.2309 15.0072 45.6253 17.7593 46.4393Z" fill="#938F05"/>
<path d="M16.4742 49.6273C16.4742 49.6273 16.9149 47.3448 15.1452 46.4223C15.1452 46.4189 13.7221 48.8134 16.4742 49.6273Z" fill="#938F05"/>
<path d="M19.5801 43.5599C19.5801 43.5599 20.5188 41.8641 22.1438 42.2338C22.1438 42.2372 21.7737 44.5366 19.5801 43.5599Z" fill="#938F05"/>
<path d="M17.8965 46.5071C17.8965 46.5071 19.0976 44.5197 21.022 45.042C21.022 45.0454 20.4703 47.779 17.8965 46.5071Z" fill="#938F05"/>
<path d="M16.6152 49.6544C16.6152 49.6544 18.0283 47.8128 19.8821 48.5454C19.8753 48.5454 19.0376 51.201 16.6152 49.6544Z" fill="#938F05"/>
<path d="M20.9562 40.9721C18.2056 44.4571 16.3353 48.5631 15.5059 52.9374C15.6472 52.9137 15.7918 52.8933 15.9365 52.8798C16.7611 48.6385 18.5828 44.6586 21.2489 41.2739C21.4137 41.0603 21.121 40.7618 20.9562 40.9721Z" fill="#42352F"/>
<path d="M35.4537 13.2464L57.1103 0.850309C57.321 0.731177 57.5585 0.66861 57.8 0.66861C58.0416 0.66861 58.279 0.731177 58.4897 0.850309L59.97 1.63375L59.2164 1.85759C59.2308 1.93707 59.2387 2.01761 59.24 2.09839L59.6538 45.9136C59.6597 46.528 59.5021 47.1327 59.1973 47.6648C58.8926 48.1969 58.4519 48.6368 57.9211 48.9389L36.177 61.3146C36.1333 61.3383 36.0883 61.3598 36.0424 61.379L36.3149 62.0573L34.9692 61.379C34.8785 61.3427 34.7917 61.2972 34.7101 61.2433C34.5137 61.1137 34.3526 60.9365 34.2415 60.728C34.1305 60.5194 34.073 60.2862 34.0743 60.0495V15.6781C34.0716 15.1862 34.1977 14.7024 34.4399 14.2754C34.6821 13.8484 35.0318 13.4935 35.4537 13.2464Z" fill="#476870"/>
<path d="M59.306 49.6002L37.5618 61.9623C37.3449 62.0854 37.0998 62.1492 36.8508 62.1472C36.6019 62.1452 36.3578 62.0776 36.1428 61.9511C35.9278 61.8245 35.7494 61.6435 35.6253 61.4259C35.5013 61.2083 35.4358 60.9618 35.4355 60.7109V16.3496C35.4358 15.856 35.5658 15.3713 35.8122 14.9447C36.0586 14.5182 36.4127 14.1651 36.8385 13.9213L58.4952 1.52521C58.7112 1.40181 58.9555 1.3374 59.2038 1.33834C59.4521 1.33929 59.6958 1.40556 59.911 1.5306C60.1261 1.65563 60.3051 1.83511 60.4303 2.05128C60.5555 2.26744 60.6226 2.51281 60.6248 2.76311L61.0387 46.5783C61.044 47.1921 60.8861 47.7962 60.5813 48.3276C60.2766 48.859 59.8363 49.2985 59.306 49.6002Z" fill="#9CCFDA"/>
<path d="M59.5142 46.9785L37.1914 59.6832V17.4654L59.1172 4.92014L59.5142 46.9785Z" fill="#D5FBF1"/>
<path d="M42.7827 57.2447C41.6724 50.4616 40.764 43.0579 40.6194 41.4334C40.3199 38.2623 42.5573 34.7317 42.5573 34.7317C42.5573 34.7317 50.1776 33.9143 52.1054 37.6247C52.9465 39.2424 53.5757 44.6452 54.0164 50.2276C50.3795 52.7407 46.4869 54.8401 42.7827 57.2447Z" fill="#963626"/>
<path d="M49.4482 53.1443L48.4154 42.0405C48.3851 41.7013 48.8931 41.7013 48.9234 42.0405L49.9327 52.8527L49.4482 53.1443Z" fill="#663A12"/>
<path opacity="0.59" d="M47.1315 39.4256C48.8677 39.0993 50.5018 38.3611 51.8989 37.272L51.8282 37.1533C45.1802 37.1533 42.5694 34.7283 42.5694 34.7283C41.5695 36.2869 40.9217 38.048 40.6719 39.8869C42.8357 39.9977 45.0048 39.8428 47.1315 39.4256Z" fill="#663A12"/>
<path d="M71.4905 25.4626C70.9273 25.3197 70.3534 25.2233 69.7747 25.1743C70.3633 25.1809 70.9501 25.2422 71.5275 25.3575C72.1297 25.4558 72.2004 24.4994 71.5982 24.4011L71.2987 24.3536C71.3537 24.2854 71.3897 24.2038 71.4033 24.1171C71.4169 24.0303 71.4075 23.9415 71.3761 23.8595C71.3447 23.7776 71.2924 23.7055 71.2244 23.6505C71.1565 23.5955 71.0753 23.5596 70.9892 23.5464C69.6675 23.3828 68.3265 23.5066 67.0562 23.9093C67.091 23.4256 67.082 22.9398 67.0293 22.4577C67.0209 22.3743 66.9881 22.2952 66.9351 22.2305C66.8207 21.8201 66.0839 21.8303 65.9931 22.3594C65.8619 23.1293 65.9022 23.9127 65.771 24.6724C65.7457 24.8103 65.7108 24.9463 65.6667 25.0794C65.0858 25.7012 64.5127 26.3229 63.9475 26.9447C63.5471 27.3924 64.284 27.9215 64.6944 27.5247C64.7568 27.619 64.8459 27.6922 64.9501 27.7349L64.8795 27.8299C64.8337 27.8906 64.8049 27.9626 64.796 28.0383C64.7871 28.1141 64.7985 28.1908 64.829 28.2606L64.7617 28.3285C64.3277 28.7592 64.9366 29.4952 65.374 29.0644L65.5254 28.9118C65.5712 28.9425 65.623 28.9628 65.6773 28.9715C65.7315 28.9802 65.787 28.9771 65.84 28.9623C65.8929 28.9475 65.9421 28.9214 65.9842 28.8858C66.0263 28.8502 66.0603 28.8058 66.0839 28.7558C66.4532 28.1532 66.958 27.6466 67.5575 27.2771L67.7426 27.1482C68.2588 26.9717 68.7964 26.8668 69.3407 26.8362C69.7444 26.9379 70.1481 27.0634 70.5451 27.1753C70.6572 27.2102 70.7781 27.2019 70.8844 27.1521C70.9908 27.1024 71.0752 27.0146 71.1211 26.9059C71.1671 26.7971 71.1715 26.6751 71.1335 26.5632C71.0955 26.4514 71.0177 26.3578 70.9152 26.3003L71.1743 26.358C71.7563 26.5174 72.086 25.6152 71.4905 25.4626Z" fill="#FFC388"/>
<path d="M71.3822 24.2282C70.7557 24.1427 70.1229 24.1143 69.4914 24.1434C69.3366 24.1434 69.3164 24.3943 69.4746 24.3876C70.1061 24.3585 70.7389 24.3869 71.3654 24.4723C71.5168 24.4927 71.537 24.2485 71.3822 24.2282Z" fill="#663A12"/>
<path d="M71.4671 25.1981C70.7989 25.098 70.124 25.0503 69.4484 25.0557C69.2937 25.0557 69.2735 25.2999 69.4316 25.2999C70.1071 25.2945 70.7821 25.3421 71.4503 25.4423C71.605 25.466 71.6218 25.2219 71.4671 25.1981Z" fill="#663A12"/>
<path d="M68.7895 25.5203C68.0156 25.2558 67.2654 25.5203 66.6059 25.9374C66.4747 26.0222 66.6329 26.2088 66.7607 26.124C67.0338 25.9137 67.3517 25.7705 67.6893 25.7057C68.0269 25.641 68.3748 25.6564 68.7054 25.7509C68.7357 25.7622 68.7692 25.7608 68.7986 25.7471C68.8279 25.7334 68.8507 25.7086 68.8618 25.678C68.873 25.6474 68.8716 25.6136 68.858 25.584C68.8445 25.5545 68.8198 25.5315 68.7895 25.5203Z" fill="#663A12"/>
<path d="M69.178 25.4627C69.0535 24.9098 68.818 24.3706 68.2663 24.14C68.1216 24.0789 68.0409 24.3095 68.1856 24.3706C68.6532 24.5673 68.8382 25.0489 68.9391 25.5067C68.9728 25.6729 69.2116 25.6153 69.178 25.4627Z" fill="#663A12"/>
<path d="M71.1239 26.0901C70.6307 25.8697 70.1061 25.7289 69.5695 25.6729C69.4148 25.656 69.3946 25.9002 69.5527 25.9171C70.0678 25.9741 70.5708 26.1126 71.0432 26.3275C71.1845 26.3852 71.2652 26.1545 71.1239 26.0901Z" fill="#663A12"/>
<path d="M65.124 25.2015C63.8213 26.1134 62.5732 27.102 61.3862 28.1623L60.7436 24.201L55.9863 25.7509C55.9863 25.7509 56.9956 31.9947 58.4188 33.6057C58.4188 33.6057 59.7107 35.4405 62.1196 34.1483C63.8254 33.2292 66.5203 29.892 67.8122 27.9011C67.5654 27.2932 67.2004 26.7411 66.7388 26.2775C66.2771 25.8138 65.7281 25.448 65.124 25.2015Z" fill="#68E1FD"/>
<path opacity="0.39" d="M65.124 25.2015C63.8213 26.1134 62.5732 27.102 61.3862 28.1623L60.7436 24.201L55.9863 25.7509C55.9863 25.7509 56.9956 31.9947 58.4188 33.6057C58.4188 33.6057 59.7107 35.4405 62.1196 34.1483C63.8254 33.2292 66.5203 29.892 67.8122 27.9011C67.5654 27.2932 67.2004 26.7411 66.7388 26.2775C66.2771 25.8138 65.7281 25.448 65.124 25.2015Z" fill="#06489E"/>
<path d="M55.3422 20.5178C55.0899 20.4533 53.0039 20.8094 51.1905 21.403C49.3771 21.9965 41.5212 33.5752 42.5541 34.7351C43.587 35.895 48.4385 38.2012 51.3554 37.5636C54.2723 36.926 61.0651 25.5033 60.7454 24.2044C60.0154 21.23 57.7343 21.2198 57.7343 21.2198" fill="#68E1FD"/>
<path d="M60.7985 18.0115C60.7985 18.0115 60.4621 22.3933 58.763 22.8444C57.064 23.2954 55.7351 21.3555 55.4256 20.3245C55.116 19.2934 55.5467 14.4809 58.356 15.3932C61.1652 16.3055 60.7985 18.0115 60.7985 18.0115Z" fill="#FFC388"/>
<path d="M60.6133 14.5826C59.4156 14.1621 58.0329 13.2566 55.9032 14.6742C53.7735 16.0919 53.1141 20.0294 55.6576 20.9791L56.1387 19.5682C55.9144 19.2797 55.8085 18.9156 55.8426 18.5507C55.8485 18.4313 55.8799 18.3147 55.9346 18.2086C55.9893 18.1026 56.0661 18.0097 56.1597 17.9363C56.2532 17.8629 56.3614 17.8107 56.4768 17.7833C56.5922 17.7559 56.7122 17.7539 56.8284 17.7775C57.0937 17.5787 57.3101 17.3211 57.4609 17.0245C57.8915 16.1665 58.376 16.5904 59.0085 17.3637C59.641 18.137 60.9834 18.3574 61.6496 17.8724C62.3157 17.3874 62.1307 15.1151 60.6133 14.5826Z" fill="#AF5912"/>
<path d="M56.7555 33.2598C56.7555 33.2598 54.2288 31.1367 54.2288 30.2074C54.2288 29.2781 55.5443 22.4815 53.3709 21.9423C51.1974 21.403 49.4345 26.5446 48.8154 29.5698C48.1964 32.595 52.7686 35.8136 52.7686 35.8136" fill="#68E1FD"/>
<path d="M60.3062 33.504L63.0481 32.5442C63.0481 32.5442 64.9221 31.0723 65.7935 31.6793C66.0256 31.8421 63.9734 33.2361 63.9734 33.2361C63.9734 33.2361 67.5564 32.5272 67.6742 33.2564C67.8862 34.6741 66.5303 36.7124 64.9827 36.5428C63.3067 36.3232 61.6435 36.0141 60 35.6169" fill="#FFC388"/>
<path d="M62.7794 32.456C61.2554 32.0422 58.9911 32.2898 56.8716 32.1541C54.1498 32.1541 51.0579 31.8692 51.2766 34.7961C51.5188 38.052 60.3604 37.1261 62.8905 36.7937C63.3682 35.3896 63.2303 33.8838 62.7794 32.456Z" fill="#68E1FD"/>
<path opacity="0.39" d="M52.9635 36.5563C52.9635 36.5563 49.5385 35.4473 49.1752 32.5102C48.8118 29.5732 48.7546 27.0838 48.7546 27.0838C48.7546 27.0838 46.3827 32.7951 47.3046 34.6706C48.2264 36.5462 52.9635 36.5563 52.9635 36.5563Z" fill="#06489E"/>
<path opacity="0.39" d="M56.8878 32.1372C56.8878 32.1372 54.0684 31.798 54.2399 30.2108C54.4115 28.6235 55.33 26.3275 55.33 26.3275C55.33 26.3275 53.991 31.469 56.8878 32.1372Z" fill="#06489E"/>
<path d="M44.8641 34.5418L51.0344 30.9535C51.1762 30.8706 51.3371 30.8269 51.501 30.8267C51.6648 30.8265 51.8259 30.8699 51.9678 30.9524C52.1097 31.035 52.2276 31.1538 52.3094 31.2969C52.3913 31.44 52.4343 31.6023 52.434 31.7675V35.8034C52.434 35.9673 52.3915 36.1284 52.3106 36.2706C52.2298 36.4128 52.1134 36.5312 51.9731 36.614L45.8028 40.2769C45.6611 40.3613 45.4998 40.4064 45.3353 40.4076C45.1707 40.4089 45.0087 40.3661 44.8658 40.2838C44.723 40.2014 44.6043 40.0824 44.5218 39.9388C44.4394 39.7952 44.3961 39.6322 44.3965 39.4663V35.3591C44.396 35.1934 44.439 35.0305 44.5211 34.887C44.6033 34.7434 44.7216 34.6243 44.8641 34.5418Z" fill="#00BBFF"/>
<path d="M47.8379 34.1009C47.8379 34.7792 47.8379 36.7565 47.8379 37.5196C47.8382 37.5469 47.8461 37.5737 47.8608 37.5967C47.8755 37.6198 47.8963 37.6382 47.9209 37.6499C47.9454 37.6616 47.9728 37.666 47.9998 37.6628C48.0267 37.6595 48.0523 37.6487 48.0734 37.6315L50.5866 35.5321C50.6047 35.5166 50.6188 35.4969 50.6276 35.4746C50.6363 35.4524 50.6395 35.4283 50.6369 35.4045C50.6342 35.3807 50.6258 35.3579 50.6123 35.3382C50.5989 35.3184 50.5808 35.3023 50.5597 35.2913L48.0498 33.972C48.0278 33.9603 48.0032 33.9546 47.9783 33.9553C47.9534 33.9561 47.9291 33.9633 47.9078 33.9762C47.8865 33.9892 47.8689 34.0075 47.8566 34.0293C47.8444 34.0511 47.8379 34.0758 47.8379 34.1009Z" fill="white"/>
<path d="M38.8304 57.2142L58.0882 46.0221C58.1462 45.9879 58.1883 45.9319 58.2054 45.8664C58.2224 45.8009 58.2129 45.7313 58.179 45.6728C58.1451 45.6143 58.0896 45.5718 58.0246 45.5547C57.9596 45.5375 57.8905 45.547 57.8325 45.5812L38.5747 56.7733C38.5167 56.8075 38.4745 56.8635 38.4575 56.929C38.4405 56.9945 38.4499 57.0642 38.4838 57.1226C38.5178 57.1811 38.5733 57.2236 38.6383 57.2408C38.7033 57.2579 38.7724 57.2484 38.8304 57.2142Z" fill="#B3B3B3"/>
<path d="M39.3057 57.0283C39.4114 56.6575 39.2713 56.2914 38.9927 56.2108C38.7141 56.1301 38.4025 56.3653 38.2969 56.7361C38.1912 57.107 38.3313 57.473 38.6099 57.5537C38.8885 57.6344 39.2 57.3992 39.3057 57.0283Z" fill="#3C6071"/>
<path d="M103.077 60.1411C99.4969 62.7525 95.4125 64.7535 91.6376 66.975C88.9125 68.5758 86.2041 70.2037 83.4857 71.8147C74.893 65.0757 79.5224 53.8633 79.5628 44.8656C79.5628 41.7522 79.5191 38.4997 78.6813 35.4812C78.3752 34.379 77.9613 33.2157 77.2111 32.3339C76.8746 31.9506 74.4859 30.4753 73.877 30.8382L78.1464 28.6134C78.4021 28.4608 78.9639 28.2166 79.2196 28.064C80.6697 27.1991 82.5336 26.3071 83.9803 25.4423C85.7668 24.374 86.8434 23.9772 88.6299 22.9122L90.6485 21.698C91.2305 21.3589 91.9202 20.7823 92.6503 20.9485C93.303 21.0977 93.912 21.6709 94.3325 22.1661C95.0828 23.0479 95.4966 24.201 95.8028 25.3134C96.6439 28.3319 96.6977 31.5844 96.6842 34.6978C96.654 44.0991 92.7479 53.687 103.077 60.1411Z" fill="#68E1FD"/>
<path d="M83.669 38.3708C84.4959 38.3708 85.1662 37.4446 85.1662 36.302C85.1662 35.1594 84.4959 34.2332 83.669 34.2332C82.8422 34.2332 82.1719 35.1594 82.1719 36.302C82.1719 37.4446 82.8422 38.3708 83.669 38.3708Z" fill="white"/>
<path d="M86.1583 34.2433L94.1992 29.4748C94.2956 29.4182 94.3657 29.3252 94.3941 29.2165C94.4225 29.1077 94.4069 28.992 94.3506 28.8949C94.2944 28.7977 94.2022 28.7271 94.0943 28.6985C93.9865 28.6699 93.8717 28.6856 93.7753 28.7423L85.7243 33.5108C85.628 33.5674 85.5579 33.6604 85.5295 33.7691C85.5011 33.8779 85.5167 33.9936 85.5729 34.0907C85.6291 34.1879 85.7213 34.2585 85.8292 34.2871C85.9371 34.3158 86.0519 34.3 86.1482 34.2433H86.1583Z" fill="#F2F2F2"/>
<path d="M86.7986 35.8238L91.9058 32.8731C92.0021 32.8165 92.0722 32.7235 92.1006 32.6148C92.129 32.506 92.1134 32.3903 92.0572 32.2932C92.0009 32.196 91.9087 32.1254 91.8009 32.0968C91.693 32.0682 91.5782 32.0839 91.4818 32.1406L86.3747 35.0912C86.327 35.1193 86.2852 35.1565 86.2518 35.2009C86.2184 35.2452 86.1939 35.2957 86.1799 35.3496C86.1658 35.4034 86.1624 35.4595 86.1699 35.5147C86.1773 35.5699 86.1955 35.6231 86.2233 35.6712C86.2512 35.7193 86.2881 35.7614 86.3321 35.7951C86.3761 35.8288 86.4262 35.8534 86.4796 35.8676C86.533 35.8818 86.5887 35.8852 86.6434 35.8777C86.6982 35.8702 86.7509 35.8518 86.7986 35.8238Z" fill="#F2F2F2"/>
<path d="M84.9205 45.6468C85.1473 44.5273 84.6743 43.4846 83.8642 43.3178C83.054 43.1511 82.2135 43.9234 81.9867 45.0429C81.76 46.1624 82.2329 47.2051 83.0431 47.3719C83.8532 47.5386 84.6938 46.7663 84.9205 45.6468Z" fill="white"/>
<path d="M85.9248 43.8244L93.9758 39.0559C94.0622 38.9954 94.1229 38.9043 94.146 38.8008C94.1691 38.6973 94.1528 38.5888 94.1004 38.4968C94.048 38.4048 93.9633 38.336 93.863 38.3039C93.7627 38.2717 93.6541 38.2787 93.5586 38.3234L85.4841 43.0919C85.3877 43.1485 85.3176 43.2415 85.2892 43.3502C85.2608 43.459 85.2765 43.5747 85.3327 43.6718C85.3889 43.769 85.4811 43.8396 85.589 43.8682C85.6969 43.8969 85.8116 43.8811 85.908 43.8244H85.9248Z" fill="#F2F2F2"/>
<path d="M86.5785 45.4049L91.6856 42.4542C91.782 42.3976 91.8521 42.3046 91.8805 42.1959C91.9089 42.0871 91.8932 41.9714 91.837 41.8743C91.7808 41.7772 91.6886 41.7065 91.5807 41.6779C91.4728 41.6493 91.3581 41.665 91.2617 41.7217L86.1579 44.6655C86.0616 44.7222 85.9915 44.8151 85.9631 44.9239C85.9347 45.0326 85.9503 45.1483 86.0065 45.2455C86.0627 45.3426 86.1549 45.4133 86.2628 45.4419C86.3707 45.4705 86.4855 45.4548 86.5818 45.3981L86.5785 45.4049Z" fill="#F2F2F2"/>
<path d="M83.9119 54.3477C84.2309 53.2514 83.8464 52.1723 83.053 51.9377C82.2596 51.7031 81.3577 52.4016 81.0387 53.498C80.7196 54.5944 81.1041 55.6734 81.8975 55.908C82.691 56.1427 83.5928 55.4441 83.9119 54.3477Z" fill="white"/>
<path d="M84.9412 52.6627L92.9922 47.8942C93.0886 47.8376 93.1587 47.7446 93.1871 47.6359C93.2155 47.5271 93.1998 47.4114 93.1436 47.3143C93.0874 47.2172 92.9952 47.1465 92.8873 47.1179C92.7794 47.0893 92.6647 47.105 92.5683 47.1617L84.5173 51.9302C84.4209 51.9868 84.3508 52.0798 84.3224 52.1885C84.2941 52.2973 84.3097 52.413 84.3659 52.5101C84.4221 52.6073 84.5143 52.6779 84.6222 52.7065C84.7301 52.7352 84.8448 52.7194 84.9412 52.6627Z" fill="#F2F2F2"/>
<path d="M85.1111 54.4229L90.2183 51.4723C90.3147 51.4156 90.3848 51.3227 90.4132 51.2139C90.4416 51.1052 90.4259 50.9895 90.3697 50.8924C90.3419 50.8443 90.3049 50.8022 90.261 50.7685C90.217 50.7348 90.1668 50.7101 90.1134 50.6959C90.0055 50.6673 89.8908 50.6831 89.7944 50.7397L84.6872 53.6904C84.5909 53.747 84.5208 53.84 84.4924 53.9487C84.464 54.0575 84.4796 54.1732 84.5358 54.2703C84.592 54.3675 84.6842 54.4381 84.7921 54.4668C84.9 54.4954 85.0148 54.4796 85.1111 54.4229Z" fill="#F2F2F2"/>
<path d="M83.4249 64.004C84.2518 64.004 84.9221 63.0778 84.9221 61.9352C84.9221 60.7926 84.2518 59.8664 83.4249 59.8664C82.598 59.8664 81.9277 60.7926 81.9277 61.9352C81.9277 63.0778 82.598 64.004 83.4249 64.004Z" fill="white"/>
<path d="M85.822 60.3005L93.8731 55.5184C93.9694 55.4618 94.0395 55.3688 94.0679 55.2601C94.0963 55.1513 94.0807 55.0356 94.0245 54.9385C93.9682 54.8413 93.876 54.7707 93.7682 54.7421C93.6603 54.7134 93.5455 54.7292 93.4491 54.7859L85.3981 59.5543C85.3495 59.5824 85.3069 59.6198 85.2726 59.6645C85.2384 59.7092 85.2132 59.7602 85.1985 59.8147C85.1689 59.9247 85.1838 60.0421 85.24 60.1411C85.2962 60.24 85.3891 60.3124 85.4983 60.3423C85.6074 60.3722 85.7239 60.3571 85.822 60.3005Z" fill="#F2F2F2"/>
<path d="M86.5232 61.7758L91.6304 58.8252C91.7268 58.7685 91.7969 58.6756 91.8252 58.5668C91.8536 58.4581 91.838 58.3424 91.7818 58.2452C91.7256 58.1481 91.6334 58.0774 91.5255 58.0488C91.4176 58.0202 91.3029 58.0359 91.2065 58.0926L86.0993 61.0433C86.003 61.0999 85.9329 61.1929 85.9045 61.3016C85.8761 61.4104 85.8917 61.5261 85.9479 61.6232C86.0041 61.7204 86.0963 61.791 86.2042 61.8196C86.3121 61.8482 86.4269 61.8325 86.5232 61.7758Z" fill="#F2F2F2"/>
<path d="M82.8359 36.4682L83.1724 35.834C83.1724 35.834 83.9024 36.6445 83.9024 36.5631C83.9024 36.4817 84.5753 33.3751 84.5753 33.3751L85.1271 33.8329L84.2254 37.5636L82.8359 36.4682Z" fill="#4EB300"/>
<path d="M97.6634 29.4273C97.6634 29.4273 98.0671 29.2204 98.6054 29.658C99.1437 30.0955 98.8443 30.3702 98.8443 30.3702C98.8443 30.3702 97.549 30.221 97.6634 29.4273Z" fill="#AA4D56"/>
<path d="M87.3635 45.3438C87.4443 45.3031 87.7336 45.12 87.8177 45.0861L98.8462 30.3566C98.8462 30.3566 97.6081 29.9056 97.6653 29.4138L86.5224 43.9872C86.4282 44.2483 86.3239 44.5027 86.2129 44.7605L86.9261 45.5677C87.0601 45.4716 87.2075 45.3961 87.3635 45.3438Z" fill="#7F252B"/>
<path d="M87.8157 45.0997C87.8157 45.0997 86.6248 44.964 86.5575 43.8923L85.168 46.7445L87.8157 45.0997Z" fill="#E8CA9A"/>
<path d="M85.168 46.7445L85.9182 45.1946C85.9499 45.3687 86.0401 45.5265 86.1737 45.6414C86.3073 45.7563 86.4761 45.8213 86.6517 45.8254L85.168 46.7445Z" fill="#7F252B"/>
<path d="M105.485 39.2696C105.447 39.2408 105.417 39.2017 105.4 39.1569C105.383 39.1121 105.378 39.0633 105.387 39.016C105.396 38.9687 105.417 38.9249 105.449 38.8894C105.482 38.8539 105.523 38.8281 105.569 38.8151C106.424 38.5879 107.426 38.476 108.139 37.9232C109.653 36.7158 108.496 34.3214 107.665 33.0631C107.301 32.511 106.87 32.0064 106.383 31.5606C106.346 31.5267 105.767 31.0858 105.771 31.0689L103.12 39.8869L102.201 40.5652C103.238 40.7342 104.293 40.7615 105.337 40.6466C105.335 40.1834 105.385 39.7216 105.485 39.2696Z" fill="#E87256"/>
<path d="M106.218 69.444L107.318 68.8302L107.039 67.2463C107.039 67.2463 105.401 67.4024 105.256 67.9891" fill="#003B94"/>
<path d="M105.809 69.4237C105.56 69.2711 105.301 69.1354 105.049 68.9964C104.413 68.6572 103.494 68.2807 103.104 67.6397C103.026 67.5076 102.988 67.3548 102.997 67.2012C103.006 67.0475 103.061 66.9002 103.154 66.7783C103.733 66.0762 104.991 67.2294 105.637 66.4391C105.765 66.2831 105.822 63.8446 105.822 63.8446L108.275 64.5229C108.275 64.5229 108.692 69.4271 108.645 69.7323C108.598 70.0376 107.753 70.3258 107.753 70.3258C107.504 70.2756 107.264 70.1815 107.047 70.0477C106.791 69.8578 107.023 67.5583 106.711 67.8805C106.398 68.2027 106.239 69.461 106.239 69.461C106.095 69.4673 105.95 69.4547 105.809 69.4237Z" fill="#68E1FD"/>
<path d="M101.527 71.8147L102.627 71.2008L102.348 69.617C102.348 69.617 100.709 69.773 100.564 70.3597" fill="#003B94"/>
<path d="M101.114 71.7978C100.865 71.6452 100.606 71.5095 100.353 71.3705C99.7173 71.0313 98.7988 70.6548 98.4086 70.0138C98.3302 69.8817 98.2931 69.7289 98.3021 69.5753C98.3111 69.4216 98.3658 69.2743 98.459 69.1524C99.0377 68.4503 100.296 69.6035 100.942 68.8132C101.07 68.6572 101.127 66.2187 101.127 66.2187L103.58 66.897C103.58 66.897 103.997 71.8012 103.95 72.1064C103.903 72.4117 103.058 72.6999 103.058 72.6999C102.808 72.6497 102.569 72.5556 102.352 72.4218C102.096 72.2319 102.328 69.9324 102.015 70.2546C101.702 70.5768 101.544 71.8351 101.544 71.8351C101.4 71.8414 101.255 71.8288 101.114 71.7978Z" fill="#68E1FD"/>
<path d="M109.518 55.8576L110.228 65.6014C110.228 65.6014 109.08 67.2022 105.215 66.3103L105.178 59.7409" fill="#FFB000"/>
<path d="M105.046 57.7975C105.13 58.6386 105.046 67.8907 105.046 67.8907C105.046 67.8907 103.979 69.9053 99.3262 67.8907L99.3901 60.0291" fill="#FFB000"/>
<path d="M109.879 60.7753C109.563 60.9957 109.452 58.1706 109.122 58.3639C107.918 59.0695 106.639 59.6382 105.31 60.0597H105.28C105.218 60.0341 105.148 60.0336 105.086 60.0582C105.023 60.0828 104.972 60.1307 104.944 60.1919C104.122 60.4364 103.286 60.6279 102.44 60.7651C101.354 60.9415 100.455 60.1309 99.3418 60.0868C99.3418 55.7863 99.3216 43.5293 101.138 40.9416L106.521 39.1305C106.545 39.5782 109.132 42.5967 109.068 46.2765C108.998 50.4243 109.533 54.3381 109.623 55.6337C109.613 55.8372 109.869 60.5413 109.879 60.7753Z" fill="#FFB000"/>
<path d="M100.625 35.9798L101.123 40.9144C101.123 40.9144 105.133 41.0772 106.863 39.8732V35.6881" fill="#FF8F6F"/>
<path d="M95.0598 32.958L95.4702 33.5209C95.256 33.0639 95.0673 32.5951 94.905 32.1168C94.7906 31.7777 95.3121 31.659 95.4265 31.9846L95.4871 32.1508C95.4377 31.9767 95.3906 31.8014 95.3458 31.6251C95.332 31.5567 95.3449 31.4855 95.3817 31.4265C95.4186 31.3674 95.4767 31.3249 95.5438 31.3079C95.611 31.2909 95.6821 31.3006 95.7423 31.335C95.8025 31.3695 95.8473 31.426 95.8672 31.4928C95.9791 31.9516 96.1139 32.4043 96.271 32.8494C96.1824 32.457 96.1183 32.0595 96.0792 31.659C96.0455 31.3198 96.5838 31.3198 96.6141 31.659C96.6586 32.117 96.7396 32.5707 96.8564 33.0156C96.8564 32.8619 96.8709 32.707 96.9001 32.551C96.9041 32.5127 96.9161 32.4757 96.9352 32.4424C96.9544 32.4091 96.9802 32.3802 97.0111 32.3576C97.0111 32.2966 97.0448 32.2389 97.065 32.1779C97.0849 32.1169 97.1256 32.0649 97.1799 32.0313C97.2342 31.9977 97.2986 31.9846 97.3616 31.9944C97.4246 32.0042 97.4821 32.0361 97.5239 32.0847C97.5657 32.1332 97.589 32.195 97.5898 32.2593L97.6234 34.2942C97.7209 34.5047 97.8478 34.7 98.0003 34.8742C97.7416 35.058 97.4923 35.255 97.2534 35.4643C97.0398 35.6497 96.8366 35.8467 96.6444 36.0544C96.4717 35.8283 96.3057 35.6022 96.1465 35.3761C96.1272 35.3592 96.1103 35.3398 96.096 35.3185C95.616 34.604 95.1203 33.8997 94.609 33.2055C94.3869 32.9478 94.8579 32.6832 95.0598 32.958Z" fill="#FFB5A9"/>
<path d="M103.174 31.4792C103.174 31.4792 101.28 31.9948 100.513 33.2327C100.032 34.0826 99.6078 34.9641 99.2441 35.8713L97.8445 33.6804C97.8445 33.6804 96.1624 34.206 95.4727 35.037C95.4727 35.037 97.4913 39.4765 99.2441 39.8597C100.997 40.243 102.861 37.2279 102.861 37.2279C102.861 37.2279 103.248 38.476 103.17 37.1431" fill="#FF8F6F"/>
<path d="M107.863 37.0855C106.793 38.0385 104.23 37.991 102.857 37.2381C102.716 36.7463 102.359 30.5805 102.346 30.0548C102.322 29.2951 102.41 28.5354 102.46 27.7757C102.467 27.7433 102.467 27.7097 102.46 27.6773C102.712 26.8227 103.231 26.0969 104.253 26.0087C106.901 25.7815 107.049 28.7219 107.029 29.9361C107.012 30.6348 107.729 36.6344 107.863 37.0855Z" fill="#AF5912"/>
<path d="M105.002 44.9232C105.002 44.8733 105.021 44.8254 105.056 44.7901C105.091 44.7548 105.139 44.735 105.188 44.735C105.238 44.735 105.285 44.7548 105.32 44.7901C105.356 44.8254 105.375 44.8733 105.375 44.9232C105.297 52.2218 105.367 59.5181 105.587 66.8122C105.587 67.053 105.224 67.053 105.214 66.8122C104.987 59.5091 104.917 52.2128 105.002 44.9232Z" fill="#BA2F2F"/>
<path d="M83.8653 69.9256C79.4411 66.5341 79.9323 60.8668 79.5723 59.3813C79.2123 57.8958 80.4201 50.9534 80.9181 45.7711C81.2343 41.8391 80.9277 37.8814 80.0097 34.0466C79.7405 33.097 78.6135 31.3334 76.4569 30.4956C73.005 29.9021 71.2959 33.002 70.8047 36.2613C70.8249 36.9938 70.8888 37.4856 70.8888 37.4856L72.6383 38.9134C71.6592 31.6115 74.7848 31.486 75.8277 31.486C78.6437 31.486 80.3226 37.6077 78.3578 52.8866C76.393 68.1654 83.4683 71.8147 83.4683 71.8147L99.3146 62.5965V60.7888L83.8653 69.9256Z" fill="white"/>
<path d="M78.2901 81.6061C78.354 81.6061 78.9361 81.3721 78.4449 80.9956C78.1228 80.7423 77.7858 80.509 77.4355 80.297" fill="#58E6CA"/>
<path d="M78.2963 78.4994C78.2963 78.4994 77.8085 80.3241 78.2963 81.2974L71.6483 85.235L65.0742 89.0708V86.2389" fill="#FFE8BC"/>
<path d="M78.5111 78.2145C78.4954 78.3411 78.4797 78.4678 78.464 78.5944L65.0703 86.2355V89.0674L78.4539 81.1991C78.4539 81.311 78.4539 81.4229 78.4539 81.5382L64.5488 89.6508V85.7844L78.5111 78.2145Z" fill="#58E6CA"/>
<path d="M78.4427 78.2654L64.6284 86.2355L45.2461 74.7653L58.7643 66.9648C58.9688 66.8457 59.2009 66.7831 59.4371 66.7831C59.6734 66.7831 59.9054 66.8457 60.11 66.9648L78.446 77.9025C78.4791 77.9198 78.5068 77.946 78.526 77.9783C78.5452 78.0105 78.5552 78.0474 78.5548 78.085C78.5545 78.1226 78.5438 78.1593 78.524 78.1912C78.5042 78.223 78.4761 78.2487 78.4427 78.2654Z" fill="#FD5773"/>
<path d="M64.554 89.6474C64.554 89.6474 45.1818 78.1467 45.2423 78.0924C45.3029 78.0382 45.2423 74.7653 45.2423 74.7653L64.6246 86.2355L64.554 89.6474Z" fill="#DE4761"/>
<path d="M78.4406 77.9025C78.4955 77.942 78.5418 77.9925 78.5766 78.0509C78.6113 78.1092 78.6337 78.1742 78.6425 78.2417C78.666 78.4791 78.4137 78.5808 78.3262 78.6453" fill="#58E6CA"/>
<path d="M76.4796 76.2407C76.5435 76.2407 77.1255 76.0067 76.6343 75.6302C76.3123 75.3769 75.9752 75.1436 75.625 74.9316" fill="#58E6CA"/>
<path d="M76.478 73.134C76.478 73.134 75.9901 74.9587 76.478 75.932L69.8299 79.8696L63.2559 83.7054V80.8735" fill="#FFE8BC"/>
<path d="M76.6986 72.8525C76.6829 72.9792 76.6672 73.1058 76.6515 73.2324L63.2578 80.8735V83.7055L76.6414 75.8371C76.6414 75.949 76.6414 76.0609 76.6414 76.1763L62.7363 84.2888V80.4224L76.6986 72.8525Z" fill="#FD5773"/>
<path d="M76.6315 72.9034L62.8173 80.8735L43.4316 69.4034L56.9498 61.6028C57.1544 61.4838 57.3865 61.4211 57.6227 61.4211C57.8589 61.4211 58.091 61.4838 58.2956 61.6028L76.6349 72.5609C76.6632 72.5796 76.6864 72.6052 76.7023 72.6352C76.7183 72.6653 76.7264 72.699 76.7261 72.7331C76.7258 72.7672 76.7169 72.8007 76.7004 72.8304C76.6839 72.8602 76.6602 72.8853 76.6315 72.9034Z" fill="#FD5773"/>
<path d="M62.7454 84.2854C62.7454 84.2854 43.3732 72.7847 43.4337 72.7304C43.4943 72.6762 43.4337 69.4034 43.4337 69.4034L62.8161 80.8735L62.7454 84.2854Z" fill="#DE4761"/>
<path d="M76.6281 72.5541C76.683 72.5936 76.7293 72.6441 76.7641 72.7025C76.7988 72.7608 76.8212 72.8258 76.83 72.8932C76.8535 73.1306 76.6012 73.2324 76.5137 73.2968" fill="#58E6CA"/>
<defs>
<linearGradient id="paint0_linear" x1="10.7992" y1="60.5718" x2="14.5737" y2="55.3029" gradientUnits="userSpaceOnUse">
<stop stop-color="#FD5773"/>
<stop offset="1" stop-color="#9E005D"/>
</linearGradient>
<linearGradient id="paint1_linear" x1="5475.79" y1="1982.87" x2="5767.07" y2="1568.89" gradientUnits="userSpaceOnUse">
<stop stop-color="#FD5773"/>
<stop offset="1" stop-color="#9E005D"/>
</linearGradient>
</defs>
</svg>
