<svg width="300" height="300" viewBox="0 0 115 83" fill="none" xmlns="http://www.w3.org/2000/svg">
<path d="M55.8595 82.079L2.84993 50.4204C1.16278 49.4636 -0.285458 47.8929 1.3604 46.8587L54.5617 15.8618C55.361 15.361 56.5733 15.0332 57.3844 15.5101L113.031 48.1582C114.718 49.1477 115.022 51.9136 113.326 52.9061L62.8558 82.0283C61.7949 82.6513 60.5914 82.9837 59.3643 82.9926C58.1373 83.0015 56.9292 82.6866 55.8595 82.079Z" fill="#A0D1F9"/>
<path style="mix-blend-mode:multiply" d="M37.3555 42.9126L17.207 53.529L25.8168 59.5496L44.6586 47.0316C42.9744 45.9199 39.0574 43.9885 37.3555 42.9126Z" fill="url(#paint0_linear)"/>
<path d="M33.9694 34.4629C33.9694 34.4629 32.4475 47.3237 32.8486 47.729C33.2497 48.1344 38.8539 50.8019 39.0928 50.7095C39.3317 50.6171 45.9476 46.4236 45.9476 46.4236C45.9476 46.4236 40.7888 43.9975 40.4614 43.3507C40.134 42.7039 40.0691 34.1291 40.0691 34.1291" fill="#204A51"/>
<path d="M48.1862 1.31404C49.7111 0.488446 50.9942 1.48989 51.0502 3.55535L51.8259 31.6821C51.8613 32.9458 51.1328 34.3794 50.2007 34.8861L22.3421 49.9971C20.8172 50.8227 19.5341 49.8213 19.4781 47.7558L18.6964 19.4562C18.664 18.2878 19.3365 16.9615 20.2007 16.4936L48.1862 1.31404Z" fill="#68E1FD"/>
<path d="M94.2781 47.4161L83.5446 41.4551C83.3384 41.3408 83.1664 41.1726 83.0465 40.9682C82.9267 40.7637 82.8634 40.5304 82.8633 40.2927V20.4189C82.8649 20.1867 82.9268 19.9591 83.0428 19.7586C83.1587 19.5582 83.3248 19.392 83.5242 19.2768C83.7237 19.1615 83.9496 19.1012 84.1794 19.1018C84.4092 19.1024 84.6348 19.164 84.8336 19.2804L95.5671 25.5394C95.7672 25.6558 95.9333 25.8234 96.0488 26.0254C96.1643 26.2274 96.225 26.4566 96.2249 26.6898V46.2537C96.2251 46.4844 96.1657 46.7112 96.0526 46.9117C95.9395 47.1121 95.7766 47.2793 95.58 47.3967C95.3834 47.5141 95.1599 47.5776 94.9316 47.581C94.7033 47.5844 94.4781 47.5275 94.2781 47.4161Z" fill="#68E1FD"/>
<path d="M93.6286 33.5688V38.3375C93.6286 39.7205 91.502 39.7235 91.502 38.3375V33.5688C91.502 32.1858 93.6286 32.1829 93.6286 33.5688Z" fill="#56403D"/>
<path d="M90.736 28.6838V36.3645C90.736 37.7474 88.6094 37.7504 88.6094 36.3645V28.6838C88.6094 27.3038 90.736 27.3009 90.736 28.6838Z" fill="#FFA197"/>
<path d="M87.3141 23.1192V34.91C87.3141 36.2929 85.1875 36.2959 85.1875 34.91V23.1192C85.1875 21.7393 87.3141 21.7363 87.3141 23.1192Z" fill="#F2F2F2"/>
<path d="M89.9581 39.6609L92.5862 41.0557C92.9578 41.2524 92.6275 41.8247 92.2558 41.628L89.6278 40.2331C89.2561 40.0334 89.5865 39.4642 89.9581 39.6609Z" fill="#F2F2F2"/>
<path d="M85.3487 39.3122C87.793 40.6375 90.2627 41.9131 92.7581 43.1391C93.1356 43.3239 92.8052 43.8961 92.4277 43.7113C89.9324 42.4854 87.4626 41.2097 85.0184 39.8844C84.6468 39.6817 84.9771 39.1125 85.3487 39.3122Z" fill="#F2F2F2"/>
<path d="M78.5247 29.5034L67.7205 23.5097C67.5124 23.3947 67.3389 23.2253 67.218 23.0192C67.097 22.8131 67.0332 22.5779 67.0332 22.3383V2.3304C67.0332 2.09601 67.0942 1.86575 67.2102 1.66275C67.3262 1.45976 67.493 1.29119 67.6939 1.17399C67.8948 1.05679 68.1226 0.995089 68.3546 0.995087C68.5866 0.995084 68.8144 1.05678 69.0153 1.17398L79.8196 7.47768C80.0204 7.59488 80.1873 7.76345 80.3032 7.96644C80.4192 8.16944 80.4803 8.39971 80.4803 8.63411V28.335C80.4797 28.5666 80.4196 28.794 80.3059 28.9949C80.1921 29.1959 80.0286 29.3635 79.8314 29.4813C79.6342 29.5992 79.41 29.6632 79.1809 29.667C78.9518 29.6709 78.7257 29.6145 78.5247 29.5034Z" fill="#68E1FD"/>
<path d="M74.5098 10.3091C73.8668 9.6445 73.1766 9.2928 72.5277 9.2928C72.4058 9.29292 72.2842 9.30591 72.1649 9.33154C71.6659 9.45495 71.2292 9.75939 70.9379 10.1869C70.6525 9.78486 70.3432 9.40067 70.0117 9.03648C70.4925 8.46713 71.1438 8.07161 71.867 7.90986C73.1147 7.6446 74.4184 8.13638 75.5392 9.29578C75.8707 9.64372 76.1671 10.0241 76.4241 10.4313C76.0141 10.6817 75.6159 10.9499 75.2147 11.2182C75.01 10.8924 74.7739 10.5879 74.5098 10.3091Z" fill="#56403D"/>
<path d="M74.5039 20.553C75.1912 20.3444 75.7604 19.7066 76.1173 18.7349C76.549 17.4281 76.6123 16.0256 76.3002 14.6845C76.1254 13.8218 75.8158 12.9928 75.3829 12.2286C75.784 11.9603 76.1822 11.6951 76.5922 11.4417C77.1192 12.3537 77.4957 13.3462 77.7072 14.3805C78.0752 15.9911 77.9914 17.6735 77.4653 19.2386C76.9521 20.6305 76.076 21.5723 74.9729 21.9211C74.8284 21.4621 74.6779 21.0001 74.5039 20.553Z" fill="#FFA197"/>
<path d="M69.0505 11.4238C69.2304 10.9221 69.4829 10.45 69.7997 10.023C70.1376 10.4002 70.4519 10.7983 70.7406 11.2152C70.6056 11.4445 70.492 11.6859 70.4014 11.9365C69.9747 13.2426 69.9155 14.6428 70.2303 15.981C70.4826 17.3345 71.1025 18.5903 72.0207 19.6082C72.7286 20.3414 73.4955 20.6931 74.1975 20.6126C74.3774 21.0687 74.5308 21.5366 74.6753 22.0045C74.4552 22.0518 74.2308 22.0757 74.0058 22.076C72.9705 22.076 71.9234 21.5723 71.0031 20.6186C69.8949 19.4029 69.1442 17.8991 68.8352 16.276C68.4597 14.6698 68.5343 12.9897 69.0505 11.4238Z" fill="#F2F2F2"/>
<path d="M72.9095 16.7104C73.4017 16.6551 73.72 15.8781 73.6206 14.9751C73.5211 14.072 73.0415 13.3848 72.5494 13.4402C72.0572 13.4955 71.7388 14.2724 71.8383 15.1755C71.9377 16.0786 72.4173 16.7658 72.9095 16.7104Z" fill="#F2F2F2"/>
<path d="M68.9828 22.3652L75.7107 25.7778C75.7375 25.7913 75.7613 25.81 75.7809 25.8328C75.8004 25.8556 75.8154 25.8821 75.8248 25.9107C75.8343 25.9394 75.8381 25.9696 75.8359 25.9998C75.8338 26.0299 75.8259 26.0593 75.8125 26.0863C75.7991 26.1133 75.7806 26.1374 75.7581 26.1572C75.7355 26.1769 75.7093 26.192 75.6809 26.2016C75.6526 26.2111 75.6227 26.2149 75.5928 26.2128C75.563 26.2107 75.5339 26.2026 75.5072 26.1891L68.7793 22.7735C68.731 22.7433 68.6958 22.6959 68.6804 22.6407C68.665 22.5855 68.6706 22.5265 68.6961 22.4752C68.7217 22.424 68.7653 22.3843 68.8183 22.3639C68.8714 22.3436 68.93 22.344 68.9828 22.3652Z" fill="#F2F2F2"/>
<path d="M68.9816 21.3101L75.7096 24.7257C75.7636 24.753 75.8046 24.8008 75.8237 24.8586C75.8428 24.9165 75.8384 24.9796 75.8114 25.0342C75.7844 25.0887 75.7371 25.1302 75.6798 25.1495C75.6225 25.1688 75.5601 25.1643 75.5061 25.137L68.7781 21.7214C68.7241 21.6941 68.6831 21.6463 68.664 21.5884C68.6449 21.5306 68.6494 21.4674 68.6764 21.4129C68.7034 21.3584 68.7507 21.3169 68.8079 21.2976C68.8652 21.2783 68.9277 21.2828 68.9816 21.3101Z" fill="#F2F2F2"/>
<path style="mix-blend-mode:multiply" d="M105.459 48.4891L97.4097 53.4456C97.4097 53.4456 96.9142 54.7332 102.486 57.0997L110.874 51.8242" fill="url(#paint1_linear)"/>
<path d="M107.9 52.909C110.335 52.909 112.309 51.0556 112.309 48.7692C112.309 46.4828 110.335 44.6293 107.9 44.6293C105.464 44.6293 103.49 46.4828 103.49 48.7692C103.49 51.0556 105.464 52.909 107.9 52.909Z" fill="#68E1FD"/>
<path d="M107.896 48.1284C109.719 48.1284 111.197 47.3211 111.197 46.3252C111.197 45.3293 109.719 44.522 107.896 44.522C106.073 44.522 104.596 45.3293 104.596 46.3252C104.596 47.3211 106.073 48.1284 107.896 48.1284Z" fill="#1D3F75"/>
<path d="M107.729 31.7805V45.9318C107.747 45.9925 107.785 46.0457 107.835 46.0834C107.886 46.1211 107.947 46.1414 108.01 46.1414C108.073 46.1414 108.134 46.1211 108.185 46.0834C108.236 46.0457 108.273 45.9925 108.292 45.9318V31.7805C108.273 31.7198 108.236 31.6667 108.185 31.6289C108.134 31.5912 108.073 31.5709 108.01 31.5709C107.947 31.5709 107.886 31.5912 107.835 31.6289C107.785 31.6667 107.747 31.7198 107.729 31.7805Z" fill="#1C7377"/>
<path d="M109.051 31.2529C109.138 31.088 109.19 30.907 109.205 30.7209C109.219 30.5349 109.196 30.3477 109.137 30.171C109.007 29.7806 108.821 29.4051 108.668 29.0236C108.514 28.6421 108.373 28.3053 108.216 27.9565C108.051 28.04 106.868 29.8402 106.818 30.5943C106.768 31.3483 107.753 31.9832 107.753 31.9832L108.048 32.1739C108.101 32.2097 108.615 31.7805 108.674 31.7298C108.828 31.5967 108.957 31.4348 109.051 31.2529Z" fill="#1C7377"/>
<path d="M108.174 35.3749C109.421 35.2527 110.286 34.1827 110.873 33.0889C109.548 33.1574 108.33 34.0009 108.174 35.3749Z" fill="#1C7377"/>
<path d="M108.074 35.3272C107.697 34.1202 106.487 33.4883 105.299 33.1366C105.641 34.4301 106.712 35.4584 108.074 35.3272Z" fill="#1C7377"/>
<path d="M108.008 38.8502C109.598 38.6952 110.695 37.342 111.444 35.9412C109.754 36.0277 108.205 37.1006 108.008 38.8502Z" fill="#1C7377"/>
<path d="M107.883 38.7876C107.402 37.2497 105.863 36.4479 104.344 35.9979C104.786 37.6461 106.149 38.9515 107.883 38.7876Z" fill="#1C7377"/>
<path d="M108.129 42.9245C109.94 42.7457 111.191 41.2048 112.043 39.6072C110.123 39.7086 108.356 40.9306 108.129 42.9245Z" fill="#1C7377"/>
<path d="M107.983 42.8559C107.435 41.1034 105.683 40.1735 103.957 39.6787C104.444 41.5564 106.01 43.0467 107.983 42.8559Z" fill="#1C7377"/>
<path d="M35.6735 11.4951C35.7924 10.6776 35.5138 9.95914 35.0513 9.89045C34.5887 9.82177 34.1174 10.4288 33.9985 11.2464C33.8796 12.0639 34.1582 12.7824 34.6207 12.8511C35.0833 12.9197 35.5546 12.3127 35.6735 11.4951Z" fill="#124577"/>
<path d="M34.2236 28.1741C34.8136 27.8552 35.3091 28.2427 35.3327 29.0415L35.6276 39.9262C35.6334 40.1694 35.5789 40.4101 35.4692 40.6267C35.3595 40.8432 35.198 41.0286 34.9994 41.166L24.2187 46.9988C23.6288 47.3177 23.1333 46.9303 23.1097 46.1315L22.8147 35.1783C22.8102 34.9524 22.8618 34.729 22.9649 34.5285C23.068 34.328 23.2192 34.1569 23.4046 34.0308L34.2236 28.1741Z" fill="white"/>
<path d="M48.7129 20.41C49.3028 20.0911 49.7983 20.4785 49.8219 21.2773L50.1169 32.162C50.1226 32.4052 50.0682 32.646 49.9585 32.8625C49.8487 33.079 49.6872 33.2644 49.4886 33.4019L38.7109 39.2496C38.121 39.5685 37.6255 39.181 37.6019 38.3823L37.3069 27.429C37.3024 27.2031 37.354 26.9797 37.4571 26.7793C37.5601 26.5788 37.7113 26.4076 37.8968 26.2815L48.7129 20.41Z" fill="white"/>
<path d="M33.8955 13.9423C34.4854 13.6234 34.981 14.0109 35.0046 14.8097L35.2995 25.6943C35.3053 25.9375 35.2508 26.1783 35.1411 26.3948C35.0314 26.6114 34.8699 26.7968 34.6713 26.9342L23.8906 32.7849C23.3007 33.1038 22.8052 32.7163 22.7816 31.9176L22.4866 20.9643C22.4821 20.7385 22.5337 20.5151 22.6368 20.3146C22.7398 20.1141 22.891 19.943 23.0765 19.8168L33.8955 13.9423Z" fill="white"/>
<path d="M48.1054 6.46431C48.6953 6.1454 49.1908 6.53286 49.2144 7.33162L49.5094 18.2163C49.5151 18.4595 49.4607 18.7003 49.3509 18.9168C49.2412 19.1333 49.0797 19.3187 48.8811 19.4562L38.1152 25.3039C37.5253 25.6228 37.0298 25.2353 37.0062 24.4366L36.7112 13.4833C36.7067 13.2575 36.7583 13.0341 36.8614 12.8336C36.9644 12.6331 37.1156 12.462 37.3011 12.3358L48.1054 6.46431Z" fill="white" stroke="#FF9B48" stroke-width="1.015" stroke-miterlimit="10"/>
<path d="M39.3691 24.4932C41.0887 23.7213 42.8024 22.9285 44.4542 22.0135L39.8057 22.7974C39.903 23.1043 39.496 23.6975 39.3691 24.4932Z" fill="#204A51"/>
<path d="M48.6445 13.3582C48.6445 13.3582 49.0162 12.1988 48.9867 11.6981C48.9572 11.1973 48.6917 10.4671 48.9867 10.3151C49.2816 10.1631 49.668 11.2093 49.668 11.2093C49.668 11.2093 50.6001 9.24215 50.8774 9.36733C50.9648 9.4206 51.0376 9.49516 51.0891 9.5842C51.1406 9.67323 51.1692 9.7739 51.1723 9.87699C51.1723 9.87699 51.4673 9.38224 51.5852 9.57895C51.6457 9.77905 51.6457 9.99282 51.5852 10.1929C51.5852 10.1929 51.8625 10.2436 51.8802 10.4224C51.8979 10.6013 51.4909 11.3464 51.4909 11.3464C51.554 11.3569 51.612 11.3879 51.6561 11.4347C51.7003 11.4815 51.7282 11.5415 51.7357 11.6057C51.7534 11.8352 49.9836 13.6175 49.9836 13.6175" fill="#FBC76F"/>
<path d="M43.9766 13.0571C43.9766 13.0571 45.531 14.3566 46.1327 15.3521C46.7344 16.3476 48.7195 12.7233 48.7195 12.7233C48.7195 12.7233 50.0881 13.1793 50.5246 13.3641C50.9611 13.5489 48.3095 19.6827 46.4807 19.4741C44.652 19.2655 44.711 18.9019 44.711 18.9019" fill="#0096DF"/>
<path d="M39.8053 22.7973C41.0313 23.0273 42.295 22.9381 43.4775 22.538C43.8708 22.3393 44.264 22.1277 44.6573 21.9032C44.8815 19.3072 45.0496 16.7082 44.7723 14.1003C44.7698 14.0795 44.7698 14.0585 44.7723 14.0377C44.6063 13.646 44.3395 13.3064 43.9996 13.0542C43.1501 12.473 41.7608 12.7561 40.9379 13.1972C40.7405 13.3054 40.5555 13.4354 40.3863 13.5847C39.469 16.598 39.8495 19.7066 39.8053 22.7973Z" fill="#0096DF"/>
<path d="M43.0355 11.8292L41.5253 11.5103L41.3984 13.1943C41.3984 13.1943 42.537 14.3715 43.6608 14.2076L43.3422 12.8038C43.2038 12.4917 43.1009 12.1648 43.0355 11.8292Z" fill="#FCBB5B"/>
<path d="M43.0673 11.9782C42.5743 11.7561 42.0562 11.5959 41.5247 11.5013L41.4863 12.4253C41.4863 12.4253 42.616 13.2628 43.2856 12.6667C43.1946 12.4435 43.1216 12.2133 43.0673 11.9782Z" fill="#DB9231"/>
<path d="M44.1239 9.99025C44.1239 9.99025 45.1297 9.37329 44.9291 8.79805C44.7286 8.22282 43.9469 8.07976 43.9469 8.07976C43.9469 8.07976 43.8231 7.35848 43.242 7.27503C42.6609 7.19158 41.661 7.66845 41.661 7.66845C41.661 7.66845 40.7909 7.58798 40.4812 8.07976C40.1715 8.57154 40.2865 9.45376 40.2865 9.45376C40.2865 9.45376 41.0121 11.6742 41.3336 11.7308C41.6551 11.7875 42.4574 10.9708 42.4574 10.9708" fill="#204A51"/>
<path d="M44.1371 9.28985C44.1371 9.28985 44.373 12.2316 43.1372 12.4253C41.9013 12.619 41.3674 10.9112 41.3674 10.9112C41.3674 10.9112 40.6153 10.2049 41.0872 10.0469C41.5592 9.88893 41.627 10.1542 41.627 10.1542C41.627 10.1542 41.1669 9.09314 41.6506 9.09314C42.1343 9.09314 43.5295 9.89489 44.1371 9.28985Z" fill="#FBC76F"/>
<path d="M41.3977 12.7233C41.3977 12.7233 41.9876 13.2837 42.3769 13.3194L42.9668 13.6503L43.4624 14.1718V13.4386C43.4624 13.4386 43.3149 12.7859 43.3385 12.7919C43.3621 12.7978 43.8871 13.6175 43.8871 13.6175L44.3826 14.452L43.6629 14.3805L43.3503 14.914C43.3503 14.914 41.5599 14.1093 40.9316 13.1883L41.3977 12.7233Z" fill="white"/>
<path d="M51.0875 9.77264C50.765 10.325 50.4573 10.8863 50.1643 11.4566C50.1259 11.5311 50.2351 11.5937 50.2734 11.5222C50.5644 10.9519 50.8722 10.3906 51.1966 9.83821C51.2014 9.82398 51.2012 9.80852 51.1961 9.79441C51.1909 9.78031 51.1811 9.76842 51.1683 9.76074C51.1556 9.75305 51.1405 9.75004 51.1258 9.75221C51.1111 9.75438 51.0976 9.76159 51.0875 9.77264Z" fill="#204A51"/>
<path d="M51.4952 10.1601L50.6545 11.7159C50.6162 11.7875 50.7253 11.853 50.7637 11.7815L51.6043 10.2257C51.6486 10.1512 51.5365 10.0856 51.4952 10.1601Z" fill="#204A51"/>
<path d="M51.4332 11.3433C51.2663 11.5387 51.1191 11.7504 50.9937 11.9752C50.9889 11.9894 50.9891 12.0049 50.9942 12.019C50.9994 12.0331 51.0092 12.045 51.022 12.0527C51.0347 12.0604 51.0498 12.0634 51.0645 12.0612C51.0792 12.059 51.0927 12.0518 51.1028 12.0408C51.2228 11.8287 51.3631 11.629 51.5217 11.4447C51.5747 11.3702 51.4863 11.2808 51.4332 11.3433Z" fill="#204A51"/>
<path d="M49.7908 11.406C49.72 11.3672 49.6551 11.4775 49.7259 11.5163C49.9239 11.6402 50.0839 11.8173 50.1881 12.0278C50.2923 12.2384 50.3365 12.474 50.3158 12.7084C50.3158 12.7254 50.3225 12.7417 50.3344 12.7538C50.3463 12.7658 50.3624 12.7725 50.3792 12.7725C50.396 12.7725 50.4122 12.7658 50.4241 12.7538C50.4359 12.7417 50.4426 12.7254 50.4426 12.7084C50.4639 12.4517 50.4143 12.1939 50.2992 11.964C50.1841 11.734 50.0081 11.5408 49.7908 11.406Z" fill="#204A51"/>
<path d="M40.3764 13.5876C39.7488 13.9938 39.2397 14.5617 38.9016 15.2329C38.3855 16.3088 36.9461 21.1938 38.6362 21.8793C40.3263 22.5648 43.2611 20.9852 43.2611 20.9852L43.093 18.3862L40.5593 18.7528" fill="#0096DF"/>
<path d="M43.6429 16.3476C43.6223 16.431 42.8672 21.1879 42.8672 21.1879L45.8492 20.3802L46.4833 15.516L43.6429 16.3476Z" fill="#FF7F5C"/>
<path d="M42.4668 18.6843C42.4668 18.6843 42.9918 17.3222 43.2661 17.4057C43.5404 17.4891 43.4549 18.1836 43.4549 18.1836C43.4549 18.1836 44.8058 17.5159 45.1627 17.8229C45.5196 18.1299 44.6229 18.9108 44.3811 19.0747C44.1392 19.2387 42.5818 19.8258 42.5818 19.8258L42.4668 18.6843Z" fill="#FBC76F"/>
<path d="M39.8057 22.0582C40.6831 21.8579 41.5495 21.6111 42.4013 21.319C42.4013 21.319 42.6343 19.954 42.6461 19.9987C42.6579 20.0434 42.6137 21.7512 42.5075 21.8674C42.4013 21.9837 39.8027 22.7973 39.8027 22.7973L39.8057 22.0582Z" fill="#363942"/>
<path d="M28.3467 45.0466C29.8215 44.3164 31.2963 43.5265 32.6914 42.6622C32.8655 40.1377 32.7268 38.418 32.4525 37.9501C32.0956 37.3391 29.9189 36.8532 28.9278 37.1304C27.9368 37.4076 26.4531 38.57 26.4531 38.57C26.4531 38.57 26.813 42.0721 27.8099 44.1554C27.9638 44.4672 28.1434 44.7653 28.3467 45.0466Z" fill="#A5DD73"/>
<path d="M30.5041 37.4851C30.8522 37.5596 30.9171 36.591 30.7696 36.4926C30.0959 36.3914 29.411 36.3914 28.7373 36.4926C28.1858 36.74 28.7373 37.5656 28.7373 37.5656" fill="#A5DD73"/>
<path d="M28.2283 33.6403C28.5232 33.536 28.4436 33.0144 28.9834 32.6866C29.5231 32.3587 30.2576 32.5971 30.5407 32.7432C30.8239 32.8892 30.9507 32.4839 31.2693 32.7432C31.5878 33.0025 31.4817 33.4585 31.6645 33.5926H31.6911C31.779 33.7008 31.8381 33.8298 31.8629 33.9675C31.8876 34.1052 31.8772 34.247 31.8327 34.3795C31.7316 34.5705 31.6056 34.7469 31.4581 34.904L29.0719 36.6685C28.7268 36.4926 27.8065 34.4838 27.8035 34.2155C27.7965 34.0846 27.8352 33.9553 27.9128 33.8502C27.9904 33.7451 28.1021 33.6708 28.2283 33.6403Z" fill="#200904"/>
<path d="M31.1924 34.0009C31.3281 34.1112 31.3222 36.6834 30.576 36.9039C29.8297 37.1245 28.7797 36.2333 28.6528 35.9442C28.526 35.6551 28.3313 34.0278 28.6145 33.8281C28.8977 33.6284 30.3636 33.3363 31.1924 34.0009Z" fill="#F67770"/>
<path d="M30.7285 33.3273C30.7285 33.3273 30.9675 33.8906 30.0737 34.141C29.18 34.3914 29.1505 34.6059 29.0915 34.9457C28.9794 35.5806 28.4485 36.3853 27.9559 34.6C27.9323 34.5135 28.3984 33.1694 29.0886 32.9637C29.7788 32.7581 30.7285 33.3273 30.7285 33.3273Z" fill="#200904"/>
<path d="M29.0611 35.2826C29.0611 35.2826 28.7012 34.8295 28.5154 35.1007C28.3296 35.372 28.5744 35.8995 28.8988 36.0277" fill="#F67770"/>
<path d="M33.5123 42.1257C33.2899 41.4554 33.1338 40.7646 33.0463 40.0632C32.8575 38.5223 32.4564 37.9381 32.4564 37.9381L31.6836 40.5759C31.6924 41.411 31.8175 42.2408 32.0552 43.0407C32.5449 42.7466 33.0306 42.4416 33.5123 42.1257Z" fill="#A5DD73"/>
<path d="M28.873 44.7873L28.578 44.4893C28.578 44.4893 28.0618 37.5746 26.4573 38.5641C26.4573 38.5641 26.0266 38.6565 26.0856 40.2182C26.1446 41.78 26.5163 44.8082 27.2035 45.601C27.7679 45.3407 28.3243 45.0695 28.873 44.7873Z" fill="#A5DD73"/>
<path d="M32.3745 42.8261L32.2325 39.1274C32.2325 38.9903 32.0137 38.9903 32.0196 39.1274L32.1645 42.9245L32.3745 42.8261Z" fill="#75A542"/>
<path d="M29.054 44.6949L29.2428 44.5995C29.0607 43.9959 28.942 43.3745 28.8888 42.7457L28.5614 40.716C28.5408 40.5789 28.3343 40.6385 28.355 40.7726L28.7148 43.005C28.7686 43.5788 28.8823 44.1453 29.054 44.6949Z" fill="#75A542"/>
<path d="M55.7431 39.6817L51.2539 37.0201L58.1824 32.8802L62.5566 35.6342L55.7431 39.6817Z" fill="#5B434D"/>
<path d="M51.3667 36.9307L50.4258 31.7805L57.2245 27.9208L58.1802 32.8803L51.3667 36.9307Z" fill="#172D51"/>
<path style="mix-blend-mode:multiply" d="M51.2652 80.9763L66.5115 71.5281L62.1933 68.4583L46.543 79.0986C48.0679 79.8437 49.7049 80.3206 51.2652 80.9763Z" fill="url(#paint2_linear)"/>
<path d="M59.4518 69.555C59.4518 69.6146 58.272 72.3596 57.977 72.5355C57.6821 72.7113 56.8827 72.1689 56.6025 72.4729C56.3223 72.7769 55.9566 73.4207 56.5819 73.6919C57.2072 73.9631 59.0654 74.2165 59.4016 74.0675C59.7268 73.8882 60.034 73.6776 60.3189 73.4386C60.3189 73.4386 60.493 71.9662 60.6876 72.1689C60.8823 72.3716 60.8115 73.9572 60.9501 74.0049C61.1344 74.0114 61.3183 73.9841 61.4929 73.9244L61.3159 69.2808" fill="#FF6161"/>
<path d="M64.6106 67.0872C64.6106 67.1438 63.3217 69.8471 63.0474 70.0081C62.7731 70.169 61.9678 69.6027 61.6758 69.8978C61.3838 70.1929 60.9974 70.8217 61.6139 71.1168C62.2304 71.4119 64.0768 71.7308 64.4189 71.5937C64.7509 71.4262 65.066 71.2266 65.3598 70.9976C65.3598 70.9976 65.5869 69.5312 65.7728 69.7398C65.9586 69.9485 65.8347 71.5281 65.9704 71.5847C66.1543 71.5984 66.3392 71.5782 66.5161 71.5251V66.8786" fill="#FF6161"/>
<path d="M60.0724 44.3163C60.0724 44.3163 56.2733 63.9875 56.5889 68.5416C56.5889 68.5416 57.3411 71.5847 63.8685 70.5713C63.8685 70.5713 64.4318 68.2883 64.1811 64.4196C63.9304 60.551 63.2402 44.3163 63.2402 44.3163H60.0724Z" fill="#42210B"/>
<path d="M60.7578 67.5641L61.743 44.1078L65.6688 43.7203C65.6688 43.7203 67.3795 49.7647 67.002 52.6826C66.6245 55.6005 67.4415 59.4691 67.6303 61.4988C67.7984 63.3199 67.8662 66.4673 67.2439 67.8741C65.1379 68.491 62.8549 68.2854 60.7578 67.5641Z" fill="#42210B"/>
<path d="M64.1416 69.4626C64.445 67.9923 64.6646 66.5056 64.7993 65.0098C64.8545 64.2788 64.8594 63.5449 64.8141 62.8132C64.7473 62.0589 64.641 61.3088 64.4955 60.5659C64.2756 59.2348 64.2201 57.8812 64.3303 56.5363C64.4306 55.1534 64.64 53.7823 64.7728 52.4024C64.9654 50.8492 64.9146 49.2751 64.6223 47.7379C64.5781 47.5382 64.8819 47.4399 64.9173 47.6545C65.5249 50.4114 64.9409 53.2041 64.6843 55.9641C64.5271 57.3902 64.5539 58.8308 64.7639 60.25C64.8789 60.9444 65.0176 61.6329 65.0913 62.3363C65.1666 63.0859 65.1843 63.8402 65.1444 64.5925C65.0253 66.2619 64.7927 67.9209 64.4483 69.558C64.407 69.7458 64.1062 69.6504 64.1416 69.4626Z" fill="white"/>
<path d="M62.6447 33.8012C62.2731 33.9324 60.6597 33.9324 60.1405 35.372C59.774 36.447 59.4658 37.5415 59.2173 38.6505L55.3563 36.5463C55.3563 36.5463 55.1263 39.8248 55.5864 40.6444C56.0465 41.464 58.2941 43.303 60.1405 42.2509C60.1405 42.2509 59.9665 43.5235 60.1405 43.911C60.3146 44.2985 64.5649 44.7694 65.5382 43.5504C66.5116 42.3314 65.8332 36.5463 65.8332 36.5463" fill="#FF6161"/>
<path d="M55.4214 38.1706C55.4833 37.7027 55.501 37.2318 55.5482 36.7638C55.4163 36.6653 55.2948 36.5535 55.1854 36.43C55.0527 36.2929 54.9259 36.1528 54.802 36.0098C54.6781 35.8667 54.6398 35.7117 54.5542 35.5478L54.4569 35.357C54.336 35.1156 54.2268 34.7341 53.9378 34.6238C53.886 34.602 53.83 34.5921 53.774 34.5949C53.7179 34.5976 53.6632 34.613 53.6137 34.6398C53.5643 34.6667 53.5214 34.7043 53.4881 34.75C53.4549 34.7957 53.4322 34.8483 53.4216 34.904C53.3744 35.3272 54.1177 36.2244 53.2387 36.2005C53.0738 36.188 52.9081 36.188 52.7432 36.2005C52.407 36.2422 52.0973 36.4032 52.2211 36.7728C52.2385 36.8248 52.2633 36.874 52.2949 36.9188C52.2375 36.9359 52.1844 36.965 52.139 37.0043C52.0935 37.0435 52.0568 37.092 52.0312 37.1466C52.0056 37.2012 51.9917 37.2606 51.9903 37.321C51.989 37.3814 52.0003 37.4413 52.0235 37.497C52.0508 37.5612 52.0911 37.6188 52.142 37.666C52.1928 37.7133 52.2529 37.7491 52.3185 37.7712C52.2712 37.8256 52.2451 37.8955 52.2451 37.9679C52.2451 38.0403 52.2712 38.1103 52.3185 38.1646C52.3915 38.2602 52.4963 38.3258 52.6134 38.3494C52.6042 38.4128 52.6113 38.4774 52.6341 38.5372C52.7461 38.8353 53.1384 38.9276 53.4157 38.9724C54.039 39.05 54.6682 39.066 55.2946 39.02C55.3329 38.7458 55.383 38.4597 55.4214 38.1706Z" fill="#F7931E"/>
<path d="M60.397 29.2173C60.1551 29.3633 60.1669 33.0293 61.2523 33.4823C62.6681 34.0784 63.8067 32.463 63.9394 31.5987C64.0721 30.7343 63.1932 27.5125 60.397 29.2173Z" fill="#F7931E"/>
<path d="M67.8692 35.1216C67.668 34.9975 67.4959 34.8307 67.3648 34.6328C67.2916 34.3907 67.2626 34.1372 67.2793 33.8847C67.2439 33.2648 67.0757 32.609 66.4799 32.2693C66.0994 32.0517 65.5626 32.2424 65.247 31.9086C64.9314 31.5748 65.0052 30.9757 64.9521 30.5168C64.6955 28.1324 61.0262 27.6853 59.8434 29.6375C59.7487 29.79 59.6848 29.9599 59.6553 30.1374C59.6259 30.315 59.6314 30.4966 59.6717 30.672C59.712 30.8474 59.7863 31.0129 59.8901 31.1592C59.994 31.3054 60.1255 31.4295 60.277 31.5242C60.4559 31.6393 60.657 31.7145 60.8669 31.7447C61.1619 31.7924 61.4568 31.7835 61.6014 32.0994C61.796 32.5733 61.4362 33.0621 61.2592 33.4823C60.982 34.138 60.8964 35.0769 61.5542 35.5508C61.8893 35.7356 62.2519 35.8645 62.6278 35.9323C62.7854 35.9656 62.9305 36.0431 63.0466 36.1558C63.2266 36.3704 63.1115 36.6655 63.0732 36.9069C63.051 37.0351 63.051 37.1662 63.0732 37.2944C63.0519 37.4156 63.0589 37.5402 63.0938 37.6581C63.1286 37.7761 63.1902 37.8843 63.2738 37.9739C63.672 38.4389 64.4064 38.4567 64.9845 38.4269C65.6557 38.393 66.3152 38.2364 66.9312 37.965C67.471 37.7295 68.1405 37.3689 68.406 36.8383C68.754 36.2035 68.3824 35.5418 67.8692 35.1216Z" fill="#FCEE21"/>
<path opacity="0.7" d="M61.6179 38.3554C61.6088 39.1035 61.4884 39.846 61.261 40.558C61.067 41.2233 60.6235 41.7858 60.0252 42.1257C60.0031 42.1416 59.9879 42.1653 59.9825 42.1921C59.9772 42.2189 59.9822 42.2467 59.9965 42.2699C60.0108 42.2931 60.0334 42.3099 60.0595 42.3169C60.0857 42.3239 60.1135 42.3206 60.1372 42.3075C60.7356 41.9731 61.1913 41.4277 61.4174 40.7756C61.6904 39.9983 61.833 39.1803 61.8391 38.3554C61.8391 38.2243 61.6209 38.2243 61.6179 38.3554Z" fill="#124577"/>
<path d="M29.584 19.7513L29.6194 21.0269C29.6194 21.0269 28.5398 21.5157 27.9941 21.3667V19.2953" fill="#E5B79E"/>
<path d="M30.2812 17.3609C30.2812 17.3609 30.3166 19.4234 30.4316 19.8079C30.5466 20.1924 29.3255 20.0046 29.2812 19.4234" fill="#F7931E"/>
<path d="M30.2253 17.7454C30.246 17.811 30.2253 19.8884 29.5971 20.0881C28.606 20.4011 28.0073 19.5665 27.7064 18.9227C27.4056 18.279 27.5973 16.4072 28.6739 16.288C29.7505 16.1688 30.0336 17.1523 30.2253 17.7454Z" fill="#FFD9C0"/>
<path d="M30.2238 17.7455C30.3674 17.671 30.4846 17.5533 30.5591 17.4086C30.6336 17.2639 30.6617 17.0993 30.6397 16.9377C30.6049 16.5311 30.4206 16.1524 30.1229 15.8765C29.8253 15.6006 29.4361 15.4475 29.0321 15.4475C27.9968 15.4475 26.3392 16.1181 26.8141 17.7753C27.3184 19.5457 28.1237 19.6112 28.1237 19.6112C28.1237 19.6112 27.7373 18.6575 27.8287 18.1895C27.9202 17.7216 28.044 17.2567 28.044 17.2954C28.044 17.3342 28.0145 17.9243 28.0145 17.9243C28.2736 17.9462 28.5341 17.9462 28.7932 17.9243C28.8257 17.8796 29.0233 17.2239 29.0233 17.2239V17.9243L30.2238 17.7455Z" fill="#F7931E"/>
<path d="M27.9197 18.4041C27.9197 18.4041 27.7663 17.51 27.4832 17.7067C27.2 17.9034 27.2678 18.6008 27.8312 18.7945" fill="#FFD9C0"/>
<path d="M26.7471 16.9854C26.7471 16.9854 26.5347 19.6678 26.8238 20.1417C27.1128 20.6156 28.0331 20.8183 28.5935 20.6782C29.1539 20.5381 27.9063 19.0092 28.0242 18.3266C28.1422 17.6441 28.2926 16.9854 28.2926 16.9854" fill="#F7931E"/>
<path d="M32.6054 28.043C32.5287 27.7449 32.4639 27.4976 32.4314 27.3038C32.3179 26.2147 32.2608 25.1204 32.2603 24.0253C32.2367 23.2981 32.163 20.553 31.5318 20.2341C31.365 20.1385 31.1764 20.0883 30.9846 20.0883C30.7929 20.0883 30.6043 20.1385 30.4375 20.2341V22.1834C30.4375 22.1834 31.0127 26.1027 31.4669 28.7404C31.8533 28.5199 32.2338 28.2874 32.6054 28.043Z" fill="#FFE8D9"/>
<path d="M27.7335 21.1312L28.4916 20.9375C28.4968 20.9734 28.5121 21.0071 28.5356 21.0345C28.5591 21.062 28.5899 21.0821 28.6243 21.0925C28.8091 21.151 29.0079 21.1448 29.1888 21.0751C29.3697 21.0053 29.522 20.876 29.6212 20.708C29.6246 20.6863 29.6246 20.6642 29.6212 20.6424L30.1905 20.4964C30.1581 20.5799 31.1226 20.8243 31.0754 21.7124C31.0282 22.6006 31.0754 23.5454 30.4353 23.6736C30.0131 23.752 29.5844 23.7889 29.1552 23.7839L28.0049 22.9314L27.5684 21.8257L27.7335 21.1312Z" fill="#FFE8D9"/>
<path d="M26.5139 31.0443C26.4992 31.1158 26.4844 31.2052 26.4697 31.3066C28.2542 30.4422 30.0593 29.5958 31.7582 28.5705C31.5518 27.5959 31.4072 26.505 31.7582 25.6347C32.5753 23.5305 32.1771 23.6557 31.7582 22.2966C31.5901 21.7631 31.2509 20.258 31.13 20.0821C31.009 19.9063 29.611 20.0821 29.611 20.0821C29.7474 20.2134 29.8541 20.3731 29.9236 20.5501C29.9289 20.5736 29.9289 20.598 29.9236 20.6216H29.9413C29.9601 20.6327 29.9771 20.6468 29.9914 20.6633L30.0091 20.6812L30.0475 20.7408L30.1065 20.8243C30.1269 20.8039 30.1516 20.7886 30.1788 20.7793C30.206 20.7701 30.2349 20.7672 30.2633 20.771C30.2917 20.7747 30.3189 20.7849 30.3429 20.8009C30.3668 20.8168 30.3868 20.8381 30.4014 20.863C30.776 21.5515 30.9176 22.9493 30.0475 23.3398C29.7881 23.4327 29.5064 23.4413 29.2419 23.3644C28.9774 23.2874 28.7434 23.1287 28.5727 22.9106C28.3602 22.6384 28.1745 22.3459 28.0182 22.0373C27.829 21.7646 27.7261 21.4404 27.7232 21.1074C27.725 21.0699 27.7373 21.0338 27.7587 21.0031C27.7801 20.9725 27.8098 20.9487 27.8442 20.9345C27.8206 20.8839 27.794 20.8392 27.7704 20.7885C27.7701 20.7815 27.7701 20.7746 27.7704 20.7676C27.1274 21.0806 26.3871 21.5008 26.0921 22.0731C25.6202 22.9911 27.1038 25.0208 27.3309 26.5199C27.5581 28.0191 26.7233 30.0905 26.5139 31.0443Z" fill="#603813"/>
<path d="M29.589 20.0851C29.589 20.0851 30.5536 20.7706 30.4297 21.0686C30.3058 21.3667 30.0138 21.9151 30.0138 21.9151L29.2734 21.2087C29.2734 21.2087 29.1024 22.2608 28.9372 22.2608C28.2529 22.2608 27.6836 21.0418 27.6482 20.9375C27.6128 20.8332 28.1319 20.3682 28.1319 20.3682C28.1319 20.3682 28.6422 21.0686 29.1702 20.9494C29.6982 20.8302 29.589 20.0851 29.589 20.0851Z" fill="#F78B72"/>
<path d="M29.5038 21.8943C29.5571 21.8943 29.6082 21.9156 29.6459 21.9536C29.6837 21.9916 29.7048 22.0432 29.7048 22.0969C29.7048 22.1507 29.6837 22.2022 29.6459 22.2402C29.6082 22.2782 29.5571 22.2996 29.5038 22.2996C29.4505 22.2996 29.3993 22.2782 29.3616 22.2402C29.3239 22.2022 29.3027 22.1507 29.3027 22.0969C29.3027 22.0432 29.3239 21.9916 29.3616 21.9536C29.3993 21.9156 29.4505 21.8943 29.5038 21.8943Z" fill="#7896B5"/>
<path d="M29.6952 22.6185C29.7485 22.6185 29.7997 22.6398 29.8374 22.6778C29.8751 22.7158 29.8962 22.7674 29.8962 22.8211C29.8962 22.8749 29.8751 22.9264 29.8374 22.9645C29.7997 23.0025 29.7485 23.0238 29.6952 23.0238C29.6419 23.0238 29.5907 23.0025 29.553 22.9645C29.5153 22.9264 29.4941 22.8749 29.4941 22.8211C29.4941 22.7674 29.5153 22.7158 29.553 22.6778C29.5907 22.6398 29.6419 22.6185 29.6952 22.6185Z" fill="#7896B5"/>
<path d="M29.3119 29.7418C29.3325 29.7866 29.3591 29.8342 29.3827 29.879C29.8752 29.6286 30.3649 29.3693 30.8574 29.101C30.4327 28.505 29.9726 27.9089 29.7336 27.5303C29.2234 26.7196 27.374 21.6826 26.2827 21.5843C26.0622 21.6887 25.8749 21.8529 25.7415 22.0587C25.6082 22.2645 25.5341 22.5038 25.5276 22.7497C25.4804 23.5484 26.2089 24.9999 26.8903 26.0073C27.5716 27.0147 28.9373 28.9788 29.3119 29.7418Z" fill="#FFE8D9"/>
<path d="M40.9506 38.2601C40.9506 38.2601 40.6321 32.6776 41.7411 31.6583C42.8501 30.639 45.9737 29.0564 46.5783 29.8224C47.183 30.5883 47.0739 34.8623 47.0739 34.8623" fill="#FF6161"/>
<path d="M43.1816 29.2322L43.2996 30.785C43.5338 30.8234 43.7739 30.7997 43.9962 30.7161C44.2186 30.6325 44.4156 30.4919 44.568 30.3081" fill="#EDAF00"/>
<path d="M45.4855 26.9342C45.5179 27.0445 45.8453 30.177 44.5623 30.3171C43.2792 30.4572 43.3028 28.2069 43.2969 27.5214C43.291 26.8359 45.1404 25.754 45.4855 26.9342Z" fill="#FFC40C"/>
<path d="M45.1863 27.1518C45.1863 27.1518 45.9649 26.8776 45.9384 26.2934C45.9118 25.7092 45.67 25.1012 45.0122 25.3575C45.0122 25.3575 43.9917 25.0595 43.3693 25.3307C42.747 25.6019 42.9092 26.3441 42.9092 26.3441C42.7424 26.3601 42.5816 26.4153 42.4398 26.5054C42.2979 26.5954 42.1788 26.7178 42.0921 26.8627C41.8886 27.3217 42.4372 27.8909 42.4372 27.8909C42.3229 28.0109 42.2513 28.166 42.2337 28.3316C42.216 28.4972 42.2534 28.6641 42.3399 28.8059C42.6349 29.3394 43.5197 29.4706 43.5197 29.4706C43.5197 29.4706 43.328 27.426 43.9946 27.4856C44.4177 27.5129 44.8375 27.3953 45.1863 27.1518Z" fill="#545454"/>
<path d="M43.7049 28.6093C43.7049 28.6093 43.463 28.0132 43.0825 28.2039C42.702 28.3947 43.0825 28.8 43.4984 29.0355" fill="#FFC40C"/>
<path d="M42.6986 34.0486C42.6641 34.0523 42.6321 34.0685 42.6087 34.0944C42.5852 34.1202 42.572 34.1537 42.5715 34.1887L42.4591 37.2705C42.4581 37.2944 42.4631 37.318 42.4737 37.3394C42.4843 37.3607 42.5001 37.3789 42.5197 37.3923C42.5392 37.4058 42.5618 37.4139 42.5854 37.4161C42.6089 37.4183 42.6326 37.4143 42.6543 37.4047C42.6661 36.284 42.6986 35.1663 42.6986 34.0486Z" fill="#545454"/>
<path d="M46.1917 34.2662C46.1739 33.7059 46.1148 33.1455 46.0675 32.5852C45.9758 32.5286 45.8339 32.5673 45.8487 32.7015C45.9414 33.5638 46.0025 34.4291 46.032 35.2974C46.0327 35.3197 46.0383 35.3415 46.0484 35.3612C46.0585 35.381 46.0729 35.3982 46.0905 35.4116C46.108 35.4251 46.1284 35.4344 46.15 35.4388C46.1716 35.4433 46.1939 35.4429 46.2153 35.4375C46.1917 35.0501 46.2064 34.6626 46.1917 34.2662Z" fill="#545454"/>
<defs>
<linearGradient id="paint0_linear" x1="39.4939" y1="46.2537" x2="26.492" y2="53.538" gradientUnits="userSpaceOnUse">
<stop stop-color="#D46A00"/>
<stop offset="1" stop-color="white"/>
</linearGradient>
<linearGradient id="paint1_linear" x1="5047" y1="1583.67" x2="4919.02" y2="1812.14" gradientUnits="userSpaceOnUse">
<stop stop-color="#D46A00"/>
<stop offset="1" stop-color="white"/>
</linearGradient>
<linearGradient id="paint2_linear" x1="70.4492" y1="67.2422" x2="53.3834" y2="76.342" gradientUnits="userSpaceOnUse">
<stop stop-color="#8C6239"/>
<stop offset="1" stop-color="white"/>
</linearGradient>
</defs>
</svg>
