<svg width="300" height="300" viewBox="0 0 99 97" fill="none" xmlns="http://www.w3.org/2000/svg">
<path opacity="0.18" d="M71.2608 3.62056C73.9839 2.5691 76.8093 1.80482 79.6911 1.34016C90.4355 -0.358551 102.196 2.79017 109.526 10.8116C113.577 15.2502 116.106 20.8606 118.154 26.5131C122.551 38.6317 125.067 51.1718 125.055 64.028C125.006 71.5284 122.04 78.7154 116.784 84.0669C109.383 91.5277 98.4359 94.335 87.9444 94.8872C77.4529 95.4394 66.9276 94.0652 56.4361 94.6301C46.5094 95.1654 36.6248 97.4373 26.715 96.6786C16.8051 95.9199 6.30097 91.2579 2.38087 82.1195C-1.868 72.2054 1.64743 54.8558 10.0946 48.1622C19.6251 40.6128 31.5287 36.6084 40.6629 28.5406C44.6758 25.0041 47.9678 20.7341 51.694 16.8983C57.2285 11.2121 63.8927 6.4405 71.2608 3.62056Z" fill="#43BDDA"/>
<path d="M86.4355 44.3179C86.406 45.4012 85.8707 46.3959 85.3354 47.3401C82.9159 51.6185 80.1971 55.8337 76.4456 59.0119C70.928 63.6781 63.7032 65.6929 56.7229 67.5771C57.3467 67.2736 58.097 64.0575 58.3752 63.362C58.9148 61.9794 59.4206 60.58 59.9391 59.1889C60.7568 56.9886 62.4682 55.2183 64.1542 53.5997C67.952 49.9446 72.5613 47.2405 77.6048 45.7089C80.4678 44.8299 83.441 44.3615 86.4355 44.3179Z" fill="#68E1FD"/>
<path d="M86.4355 44.3179C86.406 45.4012 85.8707 46.3959 85.3354 47.3401C82.9159 51.6185 80.1971 55.8337 76.4456 59.0119C70.928 63.6781 63.7032 65.6929 56.7229 67.5771C57.3467 67.2736 58.097 64.0575 58.3752 63.362C58.9148 61.9794 59.4206 60.58 59.9391 59.1889C60.7568 56.9886 62.4682 55.2183 64.1542 53.5997C67.952 49.9446 72.5613 47.2405 77.6048 45.7089C80.4678 44.8299 83.441 44.3615 86.4355 44.3179Z" fill="url(#paint0_linear)"/>
<path d="M63.3945 17.8593V81.7021C63.3945 84.4631 60.9455 86.6971 57.9148 86.6887L28.7206 86.6423C25.7068 86.6423 23.2409 84.3998 23.2409 81.6389V17.7961C23.2409 15.0352 25.6857 12.8011 28.7206 12.8054L57.9359 12.8517C60.9455 12.8559 63.3945 15.0984 63.3945 17.8593ZM60.6083 17.9015C60.6083 16.2154 59.0993 14.8202 57.2362 14.816H53.1222V15.1954C53.1097 15.4658 53.0442 15.7311 52.9292 15.9761C52.8142 16.2212 52.6521 16.4412 52.4521 16.6236C52.252 16.806 52.0181 16.9472 51.7635 17.0392C51.5089 17.1312 51.2387 17.1721 50.9682 17.1596L35.2794 17.1343C34.7321 17.1572 34.1979 16.9626 33.7936 16.593C33.3892 16.2234 33.1475 15.7088 33.1213 15.1616V14.7823H28.8724C27.0135 14.7823 25.5003 16.1564 25.5003 17.8551V81.504C25.5003 83.1901 27.0093 84.5853 28.8724 84.5895L57.2362 84.6317C59.0951 84.6317 60.6083 83.2575 60.6083 81.5588V17.9015Z" fill="#68E1FD"/>
<path d="M64.7695 19.1534V83.0173C64.7695 85.774 62.3205 88.008 59.2898 88.0038L30.0998 87.9574C27.086 87.9574 24.6201 85.7108 24.6201 82.9498V19.107C24.6201 16.3503 27.0691 14.1121 30.0998 14.1205L59.2898 14.1627C62.3205 14.1711 64.7695 16.4136 64.7695 19.1534ZM61.9833 19.1998C61.9833 17.5137 60.4743 16.1185 58.6112 16.1143H54.4972V16.4936C54.471 17.0405 54.2291 17.5547 53.8246 17.9236C53.4202 18.2925 52.886 18.4862 52.339 18.4621L36.6502 18.4368C36.1036 18.4586 35.5705 18.2635 35.167 17.894C34.7636 17.5245 34.5225 17.0106 34.4963 16.4641V16.0848H30.2474C28.3885 16.0848 26.8752 17.4589 26.8752 19.1618V82.8107C26.8752 84.4968 28.3843 85.892 30.2474 85.8962L58.6112 85.9426C60.4701 85.9426 61.9833 84.5685 61.9833 82.8655V19.1998Z" fill="white"/>
<path d="M61.9844 19.2166V82.8655C61.9844 84.5516 60.4753 85.9426 58.6122 85.9426L30.2484 85.8962C28.3896 85.8962 26.8763 84.5137 26.8763 82.8107V19.1534C26.8763 17.4673 28.3853 16.0721 30.2484 16.0763H34.4973V16.4557C34.5236 17.0021 34.7647 17.5161 35.1681 17.8855C35.5715 18.255 36.1046 18.4501 36.6513 18.4284L52.3401 18.4537C52.887 18.4777 53.4212 18.2841 53.8257 17.9151C54.2302 17.5462 54.472 17.032 54.4982 16.4852V16.1058H58.6122C60.4669 16.1353 61.9844 17.5137 61.9844 19.2166Z" stroke="url(#paint1_linear)" stroke-width="0.618453" stroke-miterlimit="10"/>
<path d="M26.8822 19.1534V82.8023C26.8822 84.4884 28.3912 85.8878 30.2543 85.8878H34.4147H42.748H43.3719H51.5198H58.6181C60.477 85.8878 61.9902 84.5137 61.9902 82.8108V19.1619C61.9902 17.4758 60.4812 16.0764 58.6181 16.0764H54.4999V16.4557C54.488 16.726 54.4229 16.9912 54.3084 17.2362C54.1938 17.4812 54.0321 17.7013 53.8324 17.8837C53.6328 18.0662 53.3991 18.2075 53.1447 18.2995C52.8904 18.3915 52.6204 18.4325 52.3502 18.42L36.6613 18.3989C36.1133 18.4218 35.5785 18.2266 35.174 17.8561C34.7696 17.4856 34.5284 16.97 34.5032 16.422V16.0469H30.2543C28.3912 16.0806 26.8822 17.4674 26.8822 19.1534Z" fill="#8AC9FE"/>
<path d="M46.6387 17.0753L41.2433 17.0669V16.6285L46.6387 16.637V17.0753Z" fill="url(#paint2_linear)"/>
<path d="M48.054 17.3272C47.7305 17.324 47.4705 17.0818 47.4734 16.7861C47.4763 16.4905 47.7409 16.2534 48.0645 16.2566C48.3881 16.2597 48.648 16.502 48.6452 16.7976C48.6423 17.0932 48.3776 17.3303 48.054 17.3272Z" fill="url(#paint3_linear)"/>
<path d="M57.7082 47.7365H57.978C58.8207 47.7365 59.5039 48.4196 59.5039 49.2623V83.1143C59.5039 83.957 58.8207 84.6402 57.978 84.6402H57.7082C56.8655 84.6402 56.1824 83.957 56.1824 83.1143V49.2623C56.1824 48.4196 56.8655 47.7365 57.7082 47.7365Z" fill="#73C6D9"/>
<path d="M69.4072 34.5514H97.4465C99.1156 34.5514 100.469 35.9045 100.469 37.5737V79.7547C100.469 81.4239 99.1156 82.777 97.4465 82.777H69.4072C67.7381 82.777 66.385 81.4239 66.385 79.7547V37.5737C66.385 35.9045 67.7381 34.5514 69.4072 34.5514Z" fill="#68E1FD"/>
<path d="M69.958 35.3775H97.9973C99.6664 35.3775 101.02 36.7307 101.02 38.3998V80.5809C101.02 82.25 99.6664 83.6032 97.9973 83.6032H69.958C68.2889 83.6032 66.9358 82.25 66.9358 80.5809V38.3998C66.9358 36.7307 68.2889 35.3775 69.958 35.3775Z" fill="url(#paint4_linear)"/>
<path d="M71.1592 36.7433H99.1984C100.868 36.7433 102.221 38.0964 102.221 39.7656V81.9466C102.221 83.6158 100.868 84.9689 99.1984 84.9689H71.1592C69.49 84.9689 68.1369 83.6158 68.1369 81.9466V39.7656C68.1369 38.0964 69.49 36.7433 71.1592 36.7433Z" fill="white"/>
<path d="M68.1369 57.3638V81.9593C68.1381 82.7612 68.4574 83.5299 69.0249 84.0966C69.5923 84.6633 70.3615 84.9816 71.1634 84.9816H99.1984C100 84.9816 100.769 84.6631 101.336 84.0964C101.902 83.5296 102.221 82.7608 102.221 81.9593V69.0693C79.3956 74.136 68.1369 57.3638 68.1369 57.3638Z" fill="#8AC9FE"/>
<path d="M75.5327 50.5605V89.8247H79.1113V50.5605C79.1097 50.41 79.0914 50.2602 79.0565 50.1137C79.0172 49.9677 78.9621 49.8263 78.8921 49.6922L78.8331 49.5826L77.3199 46.7163L75.7476 49.6922C75.6785 49.8262 75.6248 49.9676 75.5875 50.1137C75.5506 50.2598 75.5322 50.4099 75.5327 50.5605Z" fill="#68E1FD"/>
<path d="M75.5327 50.5605V89.8247H79.1113V50.5605C79.1097 50.41 79.0914 50.2602 79.0565 50.1137C79.0172 49.9677 78.9621 49.8263 78.8921 49.6922L78.8331 49.5826L77.3199 46.7163L75.7476 49.6922C75.6785 49.8262 75.6248 49.9676 75.5875 50.1137C75.5506 50.2598 75.5322 50.4099 75.5327 50.5605Z" fill="#73C6D9"/>
<path d="M77.3283 58.8813V50.0969H75.5917V89.8247H77.3283V60.2723C77.3283 59.8845 77.3283 59.4967 77.3283 59.1089C77.3495 59.0117 77.3425 58.9105 77.3081 58.8172C77.2738 58.7238 77.2135 58.6423 77.1344 58.582C76.952 58.4165 76.7217 58.3132 76.4769 58.2869C76.3096 58.29 76.1434 58.26 75.9879 58.1984C75.9181 58.1491 75.8586 58.0865 75.8131 58.0141C75.7675 57.9418 75.7367 57.8612 75.7223 57.7769C75.6792 57.6289 75.6565 57.4758 75.6549 57.3216C75.6499 57.2978 75.6508 57.273 75.6574 57.2496C75.664 57.2261 75.6761 57.2045 75.6928 57.1868C75.7199 57.167 75.7521 57.1553 75.7856 57.153C76.0049 57.1231 76.2282 57.1492 76.4347 57.2289C76.5817 57.305 76.7374 57.3631 76.8984 57.4017C77.0069 57.4148 77.1169 57.3973 77.216 57.3511C77.315 57.3049 77.3992 57.2319 77.459 57.1404" fill="#73C6D9"/>
<path d="M75.5876 50.1137C76.0956 50.4705 76.7013 50.662 77.3221 50.662C77.9429 50.662 78.5486 50.4705 79.0566 50.1137L78.8332 49.5826L77.32 46.7163L75.7477 49.6922C75.6786 49.8262 75.6249 49.9676 75.5876 50.1137Z" fill="#5BBCD2"/>
<path d="M98.6842 41.46C98.6842 42.5307 100.459 43.0112 102.221 43.0112V41.9153C100.817 41.9153 99.9487 41.5865 99.7759 41.401C99.7587 41.263 99.6897 41.1367 99.5829 41.0477C99.476 40.9587 99.3393 40.9136 99.2005 40.9217C99.0616 40.9297 98.931 40.9902 98.8352 41.091C98.7393 41.1917 98.6853 41.3252 98.6842 41.4643V41.46Z" fill="#68E1FD"/>
<path d="M98.6842 47.7364C98.6842 48.8071 100.459 49.2876 102.221 49.2876V48.1875C100.817 48.1875 99.9487 47.8587 99.7759 47.6732C99.7587 47.5352 99.6897 47.4089 99.5829 47.3199C99.476 47.2309 99.3393 47.1858 99.2005 47.1938C99.0616 47.2019 98.931 47.2624 98.8352 47.3632C98.7393 47.4639 98.6853 47.5974 98.6842 47.7364Z" fill="#68E1FD"/>
<path d="M98.6842 54.0128C98.6842 55.0835 100.459 55.564 102.221 55.564V54.4638C100.817 54.4638 99.9487 54.135 99.7759 53.9496C99.7587 53.8116 99.6897 53.6853 99.5829 53.5962C99.476 53.5072 99.3393 53.4622 99.2005 53.4702C99.0616 53.4783 98.931 53.5388 98.8352 53.6395C98.7393 53.7403 98.6853 53.8737 98.6842 54.0128Z" fill="#68E1FD"/>
<path d="M98.6842 60.2891C98.6842 61.3598 100.459 61.8403 102.221 61.8403V60.7402C100.817 60.7402 99.9487 60.4114 99.7759 60.2259C99.7587 60.0879 99.6897 59.9616 99.5829 59.8726C99.476 59.7836 99.3393 59.7385 99.2005 59.7466C99.0616 59.7546 98.931 59.8151 98.8352 59.9159C98.7393 60.0166 98.6853 60.1501 98.6842 60.2891Z" fill="#68E1FD"/>
<path d="M98.6842 66.5655C98.6842 67.6362 100.459 68.1167 102.221 68.1167V67.0165C100.817 67.0165 99.9487 66.6878 99.7759 66.4981C99.7587 66.3597 99.6893 66.2332 99.582 66.1442C99.4747 66.0552 99.3375 66.0104 99.1984 66.019C99.0592 66.0276 98.9286 66.0889 98.833 66.1904C98.7375 66.292 98.6843 66.4261 98.6842 66.5655Z" fill="#68E1FD"/>
<path d="M98.6842 72.8419C98.6842 73.9125 100.459 74.3931 102.221 74.3931V73.2929C100.817 73.2929 99.9487 72.9641 99.7759 72.7744C99.7587 72.6361 99.6893 72.5095 99.582 72.4205C99.4747 72.3315 99.3375 72.2868 99.1984 72.2954C99.0592 72.304 98.9286 72.3653 98.833 72.4668C98.7375 72.5683 98.6843 72.7025 98.6842 72.8419Z" fill="#68E1FD"/>
<path d="M98.6842 79.1183C98.6842 80.1889 100.459 80.6695 102.221 80.6695V79.5693C100.817 79.5693 99.9487 79.2405 99.7759 79.0508C99.7587 78.9125 99.6893 78.7859 99.582 78.6969C99.4747 78.6079 99.3375 78.5632 99.1984 78.5718C99.0592 78.5803 98.9286 78.6417 98.833 78.7432C98.7375 78.8447 98.6843 78.9789 98.6842 79.1183Z" fill="#68E1FD"/>
<path d="M86.7684 81.1584C87.3542 82.0984 88.0243 82.983 88.7706 83.8013C89.9214 85.0009 91.1462 86.1271 92.4378 87.1734C93.0743 87.7214 93.7024 88.2736 94.3178 88.8595C94.8236 89.34 95.4685 89.6688 95.5823 90.4107C95.6582 90.8322 95.5823 91.3802 95.9153 91.6752C96.0411 91.7717 96.1924 91.8291 96.3505 91.8404C96.5087 91.8516 96.6666 91.8162 96.8047 91.7384C97.0767 91.576 97.3041 91.3486 97.4665 91.0767C97.5381 90.9784 97.5923 90.8687 97.6267 90.7521C97.6583 90.6248 97.6583 90.4916 97.6267 90.3643C97.4918 89.7489 97.0155 89.2852 96.6024 88.8131C96.231 88.3912 95.8941 87.9401 95.595 87.4643C95.3452 87.0983 95.063 86.7555 94.752 86.44L92.3156 83.6959C91.4431 82.7138 90.5452 81.6895 90.149 80.4376C90.0431 79.9372 89.8626 79.4555 89.6137 79.0087C88.9898 78.0982 87.5356 77.9633 86.5788 78.3932C85.4154 78.937 86.3006 80.4123 86.7684 81.1584Z" fill="#FFBBAB"/>
<path d="M91.8166 79.3585C91.8166 79.3585 92.4489 84.8719 91.8166 87.852C91.4315 89.6876 91.2659 91.5625 91.3235 93.4371C91.53 93.7238 91.3235 94.1495 91.0284 94.3434C90.7118 94.5088 90.3566 94.586 89.9999 94.5668L88.5499 94.6174C88.4657 94.6331 88.3792 94.6303 88.2962 94.6092C88.2132 94.5881 88.1358 94.5492 88.0694 94.4951C87.8797 94.2886 88.0694 93.943 88.3223 93.8207C88.5752 93.6985 88.8745 93.69 89.1105 93.5467C89.5657 93.2727 89.6248 92.6531 89.6332 92.122L89.6711 89.8121C89.7259 86.4906 89.7765 83.1521 89.2496 79.8728C89.2202 79.7239 89.2202 79.5706 89.2496 79.4217C89.3612 79.1591 89.5695 78.9493 89.8313 78.8358C90.0957 78.6591 90.3921 78.536 90.7038 78.4733C90.8604 78.4461 91.0216 78.465 91.1676 78.5279C91.3135 78.5908 91.438 78.6949 91.5258 78.8274" fill="#FFBBAB"/>
<path d="M84.0726 58.9276L83.2591 59.3745C82.8671 59.5894 82.4161 59.9857 81.9946 59.8297C81.2906 59.5557 80.5698 58.856 79.9502 58.4176C79.3306 57.9792 78.6098 57.4481 77.9438 56.9507C77.7684 56.8397 77.6154 56.6967 77.4928 56.5292C77.2947 56.2004 77.2904 55.7157 76.9448 55.5471L76.7509 56.3901L75.6845 55.8253C75.5592 55.7442 75.4122 55.7031 75.263 55.7073C74.9763 55.7578 74.8414 56.1077 74.8794 56.3986C74.9637 57.3723 75.9627 57.6842 76.7551 57.9287C76.9694 57.9798 77.1772 58.0547 77.3748 58.1521C77.5268 58.241 77.6683 58.3471 77.7963 58.4682C78.5208 59.05 79.1744 59.7149 79.7437 60.4493C80.0006 60.8152 80.2823 61.163 80.5867 61.4905C80.8242 61.8429 81.1439 62.1323 81.5183 62.3335C81.8034 62.4247 82.108 62.4364 82.3992 62.3672C83.4572 62.1691 84.4351 61.4483 85.2655 60.795C85.3583 60.7233 85.4594 60.6095 85.4004 60.5083C85.3658 60.4646 85.3188 60.4323 85.2655 60.4156C84.9401 60.2998 84.6498 60.1024 84.4225 59.8423C84.2973 59.7274 84.2004 59.585 84.1397 59.4262C84.079 59.2675 84.056 59.0968 84.0726 58.9276Z" fill="#FFBBAB"/>
<path d="M86.0086 53.5533C86.0867 53.6939 86.1962 53.8146 86.3285 53.906C86.4608 53.9974 86.6124 54.057 86.7716 54.0802C86.8537 54.0706 86.9367 54.0884 87.0076 54.1308C87.0347 54.1655 87.0537 54.2059 87.0632 54.2489C87.0727 54.292 87.0724 54.3366 87.0624 54.3795L86.9781 55.467C86.9612 55.5527 86.973 55.6416 87.0118 55.7199C87.0779 55.7995 87.1709 55.852 87.2732 55.8674C87.6694 55.977 88.1541 56.0613 88.4323 55.7621C88.5637 55.5883 88.6427 55.3806 88.66 55.1635C88.9322 53.9312 89.0062 52.6634 88.8791 51.4078C88.8512 51.0275 88.7415 50.6578 88.5574 50.3239C88.3733 49.9899 88.1193 49.6997 87.8127 49.473C87.0582 49.0178 85.1277 48.8787 85.2077 50.1433C85.29 50.6485 85.3449 51.1579 85.3721 51.6691C85.368 52.3506 85.592 53.0139 86.0086 53.5533Z" fill="#FFBBAB"/>
<path d="M85.1723 49.1232C85.0921 49.3438 85.0921 49.5855 85.1723 49.8061C85.2361 49.9058 85.3194 49.9915 85.4172 50.0582C85.515 50.1248 85.6253 50.171 85.7414 50.1939C86.3104 50.3498 86.9216 50.3077 87.478 50.4847C87.5694 50.508 87.6526 50.5561 87.7183 50.6238C87.768 50.7037 87.7957 50.7953 87.7984 50.8894C87.9249 51.99 87.8908 53.1032 87.6972 54.1941C88.7225 54.4979 89.8157 54.4847 90.8333 54.1561C90.9967 54.1252 91.1463 54.044 91.2612 53.9238C91.3761 53.8036 91.4505 53.6505 91.474 53.4859C91.7106 52.7122 91.7834 51.8976 91.6876 51.0942C91.5918 50.2907 91.3295 49.5161 90.9176 48.8197C90.7311 48.4542 90.451 48.1446 90.106 47.9225C89.761 47.7004 89.3633 47.5736 88.9533 47.5552C87.5792 47.3571 85.5306 47.4962 85.1723 49.1232Z" fill="#FC682D"/>
<path d="M86.4155 66.9996C86.4998 69.6931 85.5176 72.2264 84.7842 74.8187C84.4596 75.9442 84.1013 77.1034 84.2236 78.2667C84.2215 78.2976 84.2215 78.3286 84.2236 78.3595C87.777 79.3838 91.6718 79.8938 95.1113 78.5281C94.745 76.7126 94.5502 74.8666 94.5296 73.0147C94.5609 72.2836 94.5114 71.5514 94.3821 70.8312C94.1039 69.6046 93.3115 68.5634 92.4853 67.615C92.1518 67.2861 91.8906 66.8913 91.7181 66.4559C91.618 66.0418 91.6008 65.612 91.6675 65.1913C91.817 63.7999 91.8508 62.3985 91.7687 61.0015C91.6829 59.7357 91.3597 58.4974 90.8161 57.3511C90.5849 56.8286 90.2639 56.3507 89.8677 55.9391C89.4669 55.5266 88.9346 55.2671 88.3629 55.2056C88.0776 55.1798 87.7906 55.2297 87.5308 55.3503C87.271 55.471 87.0476 55.6581 86.8833 55.8927C86.0192 57.2247 84.5776 57.5239 83.5112 58.7211C83.4478 58.7772 83.4049 58.8528 83.389 58.936C83.3904 59.0271 83.4231 59.1149 83.4817 59.1847C83.8484 59.7706 84.2194 60.3565 84.5861 60.9467C84.7005 61.1327 84.8302 61.309 84.9739 61.4735C85.1045 61.6084 85.2647 61.718 85.3954 61.8529C85.7359 62.2758 85.9467 62.7882 86.0024 63.3282C86.235 64.5395 86.3731 65.767 86.4155 66.9996Z" fill="#73C6D9"/>
<path d="M87.5178 93.9387L87.8761 93.8249C88.1625 93.7197 88.4616 93.653 88.7655 93.6268C88.8174 93.6224 88.8696 93.6311 88.9173 93.6521C88.9781 93.6898 89.0253 93.7459 89.0522 93.8123C89.1018 93.9142 89.1738 94.0035 89.2629 94.0736C89.3589 94.1144 89.4621 94.1355 89.5664 94.1355C89.6707 94.1355 89.7739 94.1144 89.8699 94.0736C90.0805 94.0259 90.2844 93.9523 90.4769 93.8544C90.6666 93.749 90.8267 93.5973 91.0206 93.5046C91.0743 93.4748 91.1337 93.4572 91.1949 93.4528C91.256 93.4485 91.3174 93.4575 91.3747 93.4793C91.4309 93.5128 91.4785 93.559 91.5138 93.6142C91.5932 93.6988 91.6535 93.7994 91.6908 93.9092C91.7124 94.0178 91.7124 94.1295 91.6908 94.238C91.6862 94.3344 91.6587 94.4283 91.6108 94.512C91.551 94.5705 91.4796 94.6158 91.4011 94.6449C91.3227 94.6739 91.239 94.6861 91.1555 94.6806L89.402 94.7902C88.854 94.8239 88.3061 94.8576 87.7539 94.8492C87.4517 94.855 87.15 94.8224 86.8561 94.7523C86.8139 94.7523 86.7675 94.727 86.7549 94.6848C86.7445 94.6577 86.7445 94.6276 86.7549 94.6005C86.8572 94.4255 86.9934 94.2728 87.1555 94.1512C87.3177 94.0296 87.5025 93.9416 87.6991 93.8924" fill="#68E1FD"/>
<path d="M97.3924 89.9006C97.3461 90.0734 97.3924 90.2673 97.3503 90.4402C97.305 90.5764 97.2334 90.7024 97.1395 90.8111L96.718 91.3338C96.6713 91.4002 96.6127 91.4573 96.5452 91.5024C96.4533 91.5385 96.355 91.5553 96.2564 91.5517C96.1577 91.5481 96.0609 91.5241 95.9719 91.4813C95.9471 91.4687 95.9197 91.4621 95.8918 91.4621C95.864 91.4621 95.8366 91.4687 95.8118 91.4813C95.784 91.5072 95.7649 91.5411 95.757 91.5783L95.5125 92.4213C95.4114 92.7753 95.3562 93.1407 95.3481 93.5088C95.3818 93.5536 95.4269 93.5886 95.4788 93.61C95.8666 93.8081 96.5326 92.9271 96.8655 92.6447C97.1789 92.3364 97.4194 91.9619 97.5695 91.5487C97.6664 91.3338 97.7549 91.1272 97.8393 90.8996C97.9368 90.7004 98.0022 90.487 98.0331 90.2673C98.0343 90.2065 98.0183 90.1466 97.9869 90.0944C97.9556 90.0422 97.9103 89.9999 97.8561 89.9723C97.7423 89.9259 97.443 89.7109 97.3924 89.9006Z" fill="#68E1FD"/>
<path d="M78.041 48.0694H76.6036L77.3202 46.7079L78.041 48.0694Z" fill="#73C6D9"/>
<path d="M84.2212 78.2668C84.477 78.3551 84.7489 78.3869 85.0181 78.3599C85.2874 78.333 85.5476 78.248 85.7808 78.1108C86.5944 77.6008 86.9189 76.5849 87.0454 75.6365C87.3699 73.5585 87.176 71.3076 88.272 69.5119C88.605 68.9681 89.0687 68.416 89.0012 67.7753C88.9338 67.1346 88.3057 66.6582 87.9474 66.0892C87.6044 65.439 87.421 64.7166 87.4121 63.9816C87.2899 62.6117 87.1676 61.2375 87.0412 59.8676C87.0412 60.2133 85.5237 60.9509 84.9715 61.482C85.1022 61.6169 85.2624 61.7265 85.393 61.8614C85.7336 62.2842 85.9444 62.7966 86 63.3367C86.2254 64.5471 86.3564 65.7732 86.392 67.0039C86.4763 69.6974 85.4942 72.2307 84.7608 74.823C84.4573 75.9442 84.099 77.1034 84.2212 78.2668Z" fill="#6EBACC"/>
<path d="M34.4131 85.9173H42.7465H43.3703L44.8203 70.6795L41.3091 70.7975L34.4131 71.0251C34.4131 71.0251 34.2866 77.8832 34.4131 85.9173Z" fill="#473F47"/>
<path d="M41.1976 69.6637L41.3072 70.8144L42.7615 85.93H43.3853H51.5332C51.6681 74.549 50.5932 67.9902 50.5932 67.9902L41.1976 69.6637Z" fill="#473F47"/>
<path d="M56.701 56.0276C56.6462 57.0308 56.3216 57.9118 55.4364 58.1984C55.3643 58.2269 55.2894 58.2481 55.213 58.2616C53.607 58.582 51.4995 57.3596 50.0284 56.2932C49.4183 55.8491 48.833 55.3721 48.2749 54.8642V44.1114L56.0898 52.1202C56.5022 53.3813 56.7085 54.7007 56.701 56.0276Z" fill="white"/>
<path d="M50.0968 56.2468C50.0968 56.7484 50.1601 57.2585 50.1601 57.7643C50.1601 60.5421 49.5152 63.4084 50.3455 66.1314C50.531 66.7384 50.7923 67.3959 50.5774 67.9903C50.3361 68.4901 49.9232 68.8865 49.414 69.1073C46.965 70.4477 44.1366 70.8566 41.3715 71.2444C39.2934 71.5352 36.347 72.1548 34.4249 71.0336C33.6071 70.5573 33.3289 69.6679 33.0676 68.7827C32.2246 65.967 31.9927 62.9363 31.7735 60.0194C31.744 59.6358 31.7188 59.248 31.6935 58.8644C31.5333 56.2033 31.4799 53.5421 31.5333 50.8809C31.5712 48.9504 31.723 46.8639 32.9833 45.4012C34.6694 43.458 37.9066 42.1724 40.3683 41.7214C41.1667 41.5589 41.9846 41.5135 42.7962 41.5865C43.9476 41.7694 45.0595 42.1472 46.084 42.7035C47.3064 43.3063 48.3939 43.8163 48.9967 45.0261C49.6512 46.4299 50.1066 47.9181 50.3498 49.4478C50.5709 50.8793 50.5965 52.3342 50.4256 53.7725C50.354 54.4765 50.1685 55.1762 50.1011 55.8801C50.1053 56.0024 50.0968 56.1288 50.0968 56.2468Z" fill="white"/>
<path opacity="0.1" d="M38.7604 71.9905C37.9553 72.2265 36.0964 71.4889 35.4768 71.3793C35.1101 71.316 34.7729 71.1306 34.4061 71.0421C32.5683 70.5826 32.3492 65.4148 32.1679 64.0238C31.6916 60.3482 30.9581 56.5419 30.9034 52.8536C30.8216 51.4309 30.987 50.0047 31.3923 48.6385C31.856 47.2981 32.8128 46.0588 34.149 45.5741C36.5011 44.731 37.1966 52.1581 37.5212 53.7009L39.2873 62.1059C39.5353 63.1373 39.696 64.1878 39.7678 65.2462C39.8311 66.7173 39.3463 67.7753 38.9838 69.0736C38.7688 69.807 39.359 71.2064 39.0681 71.7502C39.0011 71.8676 38.8906 71.9539 38.7604 71.9905Z" fill="#020202"/>
<path d="M44.4202 39.4325C44.1243 39.7542 43.721 39.9566 43.2863 40.0016C42.9232 40.0353 42.5577 40.0353 42.1946 40.0016H41.9922C41.9397 39.9914 41.8853 40.002 41.8405 40.0311C41.8197 40.0521 41.8034 40.0772 41.7925 40.1047C41.7816 40.1322 41.7764 40.1617 41.7773 40.1913C41.6978 40.9178 41.6837 41.6499 41.7351 42.3789C41.7351 42.5096 41.7562 42.6403 41.7688 42.7709C41.7975 42.9118 41.7858 43.0579 41.7351 43.1925C41.6301 43.3424 41.4718 43.4464 41.2925 43.4833C40.9742 43.5894 40.6416 43.6462 40.3062 43.6519C39.5881 43.584 38.8977 43.3409 38.2955 42.9438C38.3435 41.6968 38.2772 40.4482 38.0974 39.2133C37.8656 37.62 37.4483 36.0267 37.6211 34.4249C37.6212 34.0459 37.7035 33.6714 37.8625 33.3273C38.0214 32.9832 38.2532 32.6778 38.5418 32.4321C38.8304 32.1864 39.1689 32.0063 39.534 31.9042C39.899 31.8022 40.2819 31.7806 40.656 31.841C41.8049 31.819 42.9359 32.1278 43.9143 32.7304C44.0606 32.846 44.1796 32.9924 44.2627 33.1593C44.3457 33.3262 44.3909 33.5093 44.3949 33.6957C44.5213 34.3238 44.6225 34.9603 44.6899 35.5925C44.77 36.3217 44.8122 37.051 44.8248 37.7802C44.8891 38.3615 44.7458 38.9467 44.4202 39.4325Z" fill="#FDBAAC"/>
<path d="M43.1521 33.1056C42.3386 33.2404 41.4661 33.1056 40.6736 33.4133C39.5945 33.8348 39.1351 35.2553 39.4976 36.3639C39.1857 36.4777 39.1267 35.9171 38.8864 35.6895C38.6461 35.4618 38.1024 35.7653 38.0434 36.1573C38.0648 36.5498 38.1836 36.9308 38.389 37.2659C38.682 37.9552 38.7326 38.7235 38.5323 39.4452C38.4817 39.6138 38.3595 39.8161 38.1867 39.7697C38.0139 39.7234 37.8958 39.4367 37.7947 39.3103C37.6406 39.1108 37.47 38.9247 37.2846 38.7539C36.9011 38.4209 36.488 38.13 36.1002 37.8055C35.4089 37.228 34.7682 36.444 34.8103 35.5461C34.8323 35.18 34.9548 34.8271 35.1644 34.5261C35.3409 34.266 35.569 34.045 35.8346 33.8769C35.9442 33.8053 36.0707 33.7336 36.0918 33.603C36.0977 33.5317 36.0891 33.46 36.0665 33.3922C35.9856 32.9323 36.0374 32.459 36.2158 32.0275C36.3942 31.596 36.6919 31.2243 37.0739 30.9558C37.8572 30.4297 38.7544 30.0974 39.6915 29.9863C40.2943 29.8768 40.897 29.7924 41.504 29.7208C42.0057 29.6979 42.4988 29.5822 42.9582 29.3794C42.8406 29.0421 42.6791 28.7218 42.4777 28.4267C42.9088 28.5536 43.3192 28.7424 43.6959 28.9874C43.675 28.7773 43.6195 28.5722 43.5315 28.3804C44.2137 28.545 44.835 28.9003 45.323 29.4047C45.5767 29.7552 45.7185 30.1742 45.7297 30.6067C45.741 31.0393 45.6213 31.4651 45.3862 31.8284C44.9183 32.566 44.1806 32.8611 43.3713 33.055L43.1521 33.1056Z" fill="#F86938"/>
<path d="M42.1953 40.0184H41.993C41.9405 40.0083 41.8861 40.0188 41.8412 40.0479C41.8204 40.069 41.8041 40.094 41.7932 40.1216C41.7824 40.1491 41.7772 40.1785 41.778 40.2081C41.6986 40.9346 41.6845 41.6668 41.7359 42.3958C41.7359 42.3958 39.6283 41.8647 39.7168 39.2892C40.511 39.6188 41.3374 39.8646 42.1827 40.0227L42.1953 40.0184Z" fill="#DEA095"/>
<path d="M58.1594 48.8576C58.3051 50.6329 58.1411 52.4201 57.6747 54.1392C57.329 55.3615 56.6777 56.4756 55.7821 57.3765C55.6215 57.5327 55.4243 57.6462 55.2086 57.7066C54.9928 57.767 54.7654 57.7723 54.547 57.7221C53.7437 57.575 53.0067 57.18 52.4395 56.5924C51.0021 55.0033 51.98 52.5585 51.98 52.5585C51.98 52.5585 54.9559 47.8755 55.6177 47.6858C55.976 47.5762 56.701 47.9387 57.3037 48.2886C57.7632 48.5752 58.1594 48.8576 58.1594 48.8576Z" fill="white"/>
<path opacity="0.1" d="M57.9039 52.293C57.6712 53.6506 57.3702 54.9955 57.0018 56.3227C56.9006 56.7687 56.7115 57.19 56.4455 57.562C55.6994 58.4767 54.3379 58.405 53.3262 58.0847C52.9974 57.9793 49.912 56.6094 50.0384 56.2932V56.2595L50.5358 53.0433C50.4936 53.3047 51.8298 54.2151 52.0069 54.35C52.8499 54.9949 54.0892 56.0361 55.084 55.0455C55.4157 54.6687 55.6617 54.2243 55.8047 53.743C56.4328 52.0587 56.9055 50.3204 57.2168 48.55C57.3122 48.5132 57.4139 48.4959 57.5161 48.4992C57.6182 48.5025 57.7187 48.5262 57.8115 48.5691C57.9043 48.6119 57.9875 48.673 58.0562 48.7486C58.125 48.8243 58.1778 48.913 58.2116 49.0094C58.3352 49.4047 58.3455 49.8268 58.2411 50.2276C58.1399 50.9189 58.0261 51.6102 57.9039 52.293Z" fill="#020202"/>
<path d="M28.2193 56.7484C27.5238 58.6368 26.9084 60.639 27.195 62.6286C27.5364 65.0439 29.1424 67.0629 30.6894 68.9513C31.9033 69.1326 33.4967 69.1073 33.9266 67.9566C34.035 67.586 34.0637 67.1967 34.0109 66.8142L33.8381 64.3231C33.6951 63.2147 33.7522 62.0897 34.0067 61.0015C34.3734 59.7834 35.2164 58.7802 35.8824 57.6969C36.9692 55.9364 37.6142 53.9393 37.7624 51.8757C37.9015 49.9368 36.4388 43.6815 33.581 45.553C32.3965 46.3286 31.3469 49.5447 30.7231 50.8388C29.7901 52.7581 28.9555 54.728 28.2193 56.7484Z" fill="white"/>
<path d="M34.659 70.65C34.725 70.7454 34.7603 70.8586 34.7601 70.9746C34.7601 71.0884 34.6168 71.1938 34.5157 71.1432C34.2248 72.0368 34.8318 72.9726 34.8318 73.9168C34.834 74.0013 34.8212 74.0855 34.7939 74.1655C34.7521 74.2687 34.6801 74.3568 34.5873 74.4184C34.4295 74.5182 34.2491 74.5767 34.0627 74.5885C33.8763 74.6003 33.69 74.565 33.5209 74.4858C33.182 74.3269 32.8793 74.1002 32.6315 73.8198C32.09 73.3228 31.6765 72.7025 31.4259 72.0115C31.3388 71.6886 31.2809 71.3585 31.2531 71.0252L30.9623 68.5677C32.8085 67.965 33.8033 69.1874 34.659 70.65Z" fill="#FDBAAC"/>
<path d="M54.9623 45.5318C54.8928 45.3729 54.8681 45.198 54.8907 45.026C54.9052 44.9416 54.952 44.8662 55.0213 44.8158C55.0906 44.7654 55.1768 44.744 55.2616 44.7563C55.3628 44.7815 55.4302 44.8701 55.5187 44.9206C55.6245 44.9756 55.7445 44.9969 55.8628 44.9819C55.981 44.9668 56.0919 44.916 56.1805 44.8363C56.3582 44.6772 56.5016 44.4836 56.602 44.2673C56.9337 43.6851 57.2982 43.1221 57.6937 42.5812C57.7748 42.4441 57.8973 42.3364 58.0436 42.2735C58.1308 42.255 58.2208 42.254 58.3084 42.2706C58.396 42.2873 58.4793 42.3212 58.5536 42.3705C58.9092 42.5895 59.2049 42.8931 59.4146 43.2542C59.6242 43.6154 59.7411 44.0228 59.755 44.4401C59.7729 45.2792 59.525 46.1025 59.0468 46.7922C58.573 47.4799 58.0166 48.107 57.3902 48.6595C57.2501 48.8206 57.0652 48.9365 56.8591 48.9925C55.6873 49.1864 55.1815 46.2063 54.9623 45.5318Z" fill="#FDBAAC"/>
<path opacity="0.41" d="M47.325 23.1198H59.7598V34.075H47.325V23.1198Z" fill="white"/>
<defs>
<linearGradient id="paint0_linear" x1="56.7397" y1="43.3062" x2="100.046" y2="80.1973" gradientUnits="userSpaceOnUse">
<stop offset="0.01"/>
<stop offset="0.13" stop-opacity="0.69"/>
<stop offset="0.25" stop-opacity="0.32"/>
<stop offset="1" stop-opacity="0"/>
</linearGradient>
<linearGradient id="paint1_linear" x1="12.687" y1="28.3467" x2="65.3464" y2="74.1919" gradientUnits="userSpaceOnUse">
<stop stop-color="white"/>
<stop offset="1" stop-color="#CBCBCB"/>
</linearGradient>
<linearGradient id="paint2_linear" x1="14727.5" y1="38.0285" x2="14727.5" y2="41.7059" gradientUnits="userSpaceOnUse">
<stop stop-color="white"/>
<stop offset="1" stop-color="#CBCBCB"/>
</linearGradient>
<linearGradient id="paint3_linear" x1="2344.67" y1="309.969" x2="2345.07" y2="316.436" gradientUnits="userSpaceOnUse">
<stop stop-color="white"/>
<stop offset="1" stop-color="#CBCBCB"/>
</linearGradient>
<linearGradient id="paint4_linear" x1="6053.41" y1="6094.45" x2="-35750.3" y2="7546.83" gradientUnits="userSpaceOnUse">
<stop offset="0.01"/>
<stop offset="0.13" stop-opacity="0.69"/>
<stop offset="0.25" stop-opacity="0.32"/>
<stop offset="1" stop-opacity="0"/>
</linearGradient>
</defs>
</svg>
